<svg width="216" height="32" viewBox="0 0 216 32" fill="none" xmlns="http://www.w3.org/2000/svg">
<path d="M6.83125 25.8086L5.3125 29.4378C12.4625 33.8628 19.525 31.2815 22.1625 29.4378L20.6437 25.8086C14.4542 28.2878 8.85833 26.8419 6.83125 25.8086Z" fill="#7940C9"/>
<path d="M23.2334 24.7294V7.96068H28.2876V12.0586H27.9459C28.2188 10.6919 28.8105 9.64401 29.723 8.91693C30.6563 8.16484 31.8855 7.73359 33.4126 7.61901L34.9146 7.51693L35.223 11.8544L32.3209 12.1628C31.023 12.2773 30.0563 12.6523 29.4188 13.2898C28.8042 13.9273 28.4959 14.8503 28.4959 16.0565V24.7315H23.2355L23.2334 24.7294ZM41.048 25.1044C39.8188 25.1044 38.7147 24.8648 37.7355 24.3878C36.7563 23.9086 35.9938 23.2607 35.448 22.4398C34.9021 21.619 34.6292 20.6982 34.6292 19.6732C34.6292 18.444 34.948 17.4753 35.5855 16.7711C36.223 16.0419 37.2584 15.5294 38.6938 15.2336C40.1292 14.9148 42.0292 14.7544 44.398 14.7544H46.2084V17.419H44.4334C43.5459 17.419 42.7938 17.4523 42.1792 17.5211C41.5876 17.5898 41.098 17.7148 40.7105 17.8961C40.323 18.0544 40.0396 18.2607 39.8563 18.5107C39.698 18.7607 39.6167 19.0794 39.6167 19.4669C39.6167 20.1044 39.8334 20.6273 40.2667 21.0378C40.723 21.4482 41.3709 21.6523 42.2126 21.6523C42.873 21.6523 43.4542 21.5044 43.9542 21.2086C44.4771 20.8898 44.8876 20.469 45.1834 19.944C45.4792 19.3982 45.6271 18.7836 45.6271 18.1003V14.1732C45.6271 13.1711 45.4001 12.4648 44.9438 12.0565C44.4876 11.6232 43.7147 11.4086 42.6209 11.4086C41.7105 11.4086 40.7417 11.5565 39.7188 11.8523C38.7167 12.1253 37.7147 12.5461 36.7126 13.1169L35.3126 9.66693C35.9042 9.25651 36.623 8.90443 37.4647 8.60859C38.3292 8.28984 39.2292 8.05026 40.1626 7.89193C41.0959 7.71068 41.9834 7.61901 42.8272 7.61901C44.5813 7.61901 46.0146 7.88151 47.1313 8.40443C48.2709 8.90443 49.123 9.69193 49.6938 10.7607C50.2626 11.8086 50.548 13.1628 50.548 14.8253V24.7294H45.7313V21.3482H45.9709C45.8334 22.1232 45.5376 22.794 45.0834 23.3628C44.6501 23.9086 44.0938 24.3419 43.4105 24.6607C42.7271 24.9565 41.9417 25.1044 41.0542 25.1044H41.048ZM62.8417 25.1044C61.498 25.1044 60.3022 24.7753 59.2563 24.1148C58.2313 23.4315 57.548 22.5315 57.2063 21.4169H57.548V24.7294H52.4938V0.652344H57.6522V11.069H57.2417C57.6063 10.044 58.3001 9.21276 59.3251 8.57526C60.3501 7.93776 61.523 7.61901 62.8438 7.61901C64.323 7.61901 65.6105 7.97109 66.7022 8.67734C67.7959 9.38359 68.648 10.3857 69.2626 11.6836C69.8772 12.9815 70.1855 14.5294 70.1855 16.3294C70.1855 18.1294 69.8772 19.6878 69.2626 21.0086C68.648 22.3294 67.7834 23.3419 66.6667 24.0482C65.573 24.7544 64.298 25.1065 62.8417 25.1065V25.1044ZM61.3042 21.244C62.398 21.244 63.2855 20.8461 63.9688 20.0482C64.6521 19.2294 64.9938 17.9878 64.9938 16.3253C64.9938 14.6628 64.6521 13.444 63.9688 12.6711C63.2855 11.8732 62.398 11.4753 61.3042 11.4753C60.2105 11.4753 59.2897 11.8732 58.6063 12.6711C57.923 13.4461 57.5813 14.6628 57.5813 16.3253C57.5813 17.9878 57.923 19.2273 58.6063 20.0482C59.2897 20.844 60.1897 21.244 61.3042 21.244Z" fill="#172235"/>
<path d="M80.4914 25.1055C79.2394 25.1055 78.0206 24.9909 76.8373 24.7639C75.6769 24.5597 74.5935 24.2639 73.5935 23.8764C72.5914 23.466 71.7144 22.9889 70.9644 22.441L72.5019 18.2743C73.231 18.7743 74.0164 19.2076 74.8581 19.5722C75.6998 19.9368 76.5998 20.2201 77.556 20.4264C78.5123 20.6076 79.4914 20.6993 80.4935 20.6993C82.156 20.6993 83.3394 20.4493 84.0456 19.9472C84.7519 19.4243 85.1039 18.7743 85.1039 18.0014C85.1039 17.568 84.9894 17.193 84.7623 16.8743C84.5581 16.5555 84.2039 16.2826 83.7039 16.0555C83.2248 15.8055 82.5644 15.5993 81.7227 15.441L77.8623 14.6222C75.6769 14.166 74.0477 13.393 72.9789 12.2993C71.931 11.1826 71.4081 9.72637 71.4081 7.92845C71.4081 6.38053 71.8185 5.03678 72.6373 3.8972C73.4789 2.7597 74.6289 1.87012 76.0873 1.23262C77.5664 0.595117 79.2644 0.276367 81.1769 0.276367C82.2935 0.276367 83.3623 0.390951 84.3873 0.618034C85.4123 0.822201 86.356 1.13053 87.2227 1.54095C88.0894 1.95137 88.8394 2.44095 89.4769 3.0097L87.9394 6.90345C87.0289 6.17428 86.0039 5.62845 84.8644 5.26387C83.7269 4.87637 82.4852 4.68262 81.1414 4.68262C80.1852 4.68262 79.3664 4.80762 78.6831 5.05762C78.0227 5.30762 77.5102 5.66178 77.1456 6.11595C76.8039 6.5722 76.6331 7.09512 76.6331 7.68678C76.6331 8.3472 76.8727 8.88262 77.3498 9.29303C77.8269 9.70345 78.6581 10.0326 79.8435 10.2826L83.7039 11.1014C85.9352 11.5805 87.5977 12.3535 88.6894 13.4243C89.7831 14.4722 90.3289 15.8597 90.3289 17.591C90.3289 19.093 89.9185 20.4139 89.0998 21.5535C88.3019 22.6701 87.1644 23.5451 85.6852 24.1826C84.2289 24.7972 82.4977 25.1055 80.4935 25.1055H80.4914ZM91.4227 24.7305V0.651367H96.581V11.1035H96.1019C96.6248 9.98678 97.3998 9.1347 98.4248 8.54095C99.4727 7.92637 100.656 7.61803 101.977 7.61803C103.298 7.61803 104.425 7.88053 105.289 8.40345C106.154 8.90345 106.804 9.67845 107.235 10.7264C107.669 11.7514 107.883 13.0597 107.883 14.6535V24.7285H102.725V14.893C102.725 14.118 102.623 13.493 102.416 13.0139C102.233 12.5139 101.95 12.1597 101.562 11.9555C101.198 11.7285 100.731 11.6139 100.162 11.6139C99.4331 11.6139 98.7956 11.7722 98.2498 12.093C97.7269 12.3889 97.3164 12.8222 97.0206 13.391C96.7248 13.9597 96.5769 14.6201 96.5769 15.3722V24.7305H91.4185H91.4227ZM115.508 25.1055C114.279 25.1055 113.175 24.866 112.196 24.3889C111.216 23.9097 110.454 23.2618 109.908 22.441C109.362 21.6201 109.089 20.6993 109.089 19.6743C109.089 18.4451 109.408 17.4764 110.046 16.7722C110.683 16.043 111.719 15.5305 113.154 15.2347C114.589 14.916 116.489 14.7555 118.858 14.7555H120.669V17.4201H118.894C118.006 17.4201 117.254 17.4535 116.639 17.5222C116.048 17.591 115.558 17.716 115.171 17.8972C114.783 18.0555 114.5 18.2618 114.316 18.5118C114.156 18.7618 114.077 19.0805 114.077 19.468C114.077 20.1055 114.294 20.6285 114.725 21.0389C115.181 21.4493 115.829 21.6535 116.673 21.6535C117.333 21.6535 117.914 21.5055 118.414 21.2097C118.937 20.891 119.348 20.4701 119.644 19.9451C119.939 19.3993 120.087 18.7847 120.087 18.1014V14.1743C120.087 13.1722 119.86 12.466 119.404 12.0576C118.948 11.6243 118.175 11.4097 117.081 11.4097C116.171 11.4097 115.202 11.5576 114.179 11.8535C113.177 12.1264 112.175 12.5472 111.173 13.118L109.773 9.66803C110.364 9.25762 111.081 8.90553 111.925 8.6097C112.789 8.29095 113.689 8.05137 114.623 7.89303C115.556 7.71178 116.444 7.62012 117.287 7.62012C119.041 7.62012 120.475 7.88262 121.591 8.40553C122.729 8.90553 123.583 9.69303 124.152 10.7618C124.721 11.8097 125.006 13.1639 125.006 14.8264V24.7305H120.189V21.3493H120.429C120.291 22.1243 119.996 22.7951 119.541 23.3639C119.108 23.9097 118.552 24.343 117.869 24.6618C117.185 24.9576 116.4 25.1055 115.512 25.1055H115.508ZM126.952 24.7305V7.9597H132.006V12.0576H131.664C131.937 10.691 132.529 9.64303 133.439 8.91595C134.373 8.16387 135.602 7.73262 137.129 7.61803L138.631 7.51595L138.937 11.8535L136.035 12.1618C134.737 12.2764 133.771 12.6514 133.133 13.2889C132.519 13.9264 132.21 14.8493 132.21 16.0555V24.7305H126.95H126.952ZM147.539 25.1055C145.558 25.1055 143.85 24.7535 142.416 24.0472C141.004 23.318 139.912 22.3055 139.137 21.0076C138.385 19.6868 138.01 18.1389 138.01 16.3618C138.01 14.5847 138.375 13.118 139.104 11.8201C139.833 10.4993 140.846 9.47428 142.144 8.7472C143.464 7.99512 144.956 7.62012 146.619 7.62012C148.281 7.62012 149.671 7.9722 150.854 8.67845C152.037 9.36178 152.95 10.341 153.587 11.616C154.248 12.891 154.579 14.4055 154.579 16.1576V17.4555H142.25V14.791H150.856L150.31 15.2701C150.31 13.8805 150.004 12.8347 149.387 12.1285C148.796 11.3993 147.941 11.0347 146.825 11.0347C145.983 11.0347 145.264 11.2285 144.673 11.616C144.081 12.0035 143.625 12.5618 143.306 13.2889C142.987 14.018 142.827 14.8951 142.827 15.918V16.191C142.827 17.3514 142.998 18.3076 143.339 19.0597C143.704 19.7889 144.239 20.3347 144.944 20.6993C145.673 21.0639 146.573 21.2451 147.641 21.2451C148.552 21.2451 149.475 21.1076 150.408 20.8347C151.341 20.5618 152.185 20.141 152.935 19.5701L154.302 23.0201C153.46 23.6576 152.423 24.1701 151.194 24.5576C149.987 24.9222 148.769 25.1035 147.539 25.1035V25.1055Z" fill="#7940C9"/>
<path d="M13.9792 15.0808V14.2662L21.1 9.43703V23.3474C14.7937 26.7037 7.07917 24.8579 3.55833 21.5454C0.791667 18.9433 0 15.1829 0 12.9599C0 7.90786 2.81875 2.04536 10.0042 0.489109C15.7521 -0.75464 19.1167 0.676609 20.3958 1.47869L19.0562 5.61203C16.1687 3.91619 5.67083 3.06828 5.67083 12.9599C5.67083 19.9891 12.2583 21.7204 15.9917 20.0599V15.0787H13.9792V15.0808Z" fill="#172235"/>
</svg>
