<svg width="106" height="36" viewBox="0 0 106 36" fill="none" xmlns="http://www.w3.org/2000/svg">
<g clip-path="url(#clip0_252_506)">
<mask id="mask0_252_506" style="mask-type:luminance" maskUnits="userSpaceOnUse" x="0" y="0" width="106" height="36">
<path d="M105.882 0H0V35.8132H105.882V0Z" fill="white"/>
</mask>
<g mask="url(#mask0_252_506)">
<path d="M25.4685 35.7662C25.2859 35.7662 25.1067 35.7512 24.9307 35.7212C24.7549 35.6913 24.5923 35.6481 24.4428 35.5916C24.2935 35.535 24.1641 35.4685 24.0544 35.3921L24.3084 34.6787C24.4113 34.7452 24.5258 34.8034 24.652 34.8533C24.778 34.9031 24.9109 34.9431 25.0502 34.9729C25.1896 34.9996 25.3291 35.0129 25.4685 35.0129C25.6875 35.0129 25.8403 34.9846 25.9266 34.9281C26.0161 34.8682 26.0609 34.795 26.0609 34.7086C26.0609 34.6555 26.0476 34.6104 26.0211 34.574C25.9946 34.5374 25.9498 34.5058 25.8866 34.4792C25.8269 34.4493 25.7456 34.4243 25.6428 34.4043L25.0602 34.2796C24.7415 34.2131 24.5042 34.0966 24.3483 33.9305C24.1923 33.7642 24.1142 33.5496 24.1142 33.287C24.1142 33.0542 24.1757 32.853 24.2984 32.6833C24.4247 32.5106 24.5989 32.3775 24.8212 32.2844C25.047 32.1879 25.3059 32.1396 25.598 32.1396C25.7606 32.1396 25.9166 32.1547 26.0659 32.1845C26.2187 32.2145 26.3597 32.2594 26.4892 32.3192C26.6186 32.3758 26.7281 32.4423 26.8176 32.5188L26.5637 33.1873C26.4376 33.0941 26.29 33.0226 26.1208 32.9727C25.9547 32.9195 25.7771 32.8929 25.588 32.8929C25.4651 32.8929 25.3606 32.9079 25.2744 32.9377C25.188 32.9643 25.1217 33.0044 25.0752 33.0576C25.032 33.1107 25.0104 33.1723 25.0104 33.2422C25.0104 33.312 25.0386 33.3718 25.0951 33.4217C25.1548 33.4682 25.2627 33.5081 25.4188 33.5414L25.9962 33.6661C26.3182 33.7359 26.5589 33.8506 26.7182 34.0104C26.8776 34.1699 26.9571 34.3776 26.9571 34.6339C26.9571 34.8598 26.8958 35.0594 26.7729 35.2323C26.65 35.4021 26.4776 35.5334 26.255 35.6265C26.0327 35.7195 25.7706 35.7662 25.4685 35.7662ZM27.1365 35.7113L28.7795 32.1946H29.5012L31.1443 35.7113H30.2282L29.8149 34.7436L30.1635 34.998H28.1122L28.4658 34.7436L28.0525 35.7113H27.1365ZM29.1328 33.1523L28.5553 34.534L28.416 34.2946H29.8648L29.7254 34.534L29.1429 33.1523H29.1328ZM32.3828 35.7113L30.7845 32.1946H31.7605L32.9056 34.8583H32.6267L33.7718 32.1946H34.7128L33.1098 35.7113H32.3828ZM35.1044 35.7113V32.1946H37.5839V32.9029H35.9807V33.5712H37.4694V34.2796H35.9807V35.003H37.5839V35.7113H35.1044ZM41.663 35.7662C41.3975 35.7662 41.1552 35.7229 40.936 35.6364C40.7171 35.55 40.5279 35.4269 40.3684 35.2673C40.2126 35.1044 40.0914 34.9115 40.0051 34.6887C39.9221 34.466 39.8806 34.2197 39.8806 33.9504C39.8806 33.6777 39.9221 33.4299 40.0051 33.2072C40.0914 32.9844 40.2126 32.7932 40.3684 32.6335C40.5279 32.474 40.7171 32.3525 40.936 32.2694C41.1552 32.1829 41.3975 32.1396 41.663 32.1396C41.9285 32.1396 42.1708 32.1829 42.3899 32.2694C42.609 32.3525 42.7965 32.474 42.9524 32.6335C43.1119 32.7932 43.2329 32.9844 43.316 33.2072C43.4023 33.4267 43.4455 33.6727 43.4455 33.9455C43.4455 34.2215 43.4023 34.4709 43.316 34.6937C43.2329 34.9165 43.1119 35.1093 42.9524 35.2724C42.7965 35.4319 42.609 35.555 42.3899 35.6415C42.1708 35.7245 41.9285 35.7662 41.663 35.7662ZM41.663 34.998C41.8389 34.998 41.9883 34.9563 42.1111 34.8732C42.2338 34.7902 42.3285 34.6703 42.3948 34.5142C42.4613 34.3578 42.4945 34.1699 42.4945 33.9504C42.4945 33.7309 42.4613 33.543 42.3948 33.3867C42.3319 33.2305 42.2372 33.1124 42.1111 33.0326C41.9883 32.9495 41.8389 32.9079 41.663 32.9079C41.4904 32.9079 41.341 32.9495 41.2149 33.0326C41.092 33.1124 40.9975 33.2305 40.931 33.3867C40.8647 33.543 40.8316 33.7309 40.8316 33.9504C40.8316 34.1699 40.8631 34.3578 40.9262 34.5142C40.9926 34.6703 41.0889 34.7902 41.2149 34.8732C41.341 34.9563 41.4904 34.998 41.663 34.998ZM44.1777 35.7113V32.1946H44.85L46.6024 34.3844H46.463V32.1946H47.3095V35.7113H46.6423L44.8898 33.5164H45.0292V35.7113H44.1777ZM49.7584 35.7113V32.1946H52.2376V32.9029H50.6346V33.5712H52.1231V34.2796H50.6346V35.003H52.2376V35.7113H49.7584ZM54.1827 35.7113L52.5847 32.1946H53.5604L54.7055 34.8583H54.4268L55.5718 32.1946H56.5129L54.9097 35.7113H54.1827ZM56.9043 35.7113V32.1946H59.3838V32.9029H57.7807V33.5712H59.2693V34.2796H57.7807V35.003H59.3838V35.7113H56.9043ZM60.1541 35.7113V32.1946H61.842C62.2402 32.1946 62.5473 32.2926 62.763 32.4889C62.982 32.6817 63.0916 32.9511 63.0916 33.297C63.0916 33.5198 63.0419 33.7143 62.9422 33.8806C62.8459 34.0436 62.7049 34.1699 62.5191 34.2598C62.3365 34.3462 62.1107 34.3894 61.842 34.3894L61.8818 34.2996H62.1207C62.2636 34.2996 62.3896 34.3344 62.4991 34.4043C62.6086 34.4709 62.6999 34.574 62.773 34.7136L63.3206 35.7113H62.3149L61.7075 34.5939C61.681 34.544 61.6495 34.5058 61.6129 34.4792C61.5763 34.4525 61.535 34.4326 61.4884 34.4193C61.4452 34.4061 61.3971 34.3993 61.344 34.3993H61.0703V35.7113H60.1541ZM61.0703 33.751H61.6776C61.8536 33.751 61.9881 33.716 62.081 33.6461C62.1739 33.5763 62.2204 33.4682 62.2204 33.3219C62.2204 33.1823 62.1739 33.0774 62.081 33.0076C61.9881 32.9345 61.8536 32.8979 61.6776 32.8979H61.0703V33.751ZM64.6437 35.7113V33.9155L64.8328 34.4193L63.2944 32.1946H64.3448L65.2063 33.4716H65.027L65.8883 32.1946H66.909L65.3755 34.4193L65.5597 33.9155V35.7113H64.6437ZM68.1364 35.7113V32.9427H67.0212V32.1946H70.1678V32.9427H69.0525V35.7113H68.1364ZM70.7054 35.7113V32.1946H71.6217V33.5514H73.0708V32.1946H73.9814V35.7113H73.0708V34.3046H71.6217V35.7113H70.7054ZM74.8108 35.7113V32.1946H75.7271V35.7113H74.8108ZM76.5537 35.7113V32.1946H77.2257L78.9784 34.3844H78.8386V32.1946H79.685V35.7113H79.0179L77.2652 33.5164H77.405V35.7113H76.5537ZM82.3101 35.7662C81.9085 35.7662 81.5668 35.6913 81.2845 35.5416C81.0057 35.3921 80.7932 35.1825 80.6471 34.9131C80.5017 34.6437 80.4283 34.3294 80.4283 33.9704C80.4283 33.5979 80.5045 33.2754 80.6577 33.0026C80.8137 32.7266 81.036 32.5138 81.3247 32.3643C81.6134 32.2145 81.9614 32.1396 82.3701 32.1396C82.5325 32.1396 82.692 32.1547 82.848 32.1845C83.004 32.2112 83.1466 32.2528 83.2758 32.3092C83.4092 32.3625 83.5221 32.4257 83.6146 32.4988L83.3358 33.2072C83.1798 33.1074 83.0259 33.036 82.8727 32.9928C82.7202 32.9461 82.5544 32.9229 82.3751 32.9229C82.0398 32.9229 81.7892 33.0126 81.6233 33.1921C81.4603 33.3684 81.3791 33.6279 81.3791 33.9704C81.3791 34.3096 81.4624 34.5656 81.6283 34.7386C81.7941 34.9115 82.0398 34.998 82.3652 34.998C82.4647 34.998 82.5727 34.988 82.6885 34.968C82.8085 34.9481 82.9278 34.9197 83.0471 34.8833L82.8777 35.2274V34.3745H82.176V33.7309H83.6245V35.4968C83.5017 35.5532 83.3675 35.6014 83.2214 35.6415C83.0788 35.6813 82.9292 35.7113 82.7732 35.7312C82.6207 35.7545 82.4661 35.7662 82.3101 35.7662Z" fill="#172235"/>
<path opacity="0.5" d="M24.1551 27.3633H83.5172" stroke="#172235" stroke-width="0.778546"/>
<path d="M6.35652 23.917L4.94943 27.2849C11.5726 31.3918 18.115 28.996 20.5583 27.2849L19.1513 23.917C13.4182 26.2189 8.23262 24.8762 6.35652 23.917Z" fill="#D2E600"/>
<path d="M21.55 22.9501V7.38539H26.2327V11.1894H25.9163C26.1694 9.92135 26.7178 8.94928 27.5616 8.27297C28.4263 7.57563 29.5655 7.17405 30.9787 7.06838L32.3709 6.97329L32.6556 10.9992L29.9663 11.2845C28.7638 11.3901 27.8675 11.7389 27.2769 12.3306C26.7074 12.9223 26.4225 13.7782 26.4225 14.8982V22.9501H21.55ZM38.9837 23.2987C37.8446 23.2987 36.8216 23.0769 35.9146 22.6331C35.0076 22.1893 34.301 21.5869 33.7947 20.8261C33.2885 20.0654 33.0354 19.2093 33.0354 18.2584C33.0354 17.1172 33.3307 16.2192 33.9213 15.564C34.5119 14.8877 35.4717 14.4122 36.8006 14.1374C38.1294 13.8416 39.8907 13.6937 42.0844 13.6937H43.7612V16.1662H42.1159C41.2933 16.1662 40.5973 16.198 40.0278 16.2614C39.4793 16.3248 39.0259 16.4409 38.6673 16.61C38.3086 16.758 38.045 16.9481 37.8763 17.1806C37.7287 17.4131 37.6548 17.7089 37.6548 18.0682C37.6548 18.6599 37.8552 19.146 38.256 19.5264C38.6778 19.9068 39.2791 20.0969 40.0595 20.0969C40.6712 20.0969 41.2089 19.9597 41.673 19.685C42.1581 19.3891 42.5378 18.9981 42.812 18.512C43.0862 18.0048 43.2234 17.4342 43.2234 16.8002V13.1548C43.2234 12.2249 43.0125 11.5698 42.5906 11.1894C42.1687 10.7878 41.4516 10.5871 40.4392 10.5871C39.5954 10.5871 38.6989 10.7244 37.7497 10.9992C36.8216 11.2528 35.8936 11.6437 34.9655 12.1721L33.6681 8.97038C34.2166 8.58998 34.8811 8.26245 35.6616 7.98772C36.4631 7.69182 37.2962 7.46989 38.1609 7.32201C39.0259 7.15295 39.8486 7.06838 40.629 7.06838C42.2532 7.06838 43.582 7.31142 44.6155 7.79749C45.6702 8.26245 46.4613 8.99156 46.9886 9.98481C47.5159 10.9569 47.7795 12.2143 47.7795 13.757V22.9501H43.3183V19.8117H43.5398C43.4133 20.5303 43.139 21.1538 42.7172 21.6821C42.3164 22.1893 41.7996 22.5908 41.1668 22.8866C40.534 23.1614 39.8064 23.2987 38.9837 23.2987ZM59.1725 23.2987C57.928 23.2987 56.8206 22.9923 55.8504 22.3795C54.9012 21.7455 54.2683 20.9107 53.952 19.8751H54.2683V22.9501H49.5856V0.601627H54.3632V10.2701H53.9835C54.321 9.31909 54.9644 8.5477 55.9136 7.95596C56.8628 7.36429 57.9492 7.06838 59.1725 7.06838C60.5436 7.06838 61.7352 7.39598 62.7477 8.05111C63.7602 8.70624 64.5513 9.6361 65.1208 10.8407C65.6903 12.0453 65.9751 13.4823 65.9751 15.1519C65.9751 16.8213 65.6903 18.269 65.1208 19.4947C64.5513 20.7204 63.7497 21.6609 62.7162 22.3161C61.7037 22.9712 60.5225 23.2987 59.1725 23.2987ZM57.7487 19.7166C58.7611 19.7166 59.5838 19.3468 60.2166 18.6072C60.8493 17.8464 61.1657 16.6946 61.1657 15.1519C61.1657 13.6092 60.8493 12.4785 60.2166 11.76C59.5838 11.0203 58.7611 10.6505 57.7487 10.6505C56.7151 10.6505 55.8819 11.0203 55.2491 11.76C54.6163 12.4785 54.3 13.6092 54.3 15.1519C54.3 16.6946 54.6163 17.8464 55.2491 18.6072C55.8819 19.3468 56.7151 19.7166 57.7487 19.7166ZM77.8969 23.2987C76.2515 23.2987 74.743 23.0239 73.3722 22.4745C72.0225 21.925 70.8621 21.1431 69.8919 20.1288C68.9217 19.1143 68.1728 17.8992 67.6454 16.4832C67.1393 15.0673 66.8861 13.4929 66.8861 11.76C66.8861 10.0059 67.1393 8.43151 67.6454 7.03669C68.1728 5.62077 68.9217 4.41617 69.8919 3.42292C70.8621 2.40852 72.0225 1.62659 73.3722 1.07712C74.743 0.527662 76.2515 0.25293 77.8969 0.25293C79.5628 0.25293 81.0712 0.527662 82.4216 1.07712C83.7712 1.62659 84.931 2.39795 85.9016 3.39122C86.8722 4.38447 87.6204 5.58906 88.1484 7.00499C88.6757 8.42092 88.939 9.99532 88.939 11.7283C88.939 13.4823 88.6757 15.0673 88.1484 16.4832C87.6204 17.8992 86.8722 19.1143 85.9016 20.1288C84.931 21.1431 83.7712 21.925 82.4216 22.4745C81.0712 23.0239 79.5628 23.2987 77.8969 23.2987ZM77.8969 19.1143C79.1625 19.1143 80.2277 18.8289 81.0924 18.2584C81.9571 17.6666 82.6214 16.8213 83.0858 15.7224C83.5708 14.6024 83.8136 13.2816 83.8136 11.76C83.8136 10.2173 83.5814 8.89641 83.1176 7.79749C82.6531 6.69856 81.9783 5.86379 81.0924 5.2932C80.2065 4.72262 79.1414 4.4373 77.8969 4.4373C76.6736 4.4373 75.619 4.72262 74.7331 5.2932C73.8472 5.86379 73.1717 6.69856 72.708 7.79749C72.2442 8.89641 72.012 10.2173 72.012 11.76C72.012 13.2816 72.2442 14.6024 72.708 15.7224C73.1717 16.8213 73.8472 17.6666 74.7331 18.2584C75.619 18.8289 76.6736 19.1143 77.8969 19.1143ZM90.5633 22.9501V7.38539H95.2461V10.3017H94.8981C95.383 9.26629 96.1002 8.47372 97.0496 7.92426C98.0202 7.3537 99.1164 7.06838 100.34 7.06838C101.585 7.06838 102.608 7.31142 103.409 7.79749C104.211 8.26245 104.812 8.98097 105.212 9.95304C105.613 10.9041 105.814 12.1193 105.814 13.5986V22.9501H101.036V13.8204C101.036 13.1019 100.941 12.5208 100.751 12.077C100.583 11.612 100.319 11.2845 99.9607 11.0942C99.6232 10.883 99.1905 10.7773 98.6632 10.7773C97.9884 10.7773 97.3976 10.9252 96.8915 11.2211C96.4065 11.4958 96.0268 11.8973 95.7522 12.4257C95.4783 12.954 95.3414 13.5669 95.3414 14.2642V22.9501H90.5633Z" fill="#172235"/>
<path d="M12.978 14.0158V13.2594L19.5739 8.77743V21.6883C13.7329 24.8031 6.58518 23.0897 3.32335 20.016C0.76053 17.601 0.0275574 14.1115 0.0275574 12.0485C0.0275574 7.3598 2.63809 1.91698 9.2949 0.474304C14.6204 -0.679837 17.7356 0.64917 18.9212 1.39237L17.6812 5.2286C15.0054 3.65477 5.28123 2.86782 5.28123 12.0485C5.28123 18.5733 11.3833 20.1799 14.8423 18.639V14.0158H12.978Z" fill="#172235"/>
</g>
</g>
<defs>
<clipPath id="clip0_252_506">
<rect width="105.882" height="36" fill="white"/>
</clipPath>
</defs>
</svg>
