<svg width="142" height="32" viewBox="0 0 142 32" fill="none" xmlns="http://www.w3.org/2000/svg">
<path d="M22.9609 24.6486V7.84649H27.9566V11.9529H27.619C27.8891 10.5841 28.4742 9.53469 29.3744 8.80465C30.297 8.05183 31.5122 7.61837 33.0197 7.50429L34.505 7.40165L34.8089 11.7476L31.9398 12.0555C30.657 12.1696 29.7006 12.546 29.0704 13.1848C28.463 13.8236 28.1592 14.7475 28.1592 15.9566V24.6486H22.9609ZM40.5677 25.0249C39.3526 25.0249 38.2611 24.7854 37.2935 24.3064C36.3259 23.8271 35.572 23.177 35.032 22.3557C34.4918 21.5345 34.2219 20.6105 34.2219 19.5839C34.2219 18.352 34.537 17.3825 35.167 16.6752C35.797 15.9452 36.821 15.4319 38.2387 15.1354C39.6563 14.816 41.5355 14.6563 43.8757 14.6563H45.6647V17.3254H43.9095C43.0318 17.3254 42.2892 17.3596 41.6817 17.4281C41.0966 17.4965 40.6128 17.622 40.2301 17.8045C39.8476 17.9642 39.5663 18.1695 39.3864 18.4205C39.2289 18.6714 39.1501 18.9908 39.1501 19.3786C39.1501 20.0174 39.3638 20.5421 39.7914 20.9527C40.2414 21.3634 40.8827 21.5688 41.7153 21.5688C42.3679 21.5688 42.9417 21.4203 43.4368 21.1239C43.9545 20.8045 44.3595 20.3824 44.6522 19.8577C44.9446 19.3102 45.0908 18.6942 45.0908 18.0098V14.0745C45.0908 13.0707 44.8659 12.3635 44.4157 11.9529C43.9657 11.5195 43.2006 11.3027 42.1204 11.3027C41.2203 11.3027 40.264 11.451 39.2512 11.7476C38.2611 12.0213 37.2709 12.4434 36.2808 13.0137L34.8969 9.5575C35.482 9.14685 36.191 8.79326 37.0234 8.49667C37.8786 8.1773 38.7674 7.93774 39.6901 7.77807C40.6128 7.59556 41.4904 7.50429 42.323 7.50429C44.0558 7.50429 45.4735 7.76665 46.5761 8.29136C47.7014 8.79326 48.5451 9.5803 49.1076 10.6525C49.6704 11.702 49.9516 13.0593 49.9516 14.7247V24.6486H45.1921V21.2607H45.4284C45.2935 22.0364 45.0008 22.7094 44.5508 23.2797C44.1232 23.8271 43.572 24.2606 42.8968 24.58C42.2217 24.8767 41.4454 25.0249 40.5677 25.0249ZM62.1061 25.0249C60.7784 25.0249 59.5971 24.6941 58.5618 24.0325C57.5493 23.3481 56.8742 22.447 56.5366 21.3291H56.8742V24.6486H51.8785V0.523438H56.9755V10.9605H56.5705C56.9304 9.93392 57.6168 9.10124 58.6295 8.46247C59.642 7.82369 60.801 7.50429 62.1061 7.50429C63.5688 7.50429 64.8403 7.85791 65.9205 8.56512C67.0007 9.27233 67.8444 10.2761 68.4521 11.5765C69.0597 12.8768 69.3635 14.4281 69.3635 16.2304C69.3635 18.0326 69.0597 19.5953 68.4521 20.9184C67.8444 22.2416 66.9894 23.2568 65.8867 23.9641C64.8065 24.6712 63.5464 25.0249 62.1061 25.0249ZM60.5873 21.158C61.6674 21.158 62.545 20.7588 63.2201 19.9603C63.8951 19.1391 64.2326 17.8957 64.2326 16.2304C64.2326 14.565 63.8951 13.3445 63.2201 12.5689C62.545 11.7704 61.6674 11.3711 60.5873 11.3711C59.4845 11.3711 58.5957 11.7704 57.9205 12.5689C57.2454 13.3445 56.908 14.565 56.908 16.2304C56.908 17.8957 57.2454 19.1391 57.9205 19.9603C58.5957 20.7588 59.4845 21.158 60.5873 21.158Z" fill="#00123B"/>
<path d="M82.5889 25.0263C80.0237 25.0263 77.8295 24.513 76.0067 23.4865C74.1842 22.4599 72.7777 21.0226 71.7875 19.1747C70.8199 17.304 70.3359 15.1025 70.3359 12.5703C70.3359 10.038 70.8199 7.84791 71.7875 6.00004C72.7777 4.15217 74.1842 2.71494 76.0067 1.68833C77.8295 0.661736 80.0237 0.148438 82.5889 0.148438C84.1642 0.148438 85.672 0.399383 87.1121 0.901276C88.5524 1.40317 89.7337 2.08757 90.6564 2.95447L89.0362 7.16353C88.0235 6.36505 86.9997 5.78331 85.9644 5.4183C84.9519 5.03049 83.883 4.83657 82.7577 4.83657C80.5075 4.83657 78.7971 5.50956 77.6271 6.85555C76.4569 8.17872 75.8718 10.0836 75.8718 12.5703C75.8718 15.0569 76.4569 16.9732 77.6271 18.3192C78.7971 19.6652 80.5075 20.3382 82.7577 20.3382C83.883 20.3382 84.9519 20.1557 85.9644 19.7907C86.9997 19.4029 88.0235 18.8097 89.0362 18.0112L90.6564 22.2203C89.7337 23.0871 88.5524 23.7716 87.1121 24.2735C85.672 24.7754 84.1642 25.0263 82.5889 25.0263ZM96.7494 25.0263C95.5341 25.0263 94.4429 24.7868 93.4753 24.3078C92.5075 23.8285 91.7536 23.1784 91.2136 22.3571C90.6736 21.5359 90.4035 20.6119 90.4035 19.5854C90.4035 18.3534 90.7185 17.3839 91.3485 16.6767C91.9788 15.9466 93.0025 15.4333 94.4203 15.1368C95.838 14.8174 97.717 14.6577 100.057 14.6577H101.846V17.3268H100.091C99.2135 17.3268 98.4709 17.3611 97.8633 17.4295C97.2782 17.4979 96.7944 17.6234 96.4119 17.8059C96.0292 17.9656 95.748 18.1709 95.568 18.4219C95.4104 18.6728 95.3317 18.9922 95.3317 19.38C95.3317 20.0188 95.5454 20.5435 95.973 20.9542C96.4232 21.3648 97.0645 21.5702 97.8971 21.5702C98.5497 21.5702 99.1235 21.4218 99.6186 21.1253C100.136 20.8059 100.541 20.3838 100.834 19.8591C101.126 19.3116 101.273 18.6956 101.273 18.0112V14.0759C101.273 13.0722 101.047 12.3649 100.597 11.9543C100.147 11.5209 99.3823 11.3041 98.3021 11.3041C97.402 11.3041 96.4455 11.4524 95.433 11.749C94.4429 12.0227 93.4527 12.4448 92.4625 13.0151L91.0786 9.55891C91.6637 9.14827 92.3725 8.79468 93.2052 8.49809C94.0602 8.17872 94.9492 7.93916 95.8717 7.77949C96.7944 7.59698 97.6719 7.50571 98.5046 7.50571C100.237 7.50571 101.655 7.76807 102.758 8.29278C103.883 8.79467 104.727 9.58172 105.289 10.654C105.852 11.7034 106.133 13.0608 106.133 14.7261V24.65H101.374V21.2621H101.61C101.475 22.0378 101.183 22.7108 100.732 23.2811C100.305 23.8285 99.7535 24.262 99.0784 24.5814C98.4035 24.8781 97.627 25.0263 96.7494 25.0263ZM114.406 25.0263C113.438 25.0263 112.504 24.9465 111.604 24.7868C110.704 24.6271 109.883 24.4103 109.14 24.1367C108.398 23.8628 107.745 23.5206 107.183 23.11L108.398 19.7565C108.96 20.0987 109.568 20.4066 110.22 20.6804C110.896 20.9313 111.593 21.1253 112.313 21.2621C113.033 21.3991 113.742 21.4675 114.44 21.4675C115.407 21.4675 116.105 21.3193 116.533 21.0226C116.983 20.7032 117.208 20.2926 117.208 19.7907C117.208 19.3344 117.061 18.9922 116.769 18.7641C116.476 18.5359 116.049 18.3763 115.486 18.285L111.942 17.6348C110.547 17.3839 109.467 16.8706 108.701 16.0949C107.959 15.2964 107.588 14.2813 107.588 13.0493C107.588 11.9087 107.903 10.9277 108.533 10.1064C109.163 9.26235 110.029 8.62356 111.132 8.19011C112.257 7.73385 113.528 7.50571 114.946 7.50571C115.756 7.50571 116.544 7.57415 117.309 7.71104C118.074 7.84791 118.794 8.05324 119.469 8.327C120.167 8.60076 120.786 8.96576 121.326 9.42205L120.043 12.7414C119.615 12.3992 119.109 12.1026 118.524 11.8517C117.939 11.6007 117.343 11.4068 116.735 11.2699C116.128 11.1102 115.554 11.0304 115.013 11.0304C114.001 11.0304 113.27 11.2015 112.819 11.5437C112.37 11.8631 112.144 12.2737 112.144 12.7756C112.144 13.1634 112.268 13.4942 112.516 13.768C112.786 14.0189 113.191 14.19 113.731 14.2813L117.275 14.9314C118.738 15.1824 119.852 15.6843 120.617 16.4371C121.382 17.1671 121.764 18.1709 121.764 19.4485C121.764 20.6119 121.461 21.6157 120.853 22.4599C120.246 23.2811 119.39 23.9198 118.288 24.3762C117.185 24.8097 115.891 25.0263 114.406 25.0263ZM122.799 24.65V0.524855H127.895V10.9962H127.423C127.94 9.87831 128.706 9.02279 129.718 8.42967C130.753 7.81371 131.924 7.50571 133.229 7.50571C134.556 7.50571 135.648 7.76807 136.503 8.29278C137.358 8.79467 137.999 9.57033 138.427 10.6197C138.855 11.6463 139.068 12.9581 139.068 14.555V24.65H133.971V14.7946C133.971 14.0189 133.87 13.3915 133.668 12.9125C133.488 12.4106 133.206 12.057 132.824 11.8517C132.464 11.6235 132.002 11.5095 131.44 11.5095C130.72 11.5095 130.089 11.6691 129.55 11.9885C129.032 12.2851 128.627 12.7186 128.334 13.2889C128.042 13.8592 127.895 14.5208 127.895 15.2736V24.65H122.799Z" fill="#008EE6"/>
<path d="M6.75114 25.8594L5.25 29.4951C12.3159 33.9284 19.2957 31.3424 21.9024 29.4951L20.4012 25.8594C14.2849 28.3443 8.75269 26.8948 6.75114 25.8594Z" fill="#008EE6"/>
<path d="M13.8162 15.1069V14.2902L20.8531 9.45199V23.3892C14.6214 26.7517 6.99602 24.9021 3.51614 21.5841C0.781982 18.9772 1.52588e-05 15.2102 1.52588e-05 12.9831C1.52588e-05 7.9217 2.78505 2.04619 9.8869 0.488819C15.5684 -0.757075 18.8918 0.677586 20.1567 1.47987L18.8338 5.62108C15.9792 3.92212 5.60491 3.07261 5.60491 12.9831C5.60491 20.0267 12.1149 21.761 15.8051 20.0975V15.1069H13.8162Z" fill="#00123B"/>
</svg>
