<svg width="315" height="316" viewBox="0 0 315 316" fill="none" xmlns="http://www.w3.org/2000/svg">
<path d="M278.899 152.998C257.368 139.918 231.784 135.201 207.005 139.743C187.002 143.494 160.8 156.611 145.624 166.389C142.516 165.018 130.496 161.544 124.646 159.67C124.527 159.577 124.378 159.531 124.227 159.54C124.076 159.548 123.933 159.61 123.824 159.715C117.839 166.389 95.9466 178.866 93.5211 180.557C92.836 180.923 93.4298 181.471 93.5211 181.516C100.533 184.492 107.162 188.299 113.265 192.856C111.621 194.548 110.021 196.321 108.512 198.158C108.34 198.413 108.26 198.719 108.284 199.026C109.251 202.524 124.235 235.772 126.018 238.927C125.956 239.058 125.928 239.203 125.937 239.348C125.946 239.493 125.991 239.633 126.069 239.756C126.146 239.879 126.253 239.98 126.38 240.051C126.507 240.122 126.649 240.159 126.795 240.16C129.489 240.318 132.187 240.297 134.884 240.206C133.651 243.085 128.755 256.567 128.111 260.366C128.102 260.45 128.113 260.536 128.142 260.615C128.172 260.695 128.22 260.766 128.282 260.824C128.344 260.882 128.419 260.924 128.501 260.948C128.583 260.971 128.669 260.975 128.752 260.959C131.452 260.665 151.968 255.247 163.305 255.156C163.452 255.147 163.591 255.087 163.699 254.988C163.808 254.888 163.878 254.753 163.898 254.607C164.538 253.327 167.417 243.409 173.953 235C182.82 232.992 191.54 230.381 200.051 227.185C221.345 219.179 242.592 209.488 258.049 192.22C267.99 181.133 275.205 167.877 279.119 153.508C279.173 153.409 278.99 153.044 278.899 152.998ZM95.5324 180.923C97.5894 180.101 119.573 167.669 124.512 161.59C130.916 163.897 137.448 165.835 144.074 167.393C138.818 169.405 117.063 189.058 114.686 191.434C111.895 188.692 99.966 181.516 95.5324 180.923ZM162.352 253.409C152.388 253.546 131.868 258.712 129.719 259.488C132.494 253.143 134.935 246.658 137.032 240.058C148.66 239.196 160.228 237.671 171.682 235.49C168.568 238.372 162.947 250.119 162.352 253.409ZM201.569 224.616C192.23 227.961 182.727 230.829 173.096 233.208C161.262 236.421 135.344 237.87 127.026 238.327C125.976 235.082 111.99 202.039 110.207 198.884C113.864 195.274 130.319 179.782 135.207 176.032C155.775 160.252 183.991 147.133 201.52 142.713C214.211 139.487 227.414 138.804 240.369 140.704C257.737 156.334 255.589 186.407 255.174 192.943C240.157 208.734 221.94 216.787 201.566 224.623L201.569 224.616Z" fill="#60A600"/>
<path d="M177.108 58.4806C177.657 58.8216 178.29 59.0024 178.936 59.0024C179.582 59.0024 180.216 58.8216 180.765 58.4806C180.81 58.983 181.36 65.3838 177.108 68.3527C175.097 69.5782 172.711 70.0331 170.39 69.6332C166.413 69.2693 165.317 67.4376 158.141 63.8734C151.2 60.4273 148.591 59.5626 142.281 63.508C137.663 66.4532 133.697 70.3124 130.626 74.848C127.656 73.8416 124.685 72.791 121.715 71.7862L122.4 61.9598C128.987 56.7623 141.402 50.0858 149.229 50.9899C150.331 51.1175 158.22 51.9601 162.802 57.4805C163.714 58.583 171.176 65.2263 173.772 64.1081C174.789 63.5645 175.638 62.7526 176.226 61.7604C176.814 60.7683 177.119 59.6339 177.108 58.4806Z" fill="#191919"/>
<path d="M216.686 98.7466C212.481 98.9182 191.959 98.9749 186.522 98.7009C187.344 96.1415 191.628 69.0783 188.67 57.8863C188.636 57.7739 188.564 57.6772 188.465 57.6139C188.366 57.5506 188.248 57.5249 188.131 57.5415C188.015 57.5581 187.909 57.6159 187.832 57.7043C187.754 57.7928 187.712 57.906 187.711 58.0234C189.166 77.6179 184.83 96.0958 184.465 99.0206L159.008 111.537C159.282 107.515 157.958 89.5076 155.543 83.1997C157.78 79.5372 160.416 76.1343 163.404 73.0536C164.135 72.3228 162.816 71.4187 162.032 72.0031C156.956 75.7846 139.9 103.223 138.67 106.288C138.486 106.744 139.215 107.154 139.492 106.79C141.348 104.354 152.88 86.9089 154.026 85.3087C156.083 89.8762 157.176 105.281 157.271 108.023C157.318 109.441 157.362 112.366 157.362 112.366C156.312 127.311 145.8 180.602 142.691 194.954C141.732 196.371 140.615 202.986 141.229 204.369C141.611 205.229 142.768 204.684 142.828 203.911C142.938 202.493 143.378 197.926 143.606 197.056C144.52 197.193 148.542 197.65 151.102 195.274C153.571 196.667 156.423 197.228 159.236 196.872C160.381 196.707 161.934 196.003 162.755 197.148C162.846 197.299 162.985 197.417 163.149 197.483C163.313 197.549 163.495 197.559 163.666 197.512C163.836 197.466 163.987 197.365 164.095 197.224C164.203 197.084 164.262 196.912 164.264 196.735C164.264 194.863 162.394 194.244 160.799 194.543C157.987 195.247 155.039 195.199 152.251 194.404C152.48 194.176 175.561 135.767 178.623 117.621C186.608 114.82 195.209 114.267 203.486 116.023C202.892 119.998 199.738 137.046 198.687 141.571C200.242 141.205 206.959 139.697 208.651 139.377C210.837 132.8 217.648 106.579 218.609 100.985C218.658 100.707 218.645 100.421 218.57 100.149C218.496 99.8767 218.362 99.6244 218.178 99.4103C217.994 99.1962 217.764 99.0256 217.506 98.9108C217.249 98.796 216.968 98.7399 216.686 98.7466Z" fill="#191919"/>
<path d="M226.565 41.113C226.046 40.025 225.751 38.8441 225.697 37.6401C225.577 36.7235 224.241 36.3612 223.964 37.4118C223.666 38.7476 223.862 40.1461 224.514 41.3493C219.485 45.0521 195.181 60.2682 192.612 62.1912C192.195 62.5062 192.426 63.3284 192.978 63.1047C198.76 60.7627 220.811 46.468 226.21 42.4927C226.425 42.3435 226.579 42.122 226.644 41.8688C226.709 41.6155 226.681 41.3472 226.565 41.113Z" fill="#191919"/>
<path d="M174.231 24.2479C173.316 24.2715 172.854 25.8937 172.906 26.3962C172.926 26.4848 172.974 26.565 173.042 26.6256C173.109 26.6862 173.194 26.7242 173.285 26.7342C173.375 26.7442 173.467 26.7259 173.546 26.6817C173.626 26.6375 173.689 26.5696 173.728 26.4875C174.058 25.856 174.289 25.1777 174.414 24.4762C174.459 24.3849 174.368 24.2447 174.231 24.2479Z" fill="#191919"/>
<path d="M175.961 26.9899C175.646 26.3962 174.494 25.8465 174.228 26.7616C174.132 27.0646 174.16 27.3934 174.305 27.6762C174.451 27.9589 174.702 28.1725 175.005 28.2704C175.732 28.5445 176.28 27.6766 175.961 26.9899Z" fill="#191919"/>
<path d="M180.498 25.2541C180.183 24.6603 178.989 24.1106 178.765 25.0257C178.68 25.3286 178.713 25.6526 178.857 25.9323C179.001 26.2121 179.246 26.4268 179.542 26.533C180.311 26.8023 180.813 25.9392 180.498 25.2541Z" fill="#191919"/>
<path d="M127.154 132.658C125.421 131.817 123.689 131.037 121.944 130.236C121.719 130.11 121.453 130.078 121.205 130.147C120.957 130.215 120.746 130.379 120.618 130.603C119.379 133.118 118.31 135.714 117.419 138.372C117.366 138.576 117.388 138.792 117.481 138.981C117.574 139.17 117.731 139.319 117.925 139.402C118.118 139.485 118.335 139.496 118.536 139.432C118.736 139.369 118.908 139.236 119.019 139.057C120.147 136.887 121.124 134.642 121.944 132.338C123.131 132.886 124.32 133.39 125.508 133.938C124.317 136.714 123.28 139.554 122.4 142.443C121.312 142.093 120.196 141.834 119.065 141.667C118.562 141.576 118.149 142.306 118.699 142.581C120.001 143.194 121.345 143.713 122.72 144.135C122.816 144.165 122.918 144.174 123.017 144.162C123.117 144.15 123.214 144.117 123.3 144.065C123.386 144.013 123.461 143.944 123.519 143.862C123.576 143.779 123.616 143.686 123.635 143.587C124.715 140.282 125.997 137.046 127.473 133.898C127.589 133.689 127.62 133.445 127.561 133.214C127.501 132.984 127.355 132.785 127.154 132.658Z" fill="#191919"/>
<path d="M147.952 64.1944C144.832 67.5633 130.312 104.322 130.584 105.373C126.837 106.562 124.757 111.878 127.119 115.108C128.163 116.377 129.629 117.227 131.248 117.505C132.868 117.782 134.533 117.466 135.939 116.617C137.113 115.698 137.909 114.38 138.177 112.914C138.322 112.46 137.672 112.043 137.355 112.411C135.92 114.087 135.253 115.782 132.739 115.84C131.897 115.897 131.054 115.728 130.299 115.35C129.544 114.973 128.904 114.4 128.444 113.692C126.811 110.75 129.26 108.387 131.545 106.97C132.51 108.225 133.798 109.194 135.271 109.773C136.744 110.353 138.347 110.521 139.908 110.26C140.456 110.164 140.319 109.301 139.771 109.301C138.292 109.301 136.835 108.939 135.528 108.246C134.222 107.552 133.105 106.549 132.276 105.324C131.789 104.582 131.994 104.407 132.367 103.543C134.29 99.0901 148.043 68.9887 149.506 64.785C149.917 63.8731 148.59 63.4998 147.952 64.1944Z" fill="#191919"/>
<path d="M148.37 127.768C144.848 125.809 141.215 124.054 137.491 122.512C138.477 120.607 139.332 118.637 140.051 116.617C140.256 116.006 139.363 115.339 138.818 115.017C138.733 114.971 138.637 114.95 138.541 114.957C138.445 114.965 138.353 114.999 138.276 115.057C138.199 115.114 138.14 115.193 138.107 115.283C138.073 115.373 138.065 115.471 138.085 115.565C138.16 115.872 138.283 116.166 138.452 116.434C137.403 118.097 136.486 119.839 135.709 121.644C133.471 120.638 124.101 116.525 121.633 115.473C123.03 113.159 124.222 110.728 125.197 108.206C125.397 108.191 125.596 108.161 125.791 108.115C125.881 108.084 125.961 108.029 126.022 107.956C126.083 107.883 126.122 107.794 126.137 107.7C126.151 107.606 126.139 107.51 126.103 107.422C126.066 107.334 126.006 107.258 125.929 107.201C125.285 106.844 124.496 106.493 124.101 107.11C122.43 109.496 121.02 112.055 119.896 114.742C116.765 113.304 113.544 112.067 110.255 111.041C110.174 111.02 110.088 111.022 110.008 111.046C109.927 111.071 109.855 111.116 109.798 111.178C102.897 119.541 97.9464 138.602 97.7322 141.069C97.6975 141.238 97.7307 141.414 97.8246 141.56C97.9186 141.705 98.0658 141.807 98.2346 141.845C101.205 143.578 132.696 157.521 135.805 158.527C136.033 158.619 136.353 158.299 136.353 158.299C139.278 154.185 148.236 131.425 148.739 128.728C148.726 128.376 148.596 128.038 148.37 127.768ZM140.87 144.861C136.659 142.565 132.308 140.535 127.843 138.785C127.385 138.653 126.967 139.297 127.341 139.607C131.421 142.276 135.699 144.629 140.137 146.646C139.544 148.063 136.345 155.151 135.613 157.34C132.825 155.557 102.523 141.48 99.7356 140.517C100.466 138.46 102.752 129.965 103.528 127.856C107.946 130.271 112.51 132.408 117.194 134.255C117.653 134.387 118.062 133.753 117.697 133.433C113.378 130.672 108.873 128.213 104.215 126.075C105.265 123.333 109.653 114.191 110.384 112.271C113.172 113.826 143.932 127.993 146.719 129.045C145.897 131.014 141.098 144.359 140.87 144.861Z" fill="#191919"/>
<path d="M120.705 238.64C119.791 235.805 106.228 206.869 104.39 204.088C104.298 203.951 103.476 203.589 103.2 203.773C101.89 204.633 95.6845 210.545 95.8877 211.49C96.924 216.349 104.361 235.136 106.721 239.325C106.9 239.64 107.451 239.736 107.497 239.782C111.816 239.969 116.143 239.786 120.431 239.234C120.431 239.234 120.799 238.876 120.705 238.64ZM108.091 238.001C104.914 228.99 101.221 220.17 97.0311 211.583C99.2683 209.952 101.375 208.149 103.331 206.19C104.292 208.521 117.637 235.578 119.191 238.092C117.597 237.916 110.102 237.824 108.091 238.01V238.001Z" fill="#60A600"/>
<path d="M166.916 197.468C166.916 197.468 166.548 196.449 165.814 196.599C162.327 197.316 128.615 209.451 125.639 210.95C125.457 211.043 125.41 211.453 125.41 211.498C126.712 213.82 128.359 215.931 130.293 217.761C130.403 217.845 130.536 217.894 130.675 217.902C130.813 217.91 130.951 217.877 131.071 217.806C134.087 217.167 163.703 206.929 166.445 205.558C167.198 205.189 167.108 198.525 166.916 197.468ZM131.085 215.932C129.853 214.416 128.524 212.981 127.108 211.636C130.215 210.859 162.437 199.981 165.088 198.878C165.091 200.868 165.244 202.854 165.546 204.82C162.62 205.375 133.69 214.79 131.085 215.932Z" fill="#60A600"/>
<path d="M8.49882 231.333C14.3027 228.958 74.4913 199.88 77.2838 198.061C78.0587 197.556 77.5988 196.1 76.5971 196.461C73.7621 197.479 13.6806 227.128 8.0846 230.42C7.62785 230.691 7.95072 231.517 8.49882 231.333Z" fill="#191919"/>
<path d="M13.3961 192.35C19.1921 189.954 79.3886 160.895 82.1811 159.076C82.956 158.571 82.4961 157.115 81.4944 157.476C78.6594 158.493 18.6062 188.188 12.9819 191.435C12.5724 191.705 12.8465 192.576 13.3961 192.35Z" fill="#191919"/>
<path d="M116.824 302.084C131.024 296.824 221.338 257.913 225.325 255.779C225.503 255.667 225.635 255.496 225.697 255.296C225.759 255.096 225.748 254.88 225.666 254.687C225.583 254.494 225.434 254.338 225.247 254.245C225.059 254.152 224.844 254.129 224.64 254.181C221.212 255.322 124.362 297.462 116.458 301.164C115.957 301.405 116.321 302.27 116.824 302.084Z" fill="#191919"/>
<path d="M51.6525 292.258C56.3366 290.628 106.404 267.986 108.784 266.527C108.963 266.416 109.097 266.244 109.16 266.043C109.224 265.842 109.213 265.625 109.13 265.431C109.046 265.238 108.897 265.08 108.707 264.988C108.518 264.895 108.301 264.874 108.097 264.927C103.388 266.431 55.8578 288.739 51.2399 291.387C50.7847 291.618 51.1076 292.448 51.6525 292.258Z" fill="#191919"/>
<path d="M73.8159 71.8731C73.3592 66.7543 66.0008 62.5948 61.5672 62.001C54.7584 61.0875 47.2347 65.1762 45.069 71.9235C45.0242 72.0978 45.043 72.2824 45.1221 72.4441C45.2012 72.6058 45.3354 72.7339 45.5006 72.8055C45.6658 72.8771 45.851 72.8873 46.0231 72.8345C46.1952 72.7817 46.3428 72.6692 46.4393 72.5173C49.1861 67.5166 53.5693 63.5398 59.5575 63.6043C62.3762 63.6452 65.1226 64.5025 67.464 66.0724C70.08 67.8395 73.3104 71.4825 71.3479 74.8026C71.2434 75.0019 71.2201 75.234 71.283 75.4502C71.3458 75.6663 71.4899 75.8497 71.6851 75.962C71.8802 76.0742 72.1112 76.1065 72.3296 76.0522C72.5481 75.9978 72.737 75.861 72.8568 75.6704C73.8911 74.0706 75.4226 72.8551 77.2155 72.211C79.0084 71.567 80.9633 71.5302 82.7793 72.1062C85.9293 72.9693 91.1929 76.0437 91.9143 79.6016C92.6025 82.9831 88.6225 83.0288 86.4285 83.2115C84.2346 83.3942 49.8649 85.941 41.4119 85.1724C39.3115 85.153 37.2394 84.6859 35.334 83.8021C32.4155 82.0523 34.7418 78.9196 36.9326 77.8171C38.5492 77.0681 40.3529 76.8194 42.1119 77.1028C43.8709 77.3863 45.5051 78.189 46.8047 79.4079C46.9221 79.5122 47.0749 79.5677 47.2319 79.5631C47.3889 79.5585 47.5382 79.4941 47.6492 79.383C47.7603 79.272 47.8247 79.1227 47.8293 78.9657C47.8339 78.8087 47.7784 78.6559 47.6741 78.5385C43.9587 74.2151 34.3212 73.971 32.4092 80.4127C30.0231 88.4547 46.9417 87.0844 50.8272 86.9947C60.9277 86.7616 85.8852 85.048 88.3122 84.755C89.7738 84.7081 91.1889 84.2309 92.3805 83.3832C98.6112 77.9715 82.2312 65.3368 73.8159 71.8731Z" fill="#191919"/>
<path d="M294.02 234.169C291.566 233.391 288.954 233.256 286.434 233.776C283.913 234.297 281.568 235.454 279.623 237.139C278.669 234.393 276.873 232.018 274.492 230.352C272.11 228.686 269.263 227.813 266.357 227.859C263.45 227.904 260.632 228.866 258.304 230.606C255.975 232.346 254.255 234.776 253.388 237.55C249.321 236.545 244.699 235.849 241.048 238.327C238.164 240.284 236.239 244.045 237.986 247.331C238.668 248.613 240.506 247.693 240.226 246.372C239.95 245.055 240.158 243.682 240.813 242.507C241.468 241.331 242.525 240.431 243.79 239.972C246.997 238.662 250.742 239.684 253.938 240.52C254.289 240.61 254.661 240.56 254.976 240.381C255.291 240.202 255.524 239.909 255.628 239.561C256.132 236.977 257.533 234.653 259.584 233C261.634 231.347 264.201 230.471 266.834 230.525C269.467 230.58 271.997 231.562 273.976 233.298C275.956 235.035 277.26 237.415 277.657 240.018C277.725 240.24 277.848 240.441 278.015 240.602C278.182 240.762 278.388 240.878 278.612 240.938C278.836 240.997 279.072 240.998 279.296 240.941C279.521 240.884 279.728 240.771 279.897 240.612C289.714 229.048 307.459 242.012 292.602 246.828C278.585 251.375 261.26 249.383 254.76 248.518C254.029 248.422 253.657 249.511 254.445 249.662C266.651 251.971 279.186 251.924 291.375 249.525C294.009 249.103 296.476 247.965 298.505 246.235C303.221 241.817 299.093 235.884 294.02 234.169Z" fill="#191919"/>
<path d="M238.527 31.7431C238.253 31.0123 237.425 31.0154 236.795 31.1036C236.466 31.1663 236.154 31.2967 235.878 31.4865C235.603 31.6763 235.37 31.9214 235.194 32.2061C234.616 33.0393 235.925 34.0788 236.612 33.3086C236.837 33.0692 238.436 32.6581 238.527 31.7431Z" fill="#191919"/>
<path d="M238.9 33.2064C238.122 32.8914 235.107 34.5325 235.153 35.4003C235.152 35.5128 235.177 35.624 235.226 35.7255C235.274 35.827 235.345 35.9162 235.433 35.9864C235.521 36.0567 235.623 36.1062 235.733 36.1313C235.843 36.1563 235.957 36.1563 236.066 36.1311C237.121 35.6151 238.117 34.9868 239.037 34.2569C239.124 34.1928 239.193 34.1066 239.235 34.007C239.278 33.9075 239.293 33.7984 239.279 33.6911C239.265 33.5838 239.222 33.4822 239.155 33.397C239.089 33.3117 239.001 33.2459 238.9 33.2064Z" fill="#191919"/>
<path d="M239.775 35.6745C238.951 35.1264 235.272 37.2747 235.207 38.2796C235.205 38.3912 235.229 38.5017 235.278 38.6021C235.327 38.7025 235.399 38.7898 235.488 38.8567C235.577 38.9237 235.681 38.9684 235.791 38.9872C235.901 39.006 236.014 38.9983 236.121 38.9647C237.549 38.3739 238.864 37.5388 240.006 36.4967C240.194 36.2683 240.003 35.8572 239.775 35.6745Z" fill="#191919"/>
<path d="M227.525 42.0283C231.444 43.2883 238.292 43.4127 240.505 39.0562C240.92 38.2372 239.717 37.2198 239.18 38.0514C236.556 42.1243 229.949 41.0218 227.616 41.0675C227.503 41.0784 227.396 41.1285 227.316 41.2093C227.235 41.2901 227.185 41.3965 227.174 41.5102C227.163 41.6239 227.192 41.7378 227.256 41.8323C227.321 41.9269 227.416 41.9962 227.525 42.0283Z" fill="#191919"/>
<path d="M226.693 35.9483C227.425 35.994 230.117 33.8363 230.99 33.4803C232.264 32.9621 231.755 33.9874 232.042 34.8064C232.457 36.0034 233.774 36.0035 233.774 35.2632C233.774 33.663 233.59 30.7319 231.352 31.4234C227.844 32.5101 225.609 35.5876 226.693 35.9483Z" fill="#191919"/>
<path d="M177.702 25.8938C177.924 27.147 178.229 28.384 178.615 29.5966C178.842 30.4645 178.434 30.3841 177.748 30.4645C177.563 30.4779 177.384 30.5345 177.225 30.6297C177.066 30.7249 176.932 30.856 176.832 31.0126C176.8 31.0782 176.782 31.1497 176.778 31.2227C176.774 31.2958 176.786 31.3688 176.811 31.4372C176.837 31.5057 176.877 31.5682 176.927 31.6208C176.978 31.6735 177.039 31.7152 177.107 31.7434C178.159 32.0584 179.852 31.9733 179.942 30.6015C179.596 28.9247 179.044 27.2974 178.297 25.7568C178.155 25.4843 177.659 25.5725 177.702 25.8938Z" fill="#191919"/>
<path d="M179.804 33.8901C179.125 34.5254 178.255 34.9189 177.33 35.0098C176.404 35.1006 175.475 34.8836 174.685 34.3925C174.502 34.2555 174.228 34.2098 174.137 34.4854C173.315 36.3581 173.68 39.0529 176.285 38.7379C178.317 38.034 180.001 36.5788 180.993 34.6713C181.14 34.2602 180.847 32.9671 179.804 33.8901ZM175.692 37.6386C174.545 37.4811 174.589 36.3581 174.731 35.4446C175.231 35.8329 175.806 36.1143 176.419 36.2715C177.032 36.4286 177.671 36.4581 178.297 36.3581C177.972 36.737 177.573 37.046 177.126 37.2664C176.678 37.4867 176.19 37.6139 175.692 37.6402V37.6386Z" fill="#191919"/>
<path d="M92.8346 217.22C91.6861 215.644 89.9914 214.552 88.0812 214.157C85.9088 214.1 83.7566 214.587 81.8206 215.574C74.0559 218.773 71.1531 225.703 59.0587 240.757C54.6834 246.205 41.8912 255.176 40.0469 256.98C39.5838 257.43 40.2217 258.296 40.732 257.893C50.5411 250.138 63.0057 251.102 85.3392 246.6C89.4515 245.77 95.0286 244.868 97.9077 241.39C100.558 238.19 100.387 226.527 92.8346 217.22ZM95.1199 241.031C91.4076 243.709 71.2161 246.928 66.006 247.75C60.6141 248.406 55.2909 249.539 50.0985 251.133C66.4959 238.168 68.3685 230.091 75.5096 222.468C77.0591 220.737 78.8806 219.27 80.9024 218.126C83.1909 216.897 86.9299 215.302 89.3129 216.756C91.0454 217.812 95.479 226.125 96.3043 228.774C97.4982 232.57 98.9944 238.223 95.1199 241.023V241.031Z" fill="#191919"/>
<path d="M221.164 38.0055C218.329 38.5615 184.417 48.3343 184.372 48.3343C183.687 47.4208 182.954 46.5058 182.269 45.5466C182.205 45.4023 182.092 45.2858 181.949 45.2186C181.806 45.1515 181.644 45.1382 181.493 45.1812C181.443 44.413 181.273 43.6573 180.99 42.9415C180.951 42.8286 180.874 42.7328 180.772 42.6703C180.67 42.6078 180.549 42.5824 180.431 42.5986C180.312 42.6147 180.203 42.6713 180.122 42.7588C180.04 42.8463 179.991 42.9592 179.984 43.0786C180.016 44.2586 180.216 45.428 180.579 46.5514C180.029 47.7862 178.476 50.1172 178.476 50.1629C175.789 48.4195 173.211 46.5117 170.759 44.4504C171.249 41.0156 170.556 37.5162 168.793 34.5279C168.748 34.435 168.382 34.2129 168.291 34.2523C166.541 34.4712 165.824 32.4662 166.371 30.8251C166.556 30.0244 167.047 29.3277 167.738 28.8837C168.43 28.4397 169.267 28.2835 170.072 28.4484C172.856 25.0352 174.938 21.1053 176.197 16.8847C176.385 17.6964 176.732 18.4626 177.219 19.1387C177.706 19.8147 178.322 20.387 179.032 20.8222C179.347 21.5572 179.667 22.3342 179.992 23.1532C179.261 22.82 178.436 22.7553 177.662 22.9705C177.611 22.9901 177.568 23.0246 177.537 23.0695C177.506 23.1143 177.49 23.1674 177.49 23.2217C177.49 23.2761 177.506 23.3292 177.537 23.374C177.568 23.4189 177.611 23.4534 177.662 23.473C178.576 23.747 179.489 23.9297 180.359 24.2494C182.551 30.4203 183.375 37.6369 176.61 41.1145C176.559 41.1407 176.519 41.1856 176.5 41.24C176.481 41.2943 176.483 41.3541 176.506 41.4068C176.53 41.4596 176.572 41.5013 176.626 41.5234C176.679 41.5455 176.739 41.5463 176.793 41.5256C185.331 38.878 183.923 26.9458 180.267 20.7766C181.288 16.765 178.377 13.078 174.051 14.6971C170.803 12.3787 167.107 15.4846 164.59 18.5826C162.22 21.6556 160.963 25.4422 161.025 29.3225C163.996 31.1968 167.377 37.9614 167.788 39.4246C167.917 39.6325 168.11 39.7928 168.338 39.8813C168.419 39.8979 168.503 39.8979 168.584 39.8813C168.666 39.8647 168.743 39.8319 168.811 39.7849C168.879 39.7378 168.937 39.6774 168.981 39.6074C169.026 39.5374 169.056 39.4591 169.069 39.3773C169.471 40.9903 169.64 42.6525 169.571 44.3134C169.526 44.3606 167.651 47.4634 166.736 48.9754C163.218 48.2446 159.789 51.215 159.789 52.6325C159.791 52.7086 159.811 52.7832 159.847 52.8503C159.883 52.9175 159.933 52.9755 159.995 53.0198C160.057 53.064 160.129 53.0933 160.204 53.1054C160.279 53.1174 160.356 53.1119 160.429 53.0893C160.841 52.9979 164.268 49.9393 167.01 50.8496C173.153 55.2596 173.241 57.6221 174.232 57.0205C174.323 56.9748 175.649 55.0092 176.197 54.0941C176.384 54.7638 176.805 55.3444 177.382 55.731C177.96 56.1176 178.657 56.2846 179.348 56.2019C180.038 56.1191 180.676 55.792 181.146 55.2797C181.616 54.7674 181.887 54.1038 181.91 53.409C182.001 53.5003 182.138 53.5917 182.225 53.683C182.304 53.7573 182.401 53.8103 182.506 53.8371C182.611 53.8639 182.722 53.8636 182.827 53.8362C182.932 53.8089 183.028 53.7553 183.107 53.6806C183.186 53.6059 183.244 53.5125 183.277 53.409C183.885 52.2016 184.557 51.0272 185.288 49.8904C188.213 49.5754 218.926 40.2924 221.531 38.8292C222.033 38.6449 221.666 37.9078 221.164 38.0055ZM173.951 55.4187C172.123 53.3387 170.07 51.4687 167.828 49.8432C167.828 49.8432 169.426 47.1468 170.25 45.775C172.258 47.7012 174.518 49.3463 176.968 50.6653C175.963 52.2655 174.956 53.8185 173.951 55.4187ZM182.497 52.2199C181.711 51.4853 180.868 50.8128 179.977 50.2086C180.66 49.2108 181.256 48.157 181.76 47.0586C182.491 47.9721 183.178 48.9313 183.909 49.8463C183.362 50.5899 182.89 51.3848 182.497 52.2199Z" fill="#191919"/>
<path d="M306.033 64.2873C302.581 59.074 292.284 56.4264 284.278 60.8128C283.912 59.0299 281.991 57.5242 280.392 56.5162C268.537 49.0476 255.98 51.4447 250.045 59.2599C249.316 60.2206 250.962 61.1798 251.691 60.219C253.394 58.0142 255.63 56.279 258.189 55.1769C260.747 54.0747 263.544 53.6419 266.317 53.919C275.137 54.9412 283.983 59.6032 282.084 62.4241C281.588 63.1596 282.624 64.2873 283.363 63.703C285.944 61.7547 289.042 60.6109 292.269 60.4148C295.497 60.2187 298.711 60.979 301.508 62.6004C307.263 66.015 305.695 69.91 300.685 71.055C280.31 75.7139 247.037 74.9012 238.664 73.249C237.44 73.114 236.273 72.657 235.283 71.9244C233.782 70.5904 234.495 68.9871 235.922 68.1303C237.841 67.1391 239.886 66.4162 242.002 65.982C246.209 64.8952 251.636 64.9535 254.205 69.0453C254.282 69.158 254.399 69.237 254.532 69.2661C254.665 69.2953 254.804 69.2723 254.921 69.202C255.038 69.1317 255.124 69.0194 255.16 68.888C255.197 68.7567 255.182 68.6163 255.118 68.4957C253.427 65.0685 249.497 63.8337 245.886 63.8793C242.367 63.925 234.913 66.4812 233.637 67.9476C230.978 71.0031 234.739 74.0192 237.574 74.6208C253.121 77.9189 276.921 76.084 288.259 74.9862C292.685 74.5515 311.864 73.0884 306.033 64.2873Z" fill="#191919"/>
</svg>
