<svg width="276" height="276" viewBox="0 0 276 276" fill="none" xmlns="http://www.w3.org/2000/svg">
<path d="M131.209 155.747C129.109 161.67 124.839 175.035 125.522 181.295C125.584 182.907 126.193 184.451 127.25 185.671C128.307 186.89 129.748 187.714 131.335 188.004C133.44 188.41 135.59 188.523 137.726 188.34C137.848 188.346 137.97 188.328 138.085 188.286C138.199 188.244 138.304 188.179 138.393 188.095C138.482 188.011 138.552 187.91 138.601 187.798C138.649 187.686 138.674 187.565 138.674 187.443C138.674 187.32 138.649 187.2 138.601 187.087C138.552 186.975 138.482 186.874 138.393 186.79C138.304 186.706 138.199 186.641 138.085 186.599C137.97 186.557 137.848 186.539 137.726 186.546C128.306 186.085 127.621 183.489 128.844 175.584C129.996 167.856 132.961 160.607 134.103 155.522C135.267 150.528 135.392 149.473 134.422 149.23C133.489 148.996 133.438 149.386 131.209 155.747Z" fill="#191919"/>
<path d="M128.983 211.385C135.942 219.951 150.293 216.099 150.858 202.52C150.886 202.284 150.82 202.047 150.674 201.859C150.528 201.672 150.313 201.551 150.077 201.522C149.841 201.493 149.604 201.559 149.416 201.705C149.229 201.852 149.108 202.066 149.079 202.302C147.775 208.937 142.375 214.532 135.734 212.5C133.902 211.84 132.189 210.889 130.66 209.682C128.866 208.302 128.522 207.545 127.762 208.173C126.935 208.817 127.839 209.965 128.983 211.385Z" fill="#191919"/>
<path d="M150.682 140.526C152 139.255 153.652 138.386 155.446 138.018C156.696 137.801 157.98 137.893 159.187 138.286C162.695 139.362 163.237 140.986 164.127 140.03C165.113 138.996 162.195 136.846 161.527 136.399C157.525 133.631 151.652 135.019 148.693 138.52C148.172 139.146 146.451 141.654 147.468 142.354C148.064 142.768 148.144 142.596 150.682 140.526Z" fill="#191919"/>
<path d="M113.633 150.089C116.307 150.089 118.471 153.343 118.471 157.343C118.471 161.344 116.307 164.606 113.633 164.606C110.958 164.606 108.793 161.36 108.793 157.343C108.793 153.326 110.957 150.089 113.633 150.089Z" fill="#191919"/>
<path d="M157.367 149.007C160.043 149.007 162.215 152.261 162.215 156.271C162.215 160.282 160.043 163.534 157.367 163.534C154.691 163.534 152.527 160.289 152.527 156.271C152.527 152.254 154.695 149.007 157.367 149.007Z" fill="#191919"/>
<path d="M167.301 234.117C167.621 239.968 168.055 244.991 168.465 248.628C168.481 248.744 168.474 248.862 168.444 248.975C168.415 249.089 168.363 249.195 168.292 249.289C168.221 249.382 168.133 249.461 168.031 249.52C167.93 249.579 167.818 249.618 167.702 249.634C167.586 249.649 167.468 249.642 167.354 249.613C167.241 249.583 167.134 249.531 167.041 249.46C166.948 249.389 166.869 249.301 166.81 249.2C166.751 249.098 166.712 248.987 166.696 248.87C165.903 243.862 165.316 238.602 164.859 233.53C164.841 233.305 164.887 233.078 164.993 232.878C165.098 232.677 165.258 232.511 165.454 232.397C180.825 223.183 181.775 204.997 182.614 187.56C182.635 187.207 182.778 186.873 183.018 186.614C183.259 186.355 183.582 186.188 183.932 186.143C195.284 184.746 205.478 174.584 199.281 163.522C196.935 159.177 192.813 157.194 188.517 154.63C188.415 154.575 188.325 154.501 188.253 154.411C188.18 154.322 188.125 154.219 188.093 154.108C188.06 153.997 188.05 153.881 188.062 153.766C188.074 153.652 188.109 153.54 188.165 153.439C188.277 153.234 188.467 153.081 188.692 153.015C188.916 152.949 189.158 152.975 189.364 153.087C192.134 154.324 194.797 155.788 197.324 157.466C199.095 158.711 200.591 160.308 201.718 162.156C202.846 164.004 203.582 166.064 203.879 168.208C204.177 170.353 204.03 172.535 203.449 174.621C202.867 176.706 201.863 178.649 200.498 180.33C196.709 184.893 191.409 187.946 185.561 188.934C184.615 207.233 183.062 224.85 167.301 234.117Z" fill="#191919"/>
<path d="M55.1775 93.9408C55.1775 93.8028 55.1513 83.232 55.0395 79.6744C55.0251 79.3191 55.1405 78.9707 55.3643 78.6944C55.588 78.4181 55.9048 78.2327 56.2553 78.173C62.7894 76.9604 69.3824 76.0898 76.0072 75.5648C76.1246 75.5515 76.2434 75.5616 76.3569 75.5945C76.4703 75.6274 76.5761 75.6824 76.6682 75.7565C76.7602 75.8305 76.8367 75.922 76.8932 76.0257C76.9497 76.1295 76.985 76.2434 76.9972 76.3609C77.0095 76.4783 76.9983 76.5971 76.9643 76.7102C76.9304 76.8234 76.8744 76.9287 76.7995 77.02C76.7247 77.1114 76.6325 77.187 76.5282 77.2426C76.424 77.2981 76.3098 77.3324 76.1922 77.3436C71.2366 78.0902 62.5688 79.9752 58.0176 80.8405C58.1832 86.5413 58.081 94.0692 58.3281 99.5947C58.3425 99.9236 58.2474 100.248 58.0577 100.517C57.868 100.786 57.5943 100.985 57.2797 101.082C56.965 101.179 56.627 101.168 56.3188 101.053C56.0106 100.937 55.7494 100.722 55.5763 100.442C53.7822 97.5992 52.185 94.6368 50.796 91.5755C49.259 91.7472 47.7125 91.82 46.1661 91.7936C45.934 91.8056 45.7066 91.7253 45.5336 91.5701C45.3606 91.4149 45.2561 91.1976 45.2429 90.9656C45.2335 90.7301 45.3171 90.5004 45.4756 90.3261C45.6342 90.1518 45.855 90.0469 46.0902 90.034C47.8632 89.77 49.6214 89.4144 51.3577 88.9687C51.6257 88.9245 51.9009 88.9665 52.1434 89.0888C52.386 89.2111 52.5835 89.4073 52.7073 89.649C52.8053 89.8284 55.0699 93.7559 55.1775 93.9408Z" fill="#191919"/>
<path d="M76.6615 92.3041C75.2447 90.7975 73.6629 89.4551 71.946 88.3021C72.9507 87.0394 76.3496 83.1561 75.2194 82.157C74.4466 81.4559 72.1171 83.5756 71.9074 83.7757C71.3043 84.3512 69.8015 86.1535 69.4524 86.5785C68.1082 85.6608 63.0229 82.0245 62.0845 83.359C61.0813 84.739 66.1045 87.9419 67.5894 88.9493C66.3509 90.4982 65.2714 92.1676 64.3671 93.9325C63.6771 95.2946 63.0906 96.1557 63.8716 96.7091C64.6996 97.2611 65.1923 96.7519 70.0816 90.644C77.0479 95.3981 77.3115 95.5678 77.9325 94.8833C78.5714 94.1381 77.7655 93.4523 76.6615 92.3041Z" fill="#191919"/>
<path d="M180.402 26.6425C179.054 25.4769 177.621 24.4132 176.116 23.4602C177.057 21.9345 177.904 20.3529 178.653 18.7241C179.343 17.2171 179.992 16.3174 179.139 15.7888C178.311 15.2741 177.809 16.1159 175.5 19.127C174.867 19.955 174.178 21.0094 173.619 21.8801C171.842 20.7761 165.186 16.3601 164.235 17.9168C163.284 19.4734 170.434 23.4368 172.014 24.4111C170.91 26.1816 166.411 32.6055 167.845 33.5618C168.744 34.1787 170.674 31.7872 171.243 31.0544C172.089 29.9642 173.155 28.2682 174.58 25.9787C175.918 26.7916 176.436 27.1131 177.973 27.9232C180.799 29.397 181.543 30.0125 182.113 29.1734C182.636 28.3855 181.876 27.8266 180.402 26.6425Z" fill="#191919"/>
<path d="M192.725 52.8732C193.884 52.6275 198.031 51.3152 199.165 50.9522C201.646 50.244 204.062 49.3262 206.387 48.2088C207.977 47.4608 209.009 47.1338 208.669 46.1967C208.291 45.1576 207.033 45.7124 204.366 46.3472C201.744 46.9475 193.129 49.6592 191.886 50.1808C187.147 52.0769 187.846 53.9854 192.725 52.8732Z" fill="#191919"/>
<path d="M199.577 39.8226C198.784 39.3444 197.871 39.1022 196.945 39.1245C196.02 39.1467 195.12 39.4324 194.351 39.9481C193.977 40.2669 193.673 40.6579 193.455 41.0977C193.237 41.5374 193.111 42.0167 193.084 42.5067C193.069 43.017 193.157 43.5251 193.343 44.0006C193.528 44.4761 193.808 44.9093 194.165 45.2741C194.522 45.639 194.95 45.928 195.421 46.124C195.892 46.32 196.398 46.4189 196.909 46.4148C197.423 46.4185 197.932 46.3198 198.406 46.1245C198.881 45.9292 199.313 45.6412 199.675 45.2774C200.037 44.9135 200.323 44.4811 200.517 44.0053C200.71 43.5296 200.807 43.0201 200.801 42.5067C200.806 41.9969 200.699 41.4923 200.487 41.0284C200.276 40.5646 199.965 40.1529 199.577 39.8226Z" fill="#191919"/>
<path d="M203.61 52.7407C202.819 52.2597 201.907 52.0151 200.981 52.0359C200.055 52.0567 199.155 52.342 198.386 52.858C198.012 53.1764 197.708 53.5672 197.49 54.0067C197.272 54.4463 197.146 54.9254 197.119 55.4152C197.104 55.9256 197.192 56.4337 197.378 56.9093C197.564 57.3849 197.843 57.8181 198.2 58.1831C198.558 58.5481 198.985 58.8373 199.456 59.0334C199.927 59.2296 200.434 59.3286 200.944 59.3247C201.458 59.3297 201.968 59.2319 202.444 59.037C202.919 58.8421 203.351 58.554 203.714 58.1897C204.076 57.8254 204.362 57.3923 204.555 56.9158C204.748 56.4393 204.843 55.9291 204.836 55.4152C204.841 54.9067 204.733 54.4034 204.522 53.9412C204.31 53.4789 203.999 53.069 203.61 52.7407Z" fill="#191919"/>
<path d="M233.026 87.1482C232.896 87.0088 210.589 64.0318 210.451 63.949C210.29 63.8239 210.093 63.7569 209.889 63.7588C209.686 63.7608 209.489 63.8316 209.331 63.9598C209.174 64.088 209.064 64.2659 209.02 64.4645C208.977 64.663 209.002 64.8705 209.091 65.053C207.297 73.9885 207.144 73.9292 205.477 85.1072C205.448 85.2984 205.458 85.4934 205.505 85.6809C205.552 85.8684 205.635 86.0448 205.751 86.1999C205.866 86.355 206.011 86.4857 206.178 86.5845C206.344 86.6833 206.528 86.7483 206.719 86.7756C214.799 87.9859 223.714 87.8796 231.613 89.6115C231.923 89.6832 232.248 89.6531 232.54 89.5258C232.832 89.3984 233.075 89.1805 233.234 88.9043C233.392 88.6281 233.458 88.3082 233.42 87.9919C233.383 87.6757 233.245 87.3799 233.026 87.1482Z" fill="#60A600"/>
<path d="M74.0951 48.0861C74.3253 47.8315 74.457 47.503 74.4664 47.1599C74.4757 46.8167 74.3622 46.4816 74.1461 46.2148C72.9568 44.6187 71.608 43.1479 70.1207 41.825C70.4907 39.8243 70.4753 37.7714 70.0751 35.7765C66.4402 19.6829 42.0763 28.4887 49.9465 44.6085C50.897 46.634 52.4365 48.3256 54.3638 49.4621C56.2912 50.5986 58.5166 51.1272 60.7491 50.9786C61.0706 51.9335 64.6738 55.3463 64.8698 55.5326C64.9535 55.7599 65.1096 55.9534 65.3142 56.0833C65.5187 56.2131 65.7603 56.2721 66.0017 56.2511C66.243 56.23 66.4708 56.1302 66.6498 55.9669C66.8288 55.8037 66.9491 55.5861 66.9922 55.3476C67.7098 54.6259 68.4343 53.9124 69.1561 53.1976C69.7067 53.8479 70.3993 54.363 71.1805 54.7032C72.3646 55.2883 73.0297 54.3872 72.388 53.3867C71.9815 52.6788 71.4343 52.0617 70.7803 51.5733C71.8609 50.4762 72.7896 49.5102 74.0951 48.0861ZM58.5935 48.6381C55.998 47.687 53.8564 45.7923 52.5961 43.332C47.497 32.8329 60.0729 26.6202 65.6384 32.5128C66.7089 33.8215 67.492 35.3409 67.9369 36.9721C68.3817 38.6034 68.4783 40.3099 68.2204 41.981C67.598 42.584 66.9784 43.1926 66.3533 43.8095C65.6895 42.3991 64.0073 38.6828 63.2455 36.6652C63.1134 36.3537 62.8762 36.0984 62.5753 35.9437C62.2743 35.789 61.9287 35.7447 61.5984 35.8186C61.2682 35.8924 60.9744 36.0797 60.768 36.3479C60.5616 36.6161 60.4558 36.9481 60.469 37.2862C60.5136 38.549 60.6228 39.8088 60.796 41.0605C59.2849 40.9004 58.0484 40.8176 56.3593 40.532C56.034 40.4729 55.6983 40.5239 55.4052 40.6769C55.1121 40.8299 54.8783 41.0762 54.7408 41.3769C54.6032 41.6776 54.5698 42.0155 54.6458 42.3373C54.7217 42.6591 54.9027 42.9465 55.1601 43.154C57.4144 45.0351 59.9314 46.5767 62.6314 47.73C62.2147 48.1946 61.8057 48.6615 61.4046 49.1307C60.4488 49.0997 59.5023 48.9329 58.5935 48.6353V48.6381ZM63.8665 46.3749C63.8665 46.3749 61.5426 44.378 61.2238 44.1006C61.584 44.142 61.9538 44.1765 62.314 44.2262C62.5908 44.258 62.871 44.213 63.1239 44.0962C63.3768 43.9793 63.5926 43.7952 63.7478 43.5638C64.126 44.1351 64.5124 44.7055 64.907 45.275C64.7815 45.402 64.0873 46.1334 63.8665 46.368V46.3749ZM65.9434 53.5812C64.9774 52.0329 64.9043 51.8742 63.9893 50.6046C65.5073 48.9334 67.6684 46.7019 69.2734 45.1274C69.9137 45.7691 70.4174 46.3045 71.0936 47.1063C69.2126 49.3377 68.4937 50.1989 65.9434 53.5785V53.5812Z" fill="#191919"/>
<path d="M125.194 21.2368C123.434 16.2991 122.124 12.4738 120.261 7.85076C120.126 7.50573 119.868 7.22298 119.537 7.05707C119.206 6.89116 118.825 6.85387 118.467 6.95238C112.262 8.83928 106.201 11.1739 100.333 13.9379C100.003 14.0782 99.7428 14.3431 99.6078 14.6748C99.4729 15.0065 99.4746 15.378 99.6125 15.7085C101.406 19.6925 102.829 24.0575 104.703 28.0126C104.6 28.0643 104.508 28.1359 104.432 28.2233C104.356 28.3107 104.298 28.4122 104.261 28.5219C104.225 28.6317 104.21 28.7476 104.219 28.863C104.227 28.9784 104.258 29.091 104.309 29.1945C104.361 29.298 104.433 29.3903 104.52 29.4661C104.607 29.5419 104.709 29.5997 104.819 29.6363C104.928 29.6729 105.044 29.6875 105.16 29.6793C105.275 29.6711 105.388 29.6403 105.491 29.5885L105.6 29.5388C105.719 29.6086 105.852 29.65 105.989 29.66C106.126 29.6699 106.264 29.6481 106.391 29.5961C106.519 29.5442 106.632 29.4636 106.724 29.3605C106.815 29.2575 106.881 29.1348 106.917 29.002C110.41 27.6565 115.067 26.1634 124.262 23.1481C124.45 23.0862 124.624 22.9871 124.774 22.8568C124.923 22.7265 125.045 22.5675 125.132 22.3893C125.219 22.2111 125.269 22.0173 125.279 21.8193C125.29 21.6213 125.261 21.4232 125.194 21.2368Z" fill="#60A600"/>
<path d="M184.7 83.555C188.84 75.3619 184.353 64.4737 175.113 62.7873C175.751 58.1367 175.614 53.8173 173.135 49.854C168.343 42.1605 156.721 39.4212 149.456 45.0309C147.469 41.5957 144.675 38.6968 141.314 36.5853C130.441 30.5492 117.136 36.1533 110.322 45.9375C98.6849 41.7244 88.5861 53.0749 90.823 64.6158C88.4573 66.0434 86.4519 67.9965 84.9624 70.3238C83.473 72.6511 82.5393 75.2901 82.2339 78.0363C81.9868 80.1127 82.3638 82.2156 83.317 84.0767C84.2702 85.9379 85.7563 87.4728 87.5856 88.4857C106.434 99.3877 129.692 96.2951 150.422 98.5928C159.083 101.367 165.634 104.927 161.494 112.986C160.929 114.145 160.175 115.202 159.263 116.113C159.108 116.267 159.002 116.463 158.958 116.676C158.914 116.89 158.933 117.111 159.013 117.314C159.094 117.517 159.232 117.691 159.41 117.816C159.589 117.941 159.8 118.011 160.018 118.018C162.317 118.095 165.059 119.674 167.332 117.968C170.722 115.436 172.271 111.62 172.867 107.48C177.748 107.48 181.423 104.383 183.355 99.8569C189.841 96.6539 189.984 88.0441 184.7 83.555ZM114.399 78.035C112.867 84.8453 104.021 86.711 99.0589 83.0595C97.9433 82.3183 97.0759 81.2592 96.569 80.0194C96.0622 78.7796 95.9392 77.4162 96.2161 76.1057C96.2139 75.8733 96.3041 75.6495 96.4669 75.4837C96.6297 75.3178 96.8517 75.2233 97.0841 75.2211C97.3165 75.2189 97.5403 75.3092 97.7062 75.4719C97.8721 75.6347 97.9665 75.8567 97.9687 76.0892C98.3556 77.8884 99.3544 79.4978 100.795 80.6432C104.507 83.2444 110.847 81.5636 112.697 77.4816C112.734 77.3698 112.792 77.2664 112.868 77.177C112.944 77.0877 113.037 77.0142 113.142 76.9608C113.246 76.9075 113.361 76.8752 113.478 76.8659C113.595 76.8567 113.712 76.8706 113.824 76.9068C113.936 76.943 114.039 77.0009 114.129 77.0772C114.218 77.1534 114.292 77.2465 114.345 77.3511C114.398 77.4558 114.431 77.5699 114.44 77.687C114.449 77.8041 114.435 77.9218 114.399 78.0336V78.035ZM111.529 64.4185C110.059 65.7543 108.768 67.2738 107.687 68.9394C107.598 69.1553 107.427 69.3274 107.212 69.4184C106.997 69.5093 106.755 69.5118 106.538 69.4251C106.431 69.3819 106.333 69.3176 106.251 69.2362C106.168 69.1547 106.103 69.0577 106.058 68.9507C106.014 68.8437 105.991 68.7289 105.991 68.613C105.991 68.4971 106.015 68.3824 106.06 68.2756C106.512 66.0197 107.682 63.9711 109.397 62.4365C111.111 60.9019 113.276 59.9641 115.568 59.7634C117.86 59.5628 120.155 60.1102 122.11 61.3236C124.064 62.5369 125.573 64.351 126.41 66.494C126.468 66.5967 126.505 66.7099 126.518 66.8269C126.532 66.9439 126.522 67.0624 126.489 67.1755C126.456 67.2886 126.401 67.3941 126.327 67.4858C126.253 67.5776 126.162 67.6537 126.059 67.7098C125.849 67.8214 125.604 67.8461 125.376 67.7788C125.149 67.7114 124.957 67.5573 124.841 67.3496C123.331 65.2037 121.113 63.659 118.576 62.9874C117.37 62.674 116.108 62.6404 114.886 62.8891C113.665 63.1379 112.516 63.6624 111.529 64.4226V64.4185ZM140.989 75.4654C137.539 85.8278 121.739 86.2391 120.104 75.5744C120.069 75.4642 120.057 75.3483 120.067 75.2332C120.077 75.1181 120.109 75.0062 120.163 74.9037C120.216 74.8013 120.289 74.7103 120.378 74.6361C120.466 74.5619 120.568 74.5058 120.679 74.4711C120.789 74.4364 120.905 74.4237 121.02 74.4338C121.135 74.4439 121.247 74.4766 121.349 74.53C121.452 74.5834 121.543 74.6564 121.617 74.7449C121.691 74.8334 121.747 74.9357 121.782 75.0459C122.773 76.8937 124.238 78.4449 126.025 79.5405C130.695 81.9666 136.995 78.9747 139.345 74.7436C139.443 74.5278 139.622 74.3593 139.844 74.2746C140.065 74.1899 140.311 74.1958 140.528 74.291C140.636 74.3378 140.733 74.4054 140.815 74.4901C140.897 74.5748 140.961 74.6748 141.004 74.7843C141.047 74.8939 141.067 75.0108 141.065 75.1284C141.062 75.246 141.036 75.3619 140.989 75.4695V75.4654ZM152.251 67.7222C152.059 67.6078 151.895 67.4522 151.77 67.2665C151.645 67.0808 151.564 66.8697 151.531 66.6486C150.959 62.6976 147.68 61.112 144.25 61.1465C140.751 61.1948 136.545 63.0992 134.84 65.8385C134.732 66.0424 134.549 66.1961 134.329 66.2666C134.11 66.3372 133.872 66.319 133.665 66.216C133.459 66.113 133.302 65.9333 133.226 65.7155C133.151 65.4977 133.164 65.259 133.262 65.0505C136.504 56.7526 151.092 55.265 154.079 64.4544C155.022 64.1074 155.991 63.8383 156.977 63.6498C164.111 62.3388 168.732 68.6178 167.94 75.2832C167.934 75.4009 167.904 75.5161 167.853 75.6222C167.802 75.7282 167.73 75.8231 167.642 75.9011C167.554 75.9792 167.451 76.039 167.339 76.0769C167.228 76.1149 167.11 76.1303 166.992 76.1223C166.755 76.1035 166.535 75.9931 166.378 75.8145C166.222 75.6359 166.141 75.4032 166.153 75.1659C166.183 73.1207 165.592 71.1145 164.46 69.4113C163.763 68.2531 162.713 67.3493 161.464 66.833C160.215 66.3167 158.834 66.2153 157.523 66.5437C154.249 67.1647 153.432 68.4164 152.251 67.7263V67.7222ZM172.943 86.602C167.511 92.1096 156.43 89.874 155.437 80.5466C155.276 78.8787 155.479 77.1957 156.034 75.6144C156.046 75.4971 156.081 75.3834 156.138 75.2801C156.195 75.1768 156.272 75.0859 156.365 75.013C156.457 74.94 156.564 74.8863 156.677 74.8553C156.791 74.8242 156.91 74.8162 157.027 74.832C157.144 74.8477 157.256 74.8867 157.358 74.9468C157.459 75.0068 157.548 75.0866 157.618 75.1815C157.688 75.2764 157.738 75.3843 157.765 75.499C157.793 75.6137 157.797 75.7327 157.778 75.849C157.848 77.0665 157.986 78.2791 158.192 79.4812C158.352 81.0151 158.878 82.488 159.726 83.7758C162.165 87.4079 168.703 87.4052 171.771 85.2344C171.861 85.1573 171.965 85.0987 172.077 85.062C172.189 85.0253 172.308 85.0112 172.426 85.0206C172.543 85.03 172.658 85.0626 172.763 85.1166C172.868 85.1706 172.962 85.2449 173.038 85.3352C173.193 85.5166 173.27 85.7521 173.252 85.9903C173.235 86.2284 173.123 86.4498 172.943 86.6061V86.602ZM179.357 89.1164C179.297 89.2226 179.216 89.3155 179.119 89.3893C179.022 89.4631 178.911 89.5164 178.793 89.5457C178.675 89.5751 178.552 89.58 178.431 89.56C178.311 89.5401 178.196 89.4958 178.094 89.4299C177.991 89.3639 177.903 89.2777 177.835 89.1765C177.767 89.0754 177.721 88.9614 177.698 88.8415C177.676 88.7217 177.679 88.5986 177.706 88.4797C177.733 88.3609 177.784 88.2488 177.856 88.1503C178.41 86.893 178.746 85.5504 178.851 84.1801C179.027 82.9998 178.962 81.7961 178.661 80.6413C178.36 79.4866 177.828 78.4047 177.098 77.4609C176.053 76.3556 174.865 75.394 173.566 74.6015C173.341 74.5415 173.148 74.3942 173.031 74.1921C172.913 73.99 172.881 73.7496 172.941 73.5237C173.001 73.2979 173.149 73.1052 173.351 72.9879C173.553 72.8707 173.793 72.8386 174.019 72.8986C175.05 72.9078 176.066 73.1493 176.991 73.6051C177.916 74.061 178.727 74.7195 179.362 75.5316C180.968 77.432 181.848 79.8395 181.847 82.3271C181.846 84.8147 180.964 87.2215 179.357 89.1205V89.1164Z" fill="#60A600"/>
<path d="M52.5234 269.1C58.2767 266.215 63.9305 262.936 69.9777 260.663C82.2818 256.041 95.0302 253.709 107.577 250.062C109.179 255.32 114.782 261.157 119.916 263.422L52.5234 269.1Z" fill="#60A600"/>
<path d="M159.023 261.835C164.674 258.834 169.021 253.857 171.235 247.854C186.065 248.306 211.444 257.029 225.317 264.796L159.023 261.835Z" fill="#60A600"/>
<path d="M234.795 106.369C198.625 107.254 201.43 107.076 200.885 107.473C193.04 113.124 190.56 115.047 178.297 124.472L93.5971 126.614C72.7825 113.901 74.0494 114.608 73.6257 114.566L41.3682 110.4C41.0275 110.352 40.6805 110.422 40.3854 110.599C40.0902 110.776 39.8649 111.049 39.747 111.373C39.6292 111.696 39.626 112.05 39.738 112.375C39.85 112.701 40.0703 112.978 40.3622 113.16C67.6131 130.866 68.1623 131.07 76.3457 135.825C76.2722 136.041 76.2528 136.272 76.2891 136.497C77.3754 143.581 78.9145 150.587 80.897 157.473C66.959 160.115 63.4206 179.806 76.434 186.474C79.6125 187.951 83.0622 188.753 86.566 188.831C86.704 208.412 90.7915 228.619 108.646 236.717L109.257 250.959C109.262 251.076 109.29 251.191 109.34 251.298C109.389 251.404 109.459 251.5 109.546 251.579C109.632 251.659 109.734 251.721 109.844 251.761C109.954 251.801 110.071 251.819 110.189 251.814C110.306 251.809 110.421 251.781 110.528 251.732C110.634 251.682 110.73 251.612 110.81 251.526C110.889 251.439 110.951 251.338 110.991 251.228C111.031 251.117 111.049 251 111.044 250.883C110.942 246.442 111.098 242.263 111.044 237.436C117.037 239.92 123.44 241.263 129.926 241.395C137.587 241.714 145.247 240.745 152.588 238.528C152.703 238.502 152.811 238.454 152.907 238.386C153.003 238.318 153.085 238.232 153.147 238.133C153.21 238.033 153.253 237.922 153.273 237.807C153.292 237.691 153.289 237.572 153.263 237.458C153.238 237.343 153.189 237.235 153.122 237.139C153.054 237.043 152.968 236.961 152.868 236.898C152.769 236.835 152.658 236.793 152.542 236.773C152.427 236.753 152.308 236.756 152.193 236.782C144.878 238.022 137.461 238.564 130.043 238.401C109.195 237.495 100.417 230.177 95.34 219.783C90.5928 210.123 89.5275 198.161 89.5703 187.4C89.5722 187.01 89.4214 186.634 89.1502 186.354C88.8789 186.073 88.5086 185.91 88.1185 185.899C81.9554 185.728 76.1636 184.589 72.9123 179.348C70.7871 175.97 70.8492 171.261 72.2002 167.472C72.9871 165.477 74.2273 163.693 75.8227 162.26C77.4181 160.827 79.3249 159.785 81.3924 159.216C83.0484 165.086 84.8272 170.919 86.4473 176.722C86.546 177.063 86.7632 177.357 87.0597 177.552C87.3563 177.747 87.7127 177.83 88.0648 177.785C88.4169 177.74 88.7415 177.571 88.9801 177.309C89.2186 177.046 89.3555 176.707 89.366 176.352C89.504 167.52 89.8587 160.703 89.6517 150.242C93.3611 146.351 96.4137 141.402 96.7766 135.995C99.8789 135.813 104.006 135.812 106.286 135.81C104.305 136.313 102.52 137.398 101.161 138.923C100.333 139.91 98.6396 142.649 99.7685 143.309C100.612 143.782 100.652 143.072 103.173 140.902C104.729 139.361 106.828 138.493 109.019 138.487C111.62 138.654 114.116 139.581 116.195 141.154C117.851 142.373 118.265 143.224 119.064 142.554C120.187 141.605 117.111 138.81 116.413 138.227C114.961 137.014 113.238 136.171 111.389 135.769C120.126 135.614 145.787 133.445 168.679 133.951C168.948 136.651 169.929 139.231 171.52 141.428C173.112 143.625 175.257 145.361 177.738 146.458C178.188 155.481 179.423 164.187 180.598 173.139C180.648 173.502 180.83 173.835 181.108 174.073C181.387 174.312 181.743 174.44 182.109 174.434C182.476 174.427 182.828 174.287 183.098 174.039C183.368 173.791 183.538 173.453 183.576 173.088C184.542 162.738 187.872 156.008 188.892 133.439L235.536 109.182C235.834 109.024 236.07 108.77 236.205 108.462C236.34 108.153 236.367 107.807 236.281 107.481C236.195 107.155 236.002 106.868 235.732 106.666C235.462 106.464 235.132 106.36 234.795 106.369ZM77.7947 134.571C70.0667 128.985 62.485 123.887 47.5327 114.197C51.2242 114.658 71.8055 117.124 73.031 117.259L91.4954 127.538L77.7947 134.571ZM178.84 131.703C159.418 131.877 154.087 130.083 118.743 132.501C114.159 132.834 108.431 132.817 104.712 133.105C95.7057 133.747 93.1527 134.64 81.7153 134.81C86.1824 132.856 93.2769 129.748 93.9504 129.44C95.9638 129.397 176.474 126.848 177.983 126.773L184.357 131.767C182.525 131.708 180.686 131.687 178.84 131.703ZM188.018 131.858C187.909 131.858 187.561 131.913 187.484 131.908L179.991 125.51C187.502 120.517 192.721 116.991 202.243 110.135L228.601 109.506C224.366 111.762 192.039 129.635 188.018 131.858Z" fill="#191919"/>
</svg>
