<svg width="345" height="345" viewBox="0 0 345 345" fill="none" xmlns="http://www.w3.org/2000/svg">
<path d="M169.136 238.633C161.825 244.519 148.822 245.442 142.698 245.323C142.087 252.009 142.051 258.735 142.59 265.427C165.098 271.403 201.231 270.602 222.093 265.226C222.323 259.459 222.093 252.431 221.974 245.888C208.495 246.939 180.331 241.402 169.136 238.633Z" fill="#60A600"/>
<path d="M121.539 252.304C115.276 256.694 85.5353 254.562 75.8477 253.08C75.9029 256.53 76.0771 259.118 76.4238 262.987C93.2201 267.665 124.674 267.146 139.559 262.987C139.678 257.558 140.373 248.438 140.373 245.219C136.005 244.788 131.77 243.473 127.925 241.354C127.75 243.541 127.086 245.661 125.98 247.556C124.875 249.452 123.357 251.074 121.539 252.304Z" fill="#60A600"/>
<path d="M233.312 241.402C230.778 243.563 227.788 245.125 224.566 245.971C224.83 251.079 224.658 253.418 224.749 261.991C234.754 265.015 261.795 264.061 274.602 261.551V252.204C257.985 250.577 235.396 250.065 233.312 241.402Z" fill="#60A600"/>
<path d="M108.922 194.895C109.006 194.23 110.074 194.074 110.065 194.751C109.709 204.448 107.156 213.937 102.598 222.504C108.222 224.604 113.731 226.998 119.103 229.677C112.46 203.048 129.777 180.449 139.125 173.933C136.794 171.675 131.202 169.126 123.891 168.877C116.581 168.629 106.308 172.99 101.045 178.701C101.636 175.526 103.09 172.576 105.249 170.174C80.83 172.916 69.7452 180.428 62.2966 185.009C62.217 194.412 62.7662 203.81 63.9406 213.139C67.9425 213.279 71.9493 213.135 75.931 212.71C78.1977 204.485 82.5481 191.235 88.4235 184.508C88.8616 184.006 89.4999 184.335 89.1273 184.965C84.2421 193.098 75.9759 211.028 75.3635 227.777C79.676 227.869 96.255 226.087 100.833 222.376C105.163 213.778 107.904 204.468 108.922 194.895Z" fill="#60A600"/>
<path d="M119.84 220.393C125.324 218.758 135.85 214.7 147.255 210.916C147.824 204.765 149.674 198.801 152.684 193.407C153.077 192.841 153.845 193.157 153.596 193.864C151.441 199.114 149.982 204.623 149.256 210.252C162.251 206.039 176.115 202.36 185.016 203.069C199.29 204.204 205.869 208.121 208.017 213.495C207.998 207.723 206.971 201.999 204.982 196.581C204.948 196.464 204.954 196.339 205.001 196.227C205.048 196.114 205.132 196.021 205.239 195.963C205.346 195.905 205.47 195.885 205.59 195.908C205.709 195.93 205.818 195.993 205.897 196.086C207.861 198.929 209.552 207.875 209.935 215.442C220.407 215.68 236.845 217.579 239.991 220.272C239.474 197.764 230.588 168.677 194.574 163.368C191.146 168.597 186.85 173.202 181.871 176.983C175.974 174.089 170.895 169.767 167.094 164.41C147.081 166.257 120.187 183.245 119.84 220.393Z" fill="#60A600"/>
<path d="M264.01 189.112C259.387 184.176 245.524 175.405 240.069 174.335C235.923 175.533 232.024 177.461 228.555 180.028C242.902 196.852 244.263 222.128 240.069 232.401C243.414 229.923 246.914 227.876 255.979 225.739C252.044 217.583 249.252 208.923 247.681 200.005C247.6 199.21 248.589 199.001 248.76 199.795C250.777 208.999 253.887 217.93 258.025 226.396C258.542 228.224 273.451 230.306 275.873 230.672C278.312 215.001 284.898 202.748 274.045 187.557C273.6 186.935 274.39 186.407 274.886 186.955C280.751 193.447 282.095 202.946 281.441 211.362C284.116 212.183 286.834 212.855 289.583 213.374C291.496 205.376 292.969 197.279 293.998 189.12C287.51 183.573 271.664 175.413 262.085 173.585C264.08 178.502 264.744 183.857 264.01 189.112Z" fill="#60A600"/>
<path d="M260.579 109.462C262.411 107.3 267.89 97.8198 268.402 94.8942C268.53 94.1645 267.424 93.6074 267.048 94.2836C264.547 98.7979 261.574 104.102 259.244 108.63C258.826 109.445 260.005 110.14 260.579 109.462Z" fill="#60A600"/>
<path d="M136.564 100.633C136.788 101.546 138.03 101.063 138.025 100.278C137.999 95.8826 132.919 84.4752 130.409 81.0045C130.294 80.855 130.129 80.7515 129.944 80.7125C129.759 80.6735 129.566 80.7015 129.4 80.7916C129.234 80.8816 129.106 81.0278 129.038 81.204C128.97 81.3802 128.967 81.5748 129.029 81.7531C130.038 85.7206 134.126 90.7352 136.564 100.633Z" fill="#60A600"/>
<path d="M95.4898 105.57C95.971 106.203 97.1613 105.716 96.8059 104.902C94.6448 100.57 92.0707 96.4573 89.1193 92.6201C88.5794 92.0457 87.5185 92.7771 87.8411 93.4826C90.0856 97.6968 92.6423 101.737 95.4898 105.57Z" fill="#60A600"/>
<path d="M179.226 93.807C179.498 87.8814 179.348 81.9439 178.777 76.0395C178.658 75.2995 177.482 75.127 177.38 75.9671C176.978 81.9552 177.044 87.9656 177.58 93.9433C177.673 95.0335 179.191 94.8403 179.226 93.807Z" fill="#60A600"/>
<path d="M220.173 101.977C221.974 96.9745 224.898 87.7095 226.186 82.5862C226.376 81.8272 225.314 81.1303 224.86 81.9186C221.879 88.181 219.793 94.8317 218.665 101.675C218.654 101.862 218.711 102.047 218.826 102.195C218.94 102.343 219.104 102.445 219.288 102.482C219.472 102.519 219.662 102.488 219.825 102.395C219.988 102.302 220.111 102.154 220.173 101.977Z" fill="#60A600"/>
<path d="M66.7127 123.525C63.8967 119.84 60.393 116.735 56.3954 114.383C56.2274 114.328 56.0455 114.335 55.8818 114.402C55.7182 114.468 55.5832 114.59 55.5008 114.747C55.4184 114.903 55.3937 115.083 55.4311 115.256C55.4685 115.428 55.5657 115.582 55.7054 115.69C59.0675 118.714 62.2277 121.24 65.5379 124.472C65.6705 124.604 65.847 124.683 66.0337 124.692C66.2204 124.702 66.4041 124.643 66.5496 124.525C66.6952 124.408 66.7923 124.241 66.8224 124.056C66.8525 123.872 66.8134 123.683 66.7127 123.525Z" fill="#60A600"/>
<path d="M330.299 164.246C326.396 165.617 322.615 167.314 318.995 169.318C318.2 169.82 318.676 171.357 319.635 170.944C321.636 170.082 329.433 166.851 330.831 165.597C331.303 165.176 331.012 164.169 330.299 164.246Z" fill="#60A600"/>
<path d="M335.781 202.234C331.624 202.231 327.474 202.571 323.372 203.248C322.413 203.49 322.796 204.764 323.646 204.83C327.731 204.777 331.807 204.414 335.837 203.743C335.997 203.689 336.136 203.584 336.232 203.444C336.328 203.305 336.377 203.138 336.371 202.968C336.365 202.799 336.304 202.636 336.198 202.503C336.092 202.371 335.946 202.277 335.781 202.234Z" fill="#60A600"/>
<path d="M308.43 117.869C305.38 120.614 302.78 123.82 300.726 127.372C300.64 127.562 300.625 127.777 300.684 127.976C300.744 128.176 300.873 128.348 301.05 128.459C301.226 128.571 301.436 128.615 301.642 128.583C301.848 128.551 302.036 128.446 302.17 128.287C304.218 125.711 307.818 121.637 309.481 118.984C309.858 118.37 309.089 117.449 308.43 117.869Z" fill="#60A600"/>
<path d="M23.3468 215.43C19.4089 214.71 15.4015 214.443 11.4029 214.635C10.6094 214.728 10.4886 215.97 11.3218 216.079C15.2861 216.556 19.2732 216.818 23.2657 216.865C24.161 216.884 24.1041 215.671 23.3468 215.43Z" fill="#60A600"/>
<path d="M18.9445 143.035C18.7711 142.976 18.5824 142.981 18.4124 143.049C18.2424 143.117 18.1023 143.244 18.0173 143.406C17.9324 143.568 17.9082 143.755 17.9491 143.934C17.9901 144.112 18.0935 144.27 18.2407 144.379C21.2904 146.39 24.4892 148.165 27.8092 149.689C27.9936 149.76 28.198 149.762 28.3833 149.692C28.5685 149.623 28.7216 149.487 28.8132 149.312C28.9049 149.136 28.9286 148.933 28.8799 148.742C28.8312 148.55 28.7135 148.383 28.5493 148.272C25.5851 146.123 22.3571 144.362 18.9445 143.035Z" fill="#60A600"/>
<path d="M22.3333 182.605C18.0208 181.893 13.7083 181.122 9.38549 180.449C8.57129 180.321 8.31599 181.563 9.09224 181.829C13.3757 183.042 17.7732 183.808 22.2143 184.115C22.4031 184.111 22.5837 184.037 22.721 183.908C22.8584 183.778 22.9427 183.602 22.9575 183.414C22.9724 183.226 22.9167 183.039 22.8014 182.889C22.686 182.74 22.5192 182.639 22.3333 182.605Z" fill="#60A600"/>
<path d="M169.234 123.443C170.189 122.695 171.357 122.272 172.569 122.235C174.294 122.063 173.995 120.881 173.604 120.608C172.512 119.836 169.179 120.936 168.413 122.333C167.842 123.368 168.715 123.855 169.234 123.443Z" fill="#191919"/>
<path d="M186.3 121.799C187.71 121.516 189.172 121.666 190.496 122.228C190.634 122.293 190.792 122.301 190.935 122.25C191.079 122.199 191.197 122.093 191.263 121.956C191.801 120.829 188.346 119.268 185.779 120.026C184.244 120.478 184.092 122.189 186.3 121.799Z" fill="#191919"/>
<path d="M177.514 142.278C180.306 148.404 190.08 145.174 187.803 137.59C187.493 136.85 186.558 137.129 186.315 137.343C184.356 139.095 181.865 140.135 179.242 140.294C177.815 140.458 176.756 140.613 177.514 142.278ZM186.58 138.989C186.764 139.944 186.601 140.934 186.12 141.78C185.639 142.625 184.872 143.272 183.956 143.602C183.041 143.933 182.038 143.926 181.128 143.582C180.217 143.239 179.459 142.582 178.99 141.73C181.756 141.692 184.429 140.726 186.58 138.989Z" fill="#191919"/>
<path d="M181.837 136.556C182.239 136.118 181.956 135.242 181.025 135.707C180.203 136.007 179.316 136.079 178.456 135.918C177.086 135.663 177.457 136.815 178.456 137.196C179.023 137.419 179.641 137.477 180.239 137.364C180.837 137.251 181.391 136.971 181.837 136.556Z" fill="#191919"/>
<path d="M194.395 129.63C194.275 129.741 194.198 129.89 194.177 130.052C194.157 130.214 194.194 130.377 194.283 130.514C194.371 130.651 194.506 130.752 194.662 130.799C194.818 130.847 194.986 130.837 195.135 130.772C195.363 130.663 195.611 130.603 195.863 130.594C196.115 130.586 196.366 130.629 196.601 130.723C196.835 130.817 197.048 130.958 197.225 131.137C197.402 131.317 197.54 131.532 197.63 131.768C198.544 133.688 197.112 138.614 196.26 139.51C195.154 140.67 193.766 139.718 193.517 139.654C193.663 138.423 193.742 137.184 193.755 135.944C193.766 135.081 192.644 134.909 192.605 135.789C192.374 140.953 191.157 146.877 186.271 149.689C184.091 150.714 181.678 151.146 179.278 150.941C176.878 150.736 174.574 149.9 172.6 148.519C168.945 145.449 169.057 140.298 168.03 137.824C167.792 137.248 167.052 137.412 167.007 138.052C166.943 139.097 167.051 140.146 167.327 141.157C166.392 141.372 165.411 141.237 164.569 140.777C163.727 140.318 163.083 139.565 162.759 138.663C162.081 137.11 161.698 132.639 163.242 132.494C163.932 132.43 164.156 131.38 163.388 131.224C159.459 130.424 159.338 139.661 163.79 142.299C164.38 142.653 165.037 142.883 165.719 142.975C166.401 143.066 167.095 143.017 167.758 142.83C168.293 145.402 169.564 147.764 171.415 149.628C171.023 154.446 170.335 159.231 169.504 163.994C169.461 164.175 169.491 164.365 169.587 164.524C169.683 164.683 169.837 164.799 170.016 164.846C170.196 164.894 170.387 164.87 170.548 164.779C170.71 164.688 170.831 164.538 170.884 164.36C171.932 159.93 172.681 155.435 173.126 150.905C175.246 152.031 177.6 152.647 180 152.703C182.4 152.76 184.781 152.257 186.952 151.233C188.608 150.146 190.017 148.723 191.089 147.058C192.161 145.393 192.872 143.521 193.176 141.564C195.542 142.625 197.661 141.438 198.577 138.823C201.714 129.784 196.529 127.761 194.395 129.63Z" fill="#191919"/>
<path d="M186.824 153.654C187.26 157.032 188.09 160.347 189.3 163.53C189.396 163.716 189.553 163.864 189.745 163.948C189.937 164.032 190.152 164.048 190.354 163.992C190.557 163.937 190.733 163.813 190.856 163.643C190.978 163.472 191.037 163.265 191.025 163.056C189.919 159.906 189.004 156.692 188.284 153.432C187.973 152.04 186.843 152.238 186.824 153.654Z" fill="#191919"/>
<path d="M107.939 163.223C107.878 165.371 107.73 167.508 107.739 169.62C107.739 170.204 108.898 170.451 109.174 169.62C109.364 169.043 109.924 162.861 109.457 162.109C109.251 161.776 107.997 161.158 107.939 163.223Z" fill="#191919"/>
<path d="M105.977 147.605C105.693 146.884 103.794 148.135 103.236 147.843C102.679 147.551 103.086 141.893 102.322 142.204C101.405 142.578 101.063 148.069 102.131 148.976C103.057 149.77 106.404 148.676 105.977 147.605Z" fill="#191919"/>
<path d="M107.268 152C111.454 150.894 112.757 149.523 112.443 147.432C112.27 146.261 110.88 145.759 110.862 147.777C110.849 149.34 108.861 149.989 106.823 150.829C106.089 151.188 105.888 152.366 107.268 152Z" fill="#191919"/>
<path d="M116.142 156.744C116.672 156.251 115.978 155.311 115.338 155.592C112.508 156.841 108.449 160.449 104.126 159.54C102.254 159.145 101.381 157.312 100.773 155.694C100.002 153.61 99.3916 151.471 98.9458 149.295C98.7871 148.545 97.5848 148.838 97.6469 149.578C97.9608 153.234 99.277 160.101 103.369 161.267C106.662 162.198 110.408 160.515 113.229 158.852C114.273 158.257 115.25 157.55 116.142 156.744Z" fill="#191919"/>
<path d="M96.2548 136.556C96.2358 135.589 96.2548 133.011 95.2767 133.029C94.1158 133.051 94.8282 137.032 94.9834 137.791C95.1387 138.55 96.3048 139.099 96.2548 136.556Z" fill="#191919"/>
<path d="M109.15 133.441C110.383 133.441 110.062 132.456 109.36 132.18C108.325 131.773 105.146 131.576 105.22 132.956C105.308 134.593 107.742 133.449 109.15 133.441Z" fill="#191919"/>
<path d="M97.8911 136.722C99.109 135.903 100.323 135.808 99.9197 134.683C99.454 133.386 97.1373 135.05 96.7216 135.999C96.4404 136.641 96.9062 137.383 97.8911 136.722Z" fill="#191919"/>
<path d="M261.898 155.327C259.897 155.017 260.152 156.557 263.085 156.799C264.073 156.88 264.334 155.957 264.273 155.181C263.823 149.471 262.548 150.696 262.666 151.731C262.803 152.914 262.846 154.106 262.793 155.296C262.766 155.519 262.126 155.362 261.898 155.327Z" fill="#191919"/>
<path d="M259.113 168.111C257.578 167.939 258.199 173.193 258.768 173.823C259.338 174.452 260.216 173.942 260.01 172.634C259.714 170.697 260.028 168.211 259.113 168.111Z" fill="#191919"/>
<path d="M259.204 158.571C258.687 158.079 256.962 158.336 255.859 155.619C254.94 153.346 252.613 156.083 255.704 158.552C257.66 160.103 260.141 159.471 259.204 158.571Z" fill="#191919"/>
<path d="M271.218 142.414C271.083 141.591 270.198 141.829 270.14 142.633C270.096 143.218 269.874 144.562 270.552 144.689C271.23 144.817 271.342 143.154 271.218 142.414Z" fill="#191919"/>
<path d="M248.84 160.454C251.071 163.369 256.927 168.103 260.831 167.288C265.269 166.364 268.391 158.865 268.845 154.869C268.957 153.871 268.057 153.953 267.858 154.794C267.044 158.244 264.2 164.836 260.684 165.632C256.953 166.479 252.459 161.712 249.817 159.519C249.686 159.429 249.528 159.386 249.37 159.399C249.211 159.412 249.062 159.479 248.947 159.588C248.832 159.698 248.759 159.844 248.74 160.002C248.72 160.16 248.756 160.32 248.84 160.454Z" fill="#191919"/>
<path d="M268.384 144.609C269.509 145.138 269.737 144.133 268.941 143.456C268.567 143.175 268.137 142.979 267.679 142.881C267.221 142.784 266.748 142.787 266.292 142.891C266.128 142.924 265.981 143.016 265.878 143.148C265.776 143.28 265.724 143.445 265.731 143.612C265.739 143.779 265.806 143.939 265.92 144.061C266.035 144.183 266.189 144.261 266.356 144.279C267.042 144.313 267.722 144.423 268.384 144.609Z" fill="#191919"/>
<path d="M259.986 143.237C261.228 143.572 261.815 142.174 260.709 141.619C259.997 141.262 256.276 141.37 256.616 142.771C256.812 143.584 259.017 142.976 259.986 143.237Z" fill="#191919"/>
<path d="M58.8304 187.102C59.1754 187.914 60.1293 187.411 59.8809 186.585C56.8242 176.457 50.6038 155.305 50.076 144.41C49.7369 142.644 50.0625 140.815 50.9902 139.275C52.9796 137.279 55.6188 136.063 58.4284 135.847C59.0494 135.847 59.077 134.764 58.4284 134.724C56.8292 134.617 55.2257 134.856 53.7274 135.425C52.2291 135.995 50.8713 136.88 49.7465 138.022C47.9749 139.842 48.3406 142.273 48.4942 144.712C49.16 155.407 55.7788 179.978 58.8304 187.102Z" fill="#191919"/>
<path d="M39.0541 135.725C38.6996 133.964 38.8387 132.14 39.4561 130.453C39.7683 129.109 38.6988 128.68 37.8932 129.73C37.3727 130.733 37.0814 131.838 37.0402 132.966C36.9991 134.095 37.2091 135.219 37.6552 136.256C38.3745 137.42 39.2473 137.032 39.0541 135.725Z" fill="#191919"/>
<path d="M34.3028 138.623C34.715 138.811 34.9928 138.623 35.079 138.193C35.3723 136.813 34.2545 135.447 35.2808 132.563C35.9312 130.733 34.3666 130.288 33.6542 131.65C32.6847 133.505 32.6709 137.873 34.3028 138.623Z" fill="#191919"/>
<path d="M47.5024 131.85C47.5576 126.203 47.5438 117.861 47.5024 111.225C47.4904 109.343 46.05 109.7 46.0034 111.326C45.8223 117.723 45.1909 125.754 45.8568 132.006C45.9534 132.911 47.4938 132.637 47.5024 131.85Z" fill="#191919"/>
<path d="M43.1131 134.812C43.1027 133.111 42.2126 130.681 43.3045 129.182C44.5362 127.493 42.2092 127.045 41.4778 128.863C40.8391 130.907 40.9617 133.112 41.8228 135.073C42.3127 135.808 43.1234 135.514 43.1131 134.812Z" fill="#191919"/>
<path d="M50.6629 212.57C54.0086 213.081 57.4076 213.142 60.7696 212.753C60.8802 212.761 60.9913 212.746 61.0955 212.708C61.1997 212.67 61.2945 212.61 61.3736 212.533C61.4527 212.455 61.5143 212.361 61.5541 212.258C61.594 212.154 61.6112 212.043 61.6046 211.933C61.598 211.822 61.5677 211.714 61.5159 211.616C61.4641 211.518 61.3918 211.432 61.3041 211.364C61.2163 211.297 61.115 211.249 61.0071 211.223C60.8991 211.198 60.787 211.196 60.6782 211.218C57.1179 211.498 53.5362 211.311 50.0246 210.66C40.0196 208.763 39.7281 204.221 37.6339 195.244C33.835 177.809 32.6819 159.901 34.2133 142.123C34.3219 141.208 32.9161 141.208 32.797 142.123C30.9358 156.352 32.1829 179.586 35.8399 195.425C38.4102 206.555 38.8345 210.672 50.6629 212.57Z" fill="#191919"/>
<path d="M124.545 240.698C122.525 251.783 113.836 250.886 104.176 251.089C88.5407 251.417 74.111 248.041 59.7263 247.964C56.6834 247.947 51.9896 249.344 47.0699 246.839C45.809 246.197 45.3449 247.084 46.6766 248.064C50.858 251.138 56.3366 249.418 60.33 249.627C75.6187 250.427 88.8322 253.437 105.154 253.035C115.206 252.789 124.107 253.667 126.218 241.045C126.259 240.929 126.275 240.805 126.265 240.682C126.254 240.559 126.218 240.44 126.157 240.332C126.097 240.225 126.014 240.132 125.914 240.059C125.815 239.986 125.701 239.936 125.58 239.911C125.459 239.886 125.334 239.887 125.214 239.915C125.094 239.942 124.981 239.995 124.883 240.07C124.785 240.144 124.704 240.239 124.645 240.348C124.587 240.457 124.553 240.577 124.545 240.7V240.698Z" fill="#191919"/>
<path d="M48.179 237.819C47.5925 237.593 46.7524 238.023 45.5915 237.217C43.8889 236.032 43.123 237.07 44.0286 238.131C44.9405 239.013 46.1602 239.504 47.4286 239.501C49.4037 239.501 49.1105 238.18 48.179 237.819Z" fill="#191919"/>
<path d="M56.5116 228.562C55.6654 227.503 55.0451 226.282 54.6891 224.975C54.333 223.667 54.2488 222.3 54.4416 220.958C54.54 220.156 53.3066 219.761 53.0254 220.584C52.6295 222.088 52.5728 223.662 52.8595 225.191C53.1462 226.72 53.7691 228.166 54.6831 229.425C57.5708 233.478 63.7584 232.58 68.4918 232.248C74.5689 231.822 96.8111 230.208 101.664 226.437C102.266 225.969 101.764 224.712 101.015 225.021C91.6999 228.783 82.0641 229.459 69.03 230.384C63.5496 230.779 58.7593 231.251 56.5116 228.562Z" fill="#191919"/>
<path d="M51.5767 230.6C44.4749 230.574 37.6491 229.787 30.7042 229.687C30.519 229.664 30.3322 229.716 30.185 229.831C30.0378 229.946 29.9422 230.114 29.9194 230.3C29.8965 230.485 29.9482 230.672 30.063 230.819C30.1778 230.966 30.3465 231.062 30.5317 231.084C34.9477 231.707 46.8433 232.502 51.7147 232.52C52.8826 232.53 52.7739 230.605 51.5767 230.6Z" fill="#191919"/>
<path d="M48.6727 244.353C50.1131 244.067 50.013 242.433 48.5813 242.58C47.7025 242.675 46.8148 242.517 46.0231 242.124C44.8898 241.557 44.2757 242.966 45.9041 243.896C46.742 244.376 47.7249 244.538 48.6727 244.353Z" fill="#191919"/>
<path d="M291.51 236.878C294.836 237.223 298.534 237.872 300.502 235.241C302.253 232.901 302.074 229.494 300.923 229.613C299.773 229.732 301.123 232.054 299.241 234.008C297.359 235.963 294.672 235.423 291.801 235.105C283.908 234.231 262.388 231.871 255.906 227.565C255.413 227.237 254.162 227.812 255.268 228.928C259.492 233.192 283.842 236.09 291.51 236.878Z" fill="#191919"/>
<path d="M309.809 244.636C308.988 244.919 308.74 245.942 306.501 246.118C304.536 246.271 305.048 247.81 306.958 247.634C307.707 247.644 308.442 247.429 309.068 247.017C309.694 246.605 310.181 246.015 310.468 245.322C310.501 245.229 310.507 245.129 310.486 245.033C310.465 244.936 310.418 244.848 310.35 244.776C310.282 244.705 310.195 244.655 310.099 244.63C310.004 244.605 309.904 244.607 309.809 244.636Z" fill="#191919"/>
<path d="M307.083 248.695C304.495 250.032 302.287 249.747 298.384 249.607C287.639 249.224 268.731 248.227 258.284 246.675C251.514 245.657 240.037 245.504 236.134 239.257C235.697 238.567 234.705 239.085 234.926 239.906C236.739 246.646 249.832 247.531 255.626 248.267C273.692 250.568 292.408 251.106 298.194 251.246C300.533 251.303 306.564 252.024 307.854 249.583C308.18 249.042 307.759 248.345 307.083 248.695Z" fill="#191919"/>
<path d="M310.899 241.31C310.167 242.224 308.568 242.345 307.745 242.535C306.74 242.766 306.872 243.867 307.845 244.006C308.626 244.107 309.42 243.99 310.138 243.667C310.856 243.344 311.47 242.829 311.913 242.178C312.634 240.953 311.932 240.015 310.899 241.31Z" fill="#191919"/>
<path d="M320.784 236.86C317.256 236.687 306.848 236.974 303.42 236.979C303.236 236.992 303.064 237.074 302.938 237.208C302.812 237.343 302.742 237.521 302.742 237.705C302.742 237.89 302.812 238.067 302.938 238.202C303.064 238.337 303.236 238.419 303.42 238.431C309.21 238.797 315.021 238.644 320.784 237.974C321.752 237.781 321.514 236.898 320.784 236.86Z" fill="#191919"/>
<path d="M300.148 147.815C299.934 146.58 300.206 145.31 300.907 144.271C301.008 144.165 301.077 144.032 301.104 143.889C301.131 143.745 301.116 143.596 301.059 143.461C301.003 143.326 300.908 143.21 300.787 143.128C300.666 143.046 300.523 143.001 300.377 142.999C298.091 143.127 298.63 147.569 298.723 147.829C299.049 148.757 300.148 148.775 300.148 147.815Z" fill="#191919"/>
<path d="M286.658 154.215C288.492 153.96 290.353 153.96 292.187 154.215C295.561 154.732 295.326 156.956 295.54 159.699C296.496 171.504 296.189 183.379 294.626 195.12C294.533 195.81 295.647 196.155 295.878 195.403C298.454 187.093 297.786 169.148 297.222 159.488C296.993 155.567 296.805 153.242 292.565 152.543C290.593 152.209 288.571 152.344 286.662 152.937C285.887 153.18 285.799 154.32 286.658 154.215Z" fill="#191919"/>
<path d="M297.131 149.359C296.708 144.577 295.532 134.869 294.543 129.384C294.414 128.671 293.217 128.469 293.31 129.858C293.491 132.601 295.219 146.92 295.713 149.506C295.748 149.681 295.846 149.836 295.99 149.942C296.133 150.048 296.311 150.096 296.489 150.078C296.666 150.06 296.83 149.976 296.949 149.843C297.068 149.71 297.132 149.537 297.131 149.359Z" fill="#191919"/>
<path d="M303.119 148.178C303.084 147.124 303.454 146.096 304.154 145.307C304.977 144.631 304.073 143.501 303.012 143.991C301.789 144.557 301.377 147.268 301.66 148.397C301.943 149.525 303.028 149.25 303.119 148.178Z" fill="#191919"/>
<path d="M305.626 149.525C305.697 148.895 305.89 147.605 306.54 147.56C307.191 147.515 307.217 151.01 307.389 153.563C308.395 168.505 311.793 183.29 311.548 198.487C311.281 214.937 304.02 212.268 292.613 209.455C292.506 209.425 292.395 209.417 292.286 209.432C292.176 209.446 292.071 209.483 291.976 209.539C291.88 209.595 291.798 209.669 291.732 209.758C291.666 209.847 291.619 209.948 291.593 210.055C291.567 210.162 291.563 210.274 291.582 210.383C291.6 210.492 291.64 210.596 291.699 210.689C291.758 210.782 291.835 210.863 291.926 210.925C292.017 210.988 292.12 211.032 292.228 211.054C301.39 213.344 311.188 216.893 312.973 203.431C314.989 188.235 309.745 168.962 308.852 153.471C308.707 150.958 308.621 147.334 307.71 146.499C306.427 145.324 304.384 146.069 304.474 149.176C304.495 149.89 305.543 150.247 305.626 149.525Z" fill="#191919"/>
<path d="M164.455 126.084C165.764 124.989 166.754 123.563 167.323 121.955C167.892 120.347 168.018 118.615 167.69 116.941C168.33 117.554 169.097 118.019 169.936 118.304C170.776 118.588 171.668 118.685 172.549 118.587C173.43 118.489 174.278 118.2 175.035 117.738C175.792 117.277 176.438 116.655 176.929 115.917C178.2 119.727 187.451 120.541 190.546 116.036C190.933 118.869 192.258 121.492 194.31 123.484C197.299 122.177 200.204 115.561 194.055 113.222C197.71 109.914 191.707 101.725 186.908 106.167C184.441 98.1973 170.552 99.6325 171.63 108.237C166.146 103.669 158.214 110.357 163.405 115.547C159.082 115.52 158.342 124 164.455 126.084Z" fill="#191919"/>
<path d="M113.407 127.666C114.251 130.297 115.838 132.628 117.977 134.378C119.162 135.32 119.329 135.428 120.445 134.378C122.793 132.166 125.363 136.888 123.871 141.278C123.384 142.711 122.957 143.443 121.604 143.808C120.252 144.174 120.847 146.13 122.776 145.48C123.633 152.869 124.967 160.196 126.769 167.413C126.778 167.517 126.808 167.617 126.857 167.709C126.907 167.8 126.974 167.88 127.056 167.944C127.138 168.008 127.232 168.055 127.332 168.082C127.433 168.108 127.537 168.113 127.64 168.098C127.743 168.082 127.841 168.045 127.929 167.99C128.017 167.935 128.092 167.862 128.151 167.777C128.21 167.691 128.25 167.594 128.27 167.492C128.29 167.39 128.289 167.285 128.266 167.184C127.593 162.614 126.32 157.498 125.772 152.004C133.312 138.99 130.186 123.108 119.639 117.699C109.093 112.289 89.9591 117.123 90.2334 126.353C90.5077 135.584 110.255 128.644 113.407 127.666Z" fill="#191919"/>
<path d="M225.483 161.679C224.679 166.493 227.135 165.89 229.676 160.535C236.692 145.762 229.426 133.342 241.382 128.35C242.469 125.892 244.273 123.818 246.557 122.401C240.069 111.435 224.681 109.9 220.247 123.544C215.312 138.723 228.251 145.083 225.483 161.679Z" fill="#191919"/>
<path d="M241.399 149.168C241.277 150.389 241.548 151.618 242.173 152.674C242.797 153.731 243.743 154.561 244.872 155.043C244.49 160.76 243.532 166.424 242.012 171.948C241.72 173.026 243.323 173.603 243.666 172.524C244.828 168.873 246.845 159.337 246.517 155.274C249.258 155.274 248.197 153.227 247.266 153.31C246.7 153.405 246.119 153.36 245.575 153.178C245.03 152.996 244.539 152.684 244.144 152.267C243.748 151.851 243.461 151.344 243.308 150.791C243.155 150.238 243.14 149.656 243.264 149.096C243.54 146.839 245.769 145.44 247.366 147.269C247.806 147.771 248.637 147.122 249.131 146.739C248.216 144.911 245.486 139.558 249.821 140.222C251.107 140.431 252.375 140.737 253.616 141.136C254.138 140.142 254.543 139.09 254.823 138.002C260.435 140.853 270.101 141.847 271.802 140.122C274.526 137.362 273.508 125.115 257.254 122.631C243.607 120.53 235.369 136.686 241.399 149.168Z" fill="#191919"/>
<path d="M166.878 128.131C166.016 128.131 164.393 127.971 163.653 127.967C162.3 127.967 162.475 129.492 163.589 129.63C164.357 129.723 165.471 129.785 166.238 129.868C165.96 131.411 166.306 133.001 167.199 134.289C168.093 135.578 169.462 136.458 171.005 136.737C172.129 136.966 173.294 136.874 174.368 136.472C175.442 136.069 176.381 135.372 177.077 134.461C177.774 133.55 178.199 132.46 178.305 131.318C178.411 130.176 178.194 129.028 177.677 128.003C178.213 127.645 178.837 127.44 179.481 127.409C180.125 127.379 180.765 127.525 181.332 127.831C179.878 132.118 183.306 135.273 187.473 135.005C190.314 134.824 193.587 133.28 192.955 128.307C193.756 128.305 194.555 128.253 195.35 128.152C195.566 128.123 195.762 128.011 195.898 127.841C196.034 127.67 196.099 127.454 196.078 127.236C196.058 127.019 195.955 126.818 195.79 126.675C195.626 126.533 195.412 126.459 195.194 126.47C194.28 126.47 193.431 126.598 192.545 126.661C190.871 122.77 184.941 122.377 182.127 126.342C181.317 125.911 180.405 125.709 179.489 125.757C178.573 125.806 177.687 126.103 176.927 126.617C174.353 123.251 168.943 124.302 166.878 128.131ZM188.717 130.351C188.344 131.367 187.275 134.091 186.176 133.404C185.257 132.828 186.816 130.455 187.346 129.749C188.246 128.54 189.041 129.447 188.717 130.351ZM184.634 128.512C185.036 127.772 186.014 125.721 186.745 125.48C187.158 125.345 188.125 125.58 187.156 127.377C186.665 128.489 186.016 129.523 185.229 130.448C184.948 130.582 183.426 130.743 184.634 128.512ZM174.948 131.2C174.677 132.077 174.204 132.878 173.568 133.539C172.8 134.453 171.914 133.941 172.252 132.918C172.658 131.965 173.21 131.08 173.887 130.296C174.101 130.044 175.336 129.892 174.948 131.202V131.2ZM169.601 131.072C170.183 129.555 171.02 128.149 172.076 126.913C172.593 126.679 173.628 127.096 172.807 128.44C172.169 129.647 171.471 130.822 170.715 131.959C170.049 132.773 169.052 132.307 169.602 131.074L169.601 131.072Z" fill="#191919"/>
<path d="M116.333 134.236C115.867 133.641 112.678 133.741 111.872 133.907C109.397 134.424 95.0519 138.892 92.9284 140.405C92.0159 141.055 93.2199 144.89 94.5378 146.984C95.6142 148.694 96.5388 148.628 98.4484 148.081C100.806 147.403 101.036 146.472 101.045 144.179C101.055 142.351 101.045 140.596 100.917 138.942C100.917 138.651 101.64 138.366 101.738 138.632C102.321 140.226 102.995 141.785 103.758 143.301C105.271 146.273 107.139 145.768 109.506 145.199C112.704 144.421 113.356 143.372 113.546 140.529C113.654 138.841 113.58 137.147 113.327 135.475C114.017 135.475 115.812 135.547 116.297 135.118C116.408 135 116.473 134.846 116.479 134.684C116.486 134.522 116.434 134.363 116.333 134.236ZM95.0226 142.223C95.3295 141.569 95.7159 140.955 96.1731 140.395C96.9356 139.468 97.6842 140.234 97.1512 141.126C96.803 141.694 96.4121 142.235 95.9816 142.744C95.4969 143.329 94.6396 143.032 95.0226 142.223ZM99.5179 141.638C98.7865 143.236 97.9723 144.795 97.0788 146.308C96.4267 147.372 95.5262 146.837 95.8988 145.806C96.6895 144.029 97.641 142.328 98.7417 140.724C99.097 140.295 99.9854 140.657 99.5179 141.638ZM105.248 139.956C105.6 138.826 106.182 137.781 106.956 136.886C107.513 136.127 108.695 136.439 107.991 137.654C107.572 138.385 106.703 140.02 106.309 140.569C105.916 141.117 105.019 140.99 105.248 139.956ZM110.596 138.257C109.872 140.075 108.981 141.822 107.936 143.475C107.591 144.038 106.42 144.141 106.739 142.999C107.481 141.183 108.432 139.46 109.573 137.864C109.975 137.31 110.905 137.233 110.603 138.257H110.596Z" fill="#191919"/>
<path d="M261.133 146.956C259.421 145.091 257.194 143.775 254.735 143.175C248.537 140.932 248.257 141.41 250.522 146.118C251.893 148.968 254.352 153.108 257.752 153.428C258.393 153.524 259.049 153.452 259.655 153.22C260.261 152.988 260.796 152.603 261.21 152.103C261.623 151.603 261.901 151.004 262.015 150.366C262.129 149.727 262.077 149.069 261.862 148.457C262.655 148.216 263.507 148.251 264.277 148.557C262.614 152.742 268.704 158.472 275.573 146.73C276.219 145.623 275.783 145.316 275.098 145.167C273.013 144.715 267.412 144.985 265.292 146.994C264.641 146.691 263.934 146.531 263.216 146.524C262.499 146.517 261.788 146.665 261.133 146.956ZM255.366 148.172C254.226 147.482 256.463 144.807 257.348 145.723C257.986 146.382 256.227 148.695 255.366 148.177V148.172ZM259.021 148.674C258.506 149.61 257.791 150.42 256.929 151.05C256.801 151.117 256.655 151.142 256.512 151.12C256.37 151.099 256.238 151.032 256.135 150.93C256.033 150.828 255.966 150.696 255.945 150.554C255.923 150.411 255.947 150.265 256.014 150.137C256.497 149.212 257.174 148.401 257.998 147.76C258.857 147.211 259.478 147.869 259.021 148.674ZM271.12 148.519C270.535 149.751 269.78 150.896 268.878 151.919C268.202 152.609 267.213 152.193 267.772 151.141C268.38 149.942 269.115 148.812 269.965 147.77C270.672 146.941 271.602 147.487 271.12 148.522V148.519ZM268.616 146.773C269.411 147.688 267.581 149.852 266.697 149.159C265.814 148.466 267.895 145.978 268.616 146.81V146.773Z" fill="#191919"/>
<path d="M142.124 216.078C150.807 213.619 158.892 210.94 167.866 208.933C177.609 206.755 198.029 204.578 204.731 214.343C205.407 215.33 206.656 214.29 205.992 213.308C201.74 206.97 190.784 205.083 183.739 205.083C174.09 205.083 154.759 209.584 141.556 214.835C140.59 215.211 141.137 216.358 142.124 216.078Z" fill="#191919"/>
<path d="M205.254 219.04C207.511 218.921 210.371 218.783 214.447 218.913C214.608 218.898 214.761 218.833 214.882 218.726C215.004 218.619 215.088 218.476 215.123 218.318C215.157 218.16 215.141 217.994 215.075 217.846C215.009 217.698 214.898 217.575 214.757 217.495C213.122 216.691 207.105 216.977 205.072 217.852C204.397 218.14 204.44 219.075 205.254 219.04Z" fill="#191919"/>
<path d="M238.991 221.425C238.987 221.316 238.96 221.21 238.912 221.113C238.863 221.015 238.796 220.929 238.712 220.86C238.629 220.791 238.532 220.74 238.427 220.71C238.323 220.681 238.214 220.674 238.106 220.689C237.999 220.705 237.896 220.743 237.804 220.801C237.713 220.858 237.634 220.935 237.574 221.025C237.513 221.115 237.472 221.217 237.454 221.324C237.435 221.431 237.44 221.54 237.466 221.645C238.224 226.631 237.014 231.717 234.094 235.828C228.143 244.108 218.224 243.009 209.283 242.038C196.708 240.658 182.839 238.21 172.437 236.427C171.523 236.27 171.164 237.35 172.063 237.615C178.851 239.62 202.219 242.944 208.99 243.682C219.043 244.781 229.959 245.58 236.072 235.92C238.766 231.6 239.803 226.45 238.991 221.425Z" fill="#191919"/>
<path d="M202.513 215.732C185.068 219.896 170.525 237.203 152.381 240.917C143.504 242.735 130.736 242.107 125.678 233.196C123.896 229.731 122.903 225.914 122.772 222.02C122.743 221.839 122.651 221.675 122.512 221.556C122.373 221.437 122.196 221.372 122.013 221.372C121.831 221.372 121.654 221.437 121.515 221.556C121.376 221.675 121.284 221.839 121.255 222.02C121.009 228.618 123.431 235.618 128.995 239.473C134.205 243.083 140.875 243.958 147.034 243.541C168.582 242.078 183.124 223.042 202.862 216.976C203.997 216.624 203.665 215.452 202.513 215.732Z" fill="#191919"/>
</svg>
