<svg width="315" height="316" viewBox="0 0 315 316" fill="none" xmlns="http://www.w3.org/2000/svg">
<path d="M182.16 80.6804C181.605 80.9828 180.933 82.1136 180.487 82.909C178.682 86.1283 176.679 89.2783 174.275 91.9841C169.975 96.1784 165.49 98.8055 159.867 96.6918C152.408 93.8867 148.415 81.7246 146.454 74.0433C145.167 69.0033 144.602 65.2879 144.432 64.5398C144.193 63.4845 143.222 58.8824 142.786 57.8822C142.545 57.3278 142.219 57.0191 141.953 57.4003C141.594 57.9137 141.529 59.2572 141.54 60.1943C141.584 63.9854 142.014 67.874 142.876 71.6871C145.252 82.2097 150.321 98.555 161.009 100.086C166.632 100.892 172.758 98.8039 176.616 93.8726C178.301 92.0188 179.687 89.5807 180.432 88.16C181.481 86.1614 183.736 79.8204 182.16 80.6804Z" fill="#191919"/>
<path d="M184.635 53.7008C186.222 47.1378 185.17 35.8955 182.159 32.0225C177.854 26.488 169.861 30.7925 169.861 30.7925C169.861 30.7925 162.789 20.0321 151.876 30.0239C151.876 30.0239 134.66 26.0265 131.431 30.6381C128.202 35.2497 133.43 38.3241 133.43 38.3241C111.199 34.5063 110.715 75.3161 167.094 44.1658C167.094 44.1658 174.804 58.0116 180.455 58.6007C179.91 59.9252 179.291 63.5351 180.634 63.0863C181.904 62.6815 183.63 56.8918 186.23 56.276C189.226 55.4853 191.631 59.9457 189.149 64.1872C187.936 66.2599 186.287 67.3766 184.345 68.6759C184.044 68.7783 184.05 68.9579 183.819 70.0982C183.617 71.0951 183.217 73.9601 183.556 74.8688C183.672 75.1823 183.926 75.4059 184.255 75.3098C184.698 75.1807 185.046 74.6184 185.249 74.2136C186.414 71.8968 186.615 70.5234 186.676 70.6809C187.501 70.3061 189.509 68.7972 190.752 67.2033C196.657 59.6748 190.791 50.9162 184.635 53.7008Z" fill="#191919"/>
<path d="M159.76 78.0517C156.171 75.0088 158.081 67.8189 156.478 66.7527C156.042 66.4613 155.323 66.5117 154.958 67.0629C154.495 67.7591 154.276 68.5072 154.285 69.2585C154.33 72.4274 154.555 77.0358 156.823 79.2267C158.828 81.1608 161.57 79.5873 159.76 78.0533V78.0517Z" fill="#191919"/>
<path d="M175.57 78.9198C174.203 76.7148 171.211 74.9571 170.277 74.9287C168.944 75.0216 168.546 75.8989 168.272 77.3243C167.974 78.9276 167.09 80.4444 166.049 81.6996C164.895 83.0148 164.4 83.1612 163.493 84.1881C163.279 84.4244 162.776 84.9756 162.68 85.256C161.921 87.5382 168.664 86.3553 171.026 78.6489C173.214 80.0112 173.576 81.3878 173.398 82.7423C173.301 83.5235 173 84.0968 172.48 86.1569C172.236 87.1932 173.108 87.6862 174.068 86.9412C176.747 84.889 177.103 81.2996 175.57 78.9198Z" fill="#191919"/>
<path d="M161.87 52.9342C160.619 53.6854 157.908 56.8339 157.817 57.1945C157.56 58.212 158.606 58.9885 159.258 58.9806C159.809 58.9727 160.184 58.8168 160.422 58.5427C163.407 55.1092 163.859 55.5471 164.026 54.7375C164.415 52.8601 162.955 52.1971 161.87 52.9342Z" fill="#191919"/>
<path d="M146.414 59.9333C146.484 59.938 147.585 60.105 148.799 60.4625C151.278 61.1886 151.32 61.4327 152.056 60.9586C152.933 60.3932 152.894 58.7269 151.796 58.3189C150.601 57.8748 147.123 56.577 145.937 57.0463C144.315 57.6874 145.661 59.8735 146.414 59.9333Z" fill="#191919"/>
<path d="M165.223 64.5499C164.344 61.9653 162.002 61.633 161.583 63.7278C161.225 65.5311 162.537 67.9236 164.015 67.9236C165.412 67.9236 165.733 66.054 165.221 64.5515L165.223 64.5499Z" fill="#191919"/>
<path d="M151.558 67.2365C151.019 65.6536 149.838 64.6677 148.868 64.9969C146.757 65.7151 148.211 70.7173 150.394 70.7173C151.82 70.7173 152.078 68.7643 151.558 67.2365Z" fill="#191919"/>
<path d="M187.475 72.8045C187.388 74.7449 194.612 81.078 194.712 81.2371C194.792 81.3631 194.822 81.4985 194.809 81.6371C194.398 83.9886 194.123 85.5746 193.141 88.0915C190.861 93.9332 186.422 98.2991 182.157 99.9764C177.966 101.624 173.295 100.09 173.065 100.058C171.748 99.8867 172.252 101.249 173.441 102.037C175.695 103.528 178.629 103.832 181.132 103.367C189.415 101.093 194.735 94.1521 197.025 85.8739C197.396 84.5351 197.578 83.3555 197.747 82.4546C198.021 80.9819 197.695 79.7771 196.491 78.7328C195.033 77.4681 187.577 70.5586 187.478 72.8045H187.475Z" fill="#191919"/>
<path d="M102.431 56.726C102.669 57.0536 103.247 57.0977 103.559 57.0047C104.933 56.7023 105.991 55.8676 106.823 54.9494C107.712 53.9681 109.182 51.8561 109.99 50.1771C111.05 47.9721 111.401 46.8224 110.834 44.8489C110.324 43.0754 107.738 37.1629 105.95 36.7565C105.394 36.6305 104.83 37.1046 104.988 38.0717C105.342 40.2562 106.119 41.2563 107.026 43.2566C107.306 43.874 108.232 45.9845 108.094 46.6475C107.815 48.8415 104.884 52.6971 103.386 54.3729C102.754 55.2612 101.951 56.0629 102.431 56.726Z" fill="#191919"/>
<path d="M108.541 54.8242C108.779 55.1518 109.357 55.1959 109.669 55.1029C111.042 54.8005 112.099 53.9658 112.932 53.046C113.823 52.0632 115.29 49.9558 116.099 48.2737C117.159 46.0687 117.51 44.919 116.943 42.9455C116.435 41.1799 113.85 35.2595 112.059 34.8532C111.503 34.7272 110.94 35.2028 111.097 36.1699C111.45 38.3512 112.229 39.3577 113.135 41.3548C113.414 41.969 114.34 44.0842 114.203 44.7457C113.926 46.9397 110.992 50.7969 109.495 52.4711C108.864 53.3578 108.06 54.1627 108.541 54.8242Z" fill="#191919"/>
<path d="M69.9627 104.176C68.016 102.412 57.6603 100.089 63.0941 83.016C68.8113 65.0563 81.027 46.8524 82.7532 42.896C83.0856 42.1369 84.8448 40.7729 85.5441 40.2563C89.3257 37.4623 94.2602 34.6367 97.8417 32.9767C100.554 31.7198 102.211 31.1056 104.98 31.6474C107.204 32.0821 108.774 32.9389 109.769 33.3043C113.63 34.7265 106.581 27.2563 99.7128 29.2723C94.7532 30.7276 87.735 34.9218 83.5911 38.0104C82.3044 38.9695 80.6805 40.2847 80.008 41.7416C78.5023 45.0018 59.6795 74.5 58.5234 90.1791C58.6731 105.51 71.4589 105.532 69.9627 104.178V104.176Z" fill="#191919"/>
<path d="M142.028 75.1581C141.73 74.81 141.056 74.7375 140.587 74.7249C138.686 74.6714 136.767 75.0147 134.934 75.6117C128.365 77.7489 121.205 81.8802 115.462 87.8305C115.138 88.1676 113.723 86.9879 110.969 86.6587C110.477 86.6004 109.386 86.5044 108.915 86.6666C108.584 86.7816 108.37 87.043 108.477 87.3706C108.619 87.8053 109.159 88.1565 109.55 88.377C110.446 88.8795 113.701 90.6183 114.801 90.8073C117.801 91.0861 117.032 89.2465 124.361 84.2112C128.502 81.3667 133.225 79.4358 133.926 79.2011C134.876 78.7207 140.999 76.8827 141.9 75.9834C142.14 75.744 142.25 75.4179 142.028 75.1581Z" fill="#60A600"/>
<path d="M115.324 128.93C116.482 128.242 116.528 123.076 116.485 121.643C116.469 121.12 116.035 114.248 114.762 107.422C113.491 100.596 111.36 93.9038 111.023 93.1683C110.486 91.9965 109.062 89.0686 108.294 90.1034C108.016 90.4766 108.053 91.1633 108.112 91.6343C108.357 93.5384 108.761 95.4284 109.303 97.2806C114.231 114.133 113.031 126.248 114.54 128.636C114.727 128.932 115.027 129.107 115.324 128.93Z" fill="#60A600"/>
<path d="M137.362 124.387C137.57 123.223 137.581 122.073 137.408 120.948C136.477 114.911 135.853 104.346 135.838 104.268C135.641 103.28 135.197 101.73 134.249 102.085C133.214 102.47 133.014 105.287 133.061 106.397C133.22 110.152 133.915 120.444 134.897 123.386C135.809 126.113 137.123 125.724 137.362 124.387Z" fill="#60A600"/>
<path d="M246.038 89.7543C246.101 88.6219 242.962 85.3805 242.029 84.645C239.714 82.8243 240.221 82.944 236.569 80.8272C231.299 77.7733 224.807 75.3147 218.902 73.8216C212.925 72.3096 200.889 70.2968 195.25 70.7661C194.557 70.8244 192.882 70.9992 192.242 71.2685C191.796 71.456 191.559 71.7584 191.83 72.0545C193.564 73.9508 210.802 72.9128 228.727 80.2823C239.089 84.5426 245.92 91.8995 246.039 89.7543H246.038Z" fill="#60A600"/>
<path d="M105.968 87.1301C105.818 86.6261 104.972 86.0354 104.337 85.7283C99.7447 83.391 93.8936 83.1721 88.7008 83.2729C88.6599 83.1138 88.6945 80.2568 88.7008 80.0993C88.9843 73.2402 90.2805 65.7967 93.7502 56.0774C94.1582 56.5908 94.3424 56.8444 95.1614 57.2728C97.3633 58.4226 100.501 56.6444 102.051 54.704C103.846 52.4801 104.139 49.8026 103.581 46.9991C103.637 46.8006 102.836 44.4429 102.263 43.6333C101.989 43.1592 101.076 42.2079 100.63 42.0914C100.099 41.9512 99.5132 42.4174 99.6171 43.375C99.8109 44.9264 100.161 46.0226 100.535 47.2196C100.606 47.7598 101.471 50.6988 99.6628 52.8849C98.6926 54.0756 96.9995 54.8536 96.5207 54.6394C95.971 54.4945 95.6277 53.7417 94.9063 52.8329C95.1504 52.0785 95.9994 49.401 96.0309 48.6087C96.045 48.152 95.8923 47.8023 95.508 47.8968C94.9898 48.0291 94.3834 48.8166 94.007 49.3931C92.4887 51.7257 91.2602 54.3102 90.3215 56.9988C85.0909 72.0022 85.6374 80.2064 85.6374 89.5666C85.6374 93.0584 88.674 92.0472 88.674 90.1084C88.674 89.9729 88.6662 88.0625 88.6347 86.2906C90.7436 86.2985 93.0289 86.2874 95.8623 86.5142C102.403 86.9852 106.366 88.4357 105.968 87.1316V87.1301Z" fill="#191919"/>
<path d="M223.097 134.39L210.169 110.687C209.465 109.395 208.719 108.71 208.21 108.89L198.874 112.169C198.365 112.347 198.173 113.363 198.368 114.832L201.959 141.815C202.154 143.284 202.709 144.985 203.413 146.275L216.34 169.98C217.044 171.271 217.791 171.956 218.3 171.777L227.636 168.498C228.145 168.32 228.337 167.304 228.142 165.834L224.551 138.851C224.355 137.381 223.801 135.68 223.097 134.39Z" fill="#60A600"/>
<path d="M167.508 287.912H214.29C215.856 287.912 217.234 286.881 217.675 285.38L226.211 256.351C226.814 254.299 225.471 252.187 223.356 251.867C217.202 250.938 204.534 249.361 189.744 249.422L178.257 265.221L167.508 287.912Z" fill="#60A600"/>
<path d="M151.437 159.963C150.633 159.854 149.817 160.972 149.618 162.459C149.42 163.946 149.91 165.239 150.715 165.346C151.519 165.455 152.335 164.336 152.534 162.85C152.734 161.363 152.242 160.07 151.437 159.963Z" fill="#191919"/>
<path d="M136.993 156.995C136.188 156.887 135.372 158.005 135.174 159.492C134.973 160.978 135.465 162.271 136.27 162.379C137.075 162.487 137.89 161.369 138.089 159.882C138.289 158.395 137.797 157.102 136.993 156.995Z" fill="#191919"/>
<path d="M154.269 152.404C154.161 152.41 152.757 152.593 151.512 153.073C149.455 153.867 148.88 154.27 148.833 155.08C148.788 155.869 150.04 157.078 150.931 156.598C151.75 156.157 153.305 155.555 154.231 155.465C156.48 154.799 155.87 152.317 154.269 152.404Z" fill="#191919"/>
<path d="M143.336 152.268C143.279 152.177 142.441 151.035 141.421 150.177C140.4 149.318 139.263 148.652 139.093 148.638C137.694 148.525 137.096 150.75 138.052 151.367C138.831 151.87 140.112 152.947 140.635 153.713C142.303 155.37 144.185 153.628 143.336 152.268Z" fill="#191919"/>
<path d="M144.04 168.891C142.781 168.179 140.975 168.04 141.221 168.07C141.244 167.796 141.775 166.484 141.877 166.229C143.909 161.155 144.367 161.081 144.163 159.636C144.06 158.918 143.175 158.57 142.51 159.044C141.794 159.556 141.276 160.192 140.945 160.92C139.091 165.005 138.367 166.536 138.039 168.499C138.072 170.233 139.291 170.595 140.386 170.995C140.672 171.101 142.344 171.277 143.035 171.129C145.191 170.664 144.801 169.324 144.038 168.893L144.04 168.891Z" fill="#191919"/>
<path d="M148.539 176.135C147.163 178.159 143.068 178.299 142.91 178.346C142.271 178.593 141.852 179.047 141.825 179.763C141.79 180.708 142.957 181.241 143.778 181.209C147.637 181.064 150.766 178.746 151.248 177.403C151.377 177.045 151.421 176.447 151.24 176.155C150.662 175.229 149.223 175.442 148.539 176.135Z" fill="#191919"/>
<path d="M47.2588 129.243C47.2934 129.652 47.5108 129.895 47.6698 130.023C48.314 130.541 49.0102 130.827 49.7347 130.928C60.4242 132.42 60.3675 132.283 60.9235 132.108C61.1377 132.04 61.5739 131.878 61.744 131.665C62.0638 131.267 62.0575 130.538 61.5456 130.125C60.3076 129.128 60.1706 129.323 50.9915 128.036C49.489 127.825 47.1328 127.726 47.2588 129.243Z" fill="#191919"/>
<path d="M278.457 168.378C277.948 160.989 276.482 149.907 274.381 142.702C273.114 138.358 273.718 139.961 271.955 135.647C271.502 134.539 271.034 133.428 270.582 132.508C269.878 131.077 269.293 130.319 269.334 131.33C269.39 132.685 270.443 136.115 271.127 138.534C273.776 147.913 276.702 169.567 275.817 193.943C275.645 198.877 274.574 217.044 273.532 220.282C272.629 223.132 270.517 225.393 267.873 226.514C267.021 226.89 266.74 226.944 254.967 230.338C241.326 234.271 209.177 243.976 196.087 243.636C192.55 243.543 192.641 243.707 188.767 248.421C184.51 253.609 181.892 257.416 178.937 262.352C176.638 259.121 173.76 255.118 172.006 250.119C167.004 236.977 169.475 222.627 176.956 210.721C178.503 208.208 178.981 207.995 178.895 206.696C187.731 207.097 201.225 206.025 208.861 208.154L211.349 208.819L212.869 208.083C222.105 203.484 232.59 201.415 242.679 203.139C243.262 203.239 244.243 203.453 245.168 203.373C248.047 203.177 250.502 201.111 251.167 198.501C254.021 187.319 255.471 169.844 253.449 157.992C252.479 152.243 250.92 147.819 250.252 146.551C249.787 145.642 249.341 145.189 249.228 145.858C248.732 149.074 254.613 164.711 249.143 193.658C248.337 197.521 248.359 197.556 248.133 198.114C247.606 199.304 246.609 200.057 245.472 200.309C243.122 200.78 230.829 195.973 211.042 205.601C202.731 203.373 193.853 203.568 185.204 204.173C178.37 204.697 181.293 204.807 171.702 203.418C169.605 203.166 164.832 202.669 162.731 202.687C162.841 199.498 163.042 196.427 163.668 192.187C165.211 195.069 169.312 198.068 173.237 199.093C189.718 203.395 202.649 188.112 196.299 177.541C194.1 173.846 189.509 173.815 187.049 171.455C183.034 167.59 195.722 153.113 196.877 139.916C198.053 127.851 189.597 117.974 179.778 117.475C171.732 116.862 163.998 122.025 162.516 126.646C157.198 124.922 151.125 125.144 145.779 126.731C140.15 128.404 137.663 127.588 132.643 128.818C125.668 130.341 121.488 137.296 121.933 142.281C122.173 145.056 123.049 146.91 124.753 148.962C125.644 149.974 127.144 151.367 128.229 151.834C128.856 152.109 129.327 152.062 129.193 151.597C128.695 149.813 121.896 144.483 126.249 136.95C130.131 130.233 137.11 131.59 144.226 130.25C145.884 129.938 148.715 128.771 152.322 128.563C158.231 128.125 160.491 129.259 162.266 129.711C171.013 133.721 171.787 139.634 173.39 147.375C174.121 151.542 175.26 148.944 175.101 144.51C174.83 137.005 171.535 130.659 164.72 127.505C166.523 123.855 169.35 121.359 175.631 120.431C187.25 118.568 197.017 130.086 193.16 143.886C190.088 155.513 180.243 166.952 184.099 172.619C186.609 176.308 191.879 176.21 193.69 179.083C195.53 182.025 195.216 185.534 193.492 188.626C189.301 196.318 178.811 198.492 172.294 195.981C168.407 194.827 165.829 192.228 164.26 188.809C165.054 184.569 165.865 181.515 166.676 179.185C166.881 179.17 168.196 179.061 168.561 178.94C178.373 175.949 178.57 165.174 175.702 161.569C174.614 160.2 172.766 159.073 171.092 159.488C169.158 159.956 168.879 161.027 166.589 160.536C166.747 160.636 164.942 160.232 164.88 150.104C164.855 141.648 165.851 140.372 164.328 139.438C162.453 138.293 162.006 140.794 150.715 142.138C141.218 143.092 131.654 141.858 130.042 141.776C122.047 141.376 145.16 148.873 162.175 142.566C161.875 147.917 160.889 162.33 165.887 163.434C167.508 163.791 168.931 163.73 170.517 162.95C171.747 162.339 171.825 162.207 172.51 162.668C175.801 164.295 175.384 175.286 166.074 176.226C165.142 176.246 164.269 176.84 164.027 177.727C162.978 180.307 161.886 185.049 161.352 187.783C159.965 195.077 159.653 200.585 159.61 207.307L159.588 207.329C159.579 207.343 159.581 207.357 159.592 207.378C159.511 207.68 158.96 208.353 158.322 208.85C156.456 210.381 153.43 211.911 151.334 212.733C143.109 215.834 130.99 214.007 131.44 205.229C131.514 203.401 132.924 202.709 134.691 200.939C136.819 198.821 139.777 194.882 140.715 192.54C143.546 193.157 147.31 192.782 149.6 192.028C151.547 191.398 154.035 190.007 154.742 189.108C155.075 188.695 155.142 188.309 154.734 188.204C153.09 187.816 143.93 192.73 136.077 187.341C133.37 185.229 131.522 183.704 130.867 176.796C130.046 167.373 132.36 155.595 132.546 153.921C132.664 152.966 133.072 149.252 132.929 148.301C132.853 147.8 132.628 147.465 132.268 147.679C131.788 147.967 131.346 148.981 131.087 149.704C130.037 152.629 129.289 155.73 128.824 158.885C127.836 166.617 126.046 181.118 131.198 187.007C131.958 187.782 132.623 188.49 133.38 189.076C135.601 190.796 137.658 191.681 138.885 192.072C137.704 193.691 136.222 196.488 133.803 198.739C131.714 198.062 127.14 197.695 122.79 197.145C121.738 197.011 120.486 197.107 119.336 197.507C113.392 193.86 90.3484 187.704 67.5251 188.805C66.81 168.433 65.9625 131.176 63.9544 134.817C62.1117 138.158 64.1749 177.722 64.5104 188.783C64.5718 190.798 66.1169 191.903 67.6116 191.812C72.5445 191.581 77.4381 191.662 82.1616 191.982C102.419 193.617 100.642 195.617 116.381 199.196C108.612 204.546 99.915 213.901 93.5567 226.155C89.0821 223.83 73.7525 219.096 71.4892 218.315L46.0263 209.55C42.0825 208.208 39.5876 205.373 38.6016 202.037C35.6469 191.949 48.9149 127.816 45.5775 132.264C43.1173 135.547 36.4344 174.63 35.1603 197.775C34.8059 204.22 38.4788 209.983 44.437 212.194C57.8655 216.842 85.7776 226.643 92.6682 227.9C89.7907 233.742 87.5731 239.738 86.2218 244.734C85.5776 246.666 83.9177 254.48 83.8878 254.655C82.4545 264.338 82.5851 262.799 82.1472 271.997C82.0953 273.635 82.4591 280.231 82.8024 281.784C82.9836 282.608 83.2782 283.071 83.5806 282.56C85.6187 279.113 83.0497 251.013 97.0515 225.979C101.351 218.291 106.379 211.381 113.027 205.603C114.903 203.969 118.642 200.916 120.119 200.254C120.982 199.879 121.727 199.819 122.387 199.867C125.471 200.008 128.865 200.553 131.461 200.656C130.424 201.464 129.486 202.442 129.076 203.697C128.161 206.338 129.181 211.167 132.439 213.873C135.804 216.735 140.616 217.341 145.012 217.062C150.329 216.659 153.153 215.532 157.453 213.114C163.17 209.669 162.612 208.277 162.674 204.647C164.97 205.089 169.054 205.587 170.415 205.869C171.349 206.056 175.006 206.762 175.905 206.929C175.926 206.946 175.905 206.968 175.905 206.968C175.817 207.126 175.891 206.962 175.116 208.121C166.551 220.951 163.294 236.504 169.333 251.58C171.031 255.818 170.294 254.248 172.647 258.405C173.863 260.551 172.503 258.513 176.841 264.651C175.266 267.977 163.701 292.075 166.662 290.136C168.761 288.761 176.413 272.65 177.479 270.397C180.033 264.999 179.89 264.169 187.096 254.987C188.687 252.961 190.32 250.96 192.019 249.01C195.837 244.634 191.84 247.715 204.199 246.041C217.704 244.293 242.655 237.03 256.583 233.006C267.676 229.801 269.706 229.535 272.265 227.335C274.582 225.435 276.178 222.704 276.738 219.926C277.797 214.612 280.011 188.823 278.449 168.39L278.457 168.378ZM166.679 179.179C166.723 179.025 166.725 179.05 166.679 179.179V179.179Z" fill="#191919"/>
<path d="M229.555 140.406L278.286 124.665L275.874 117.203L262.002 121.684C262.304 122.436 262.7 123.545 262.887 124.577C263.21 126.365 242.486 134.567 238.076 134.394C236.762 134.342 235.745 132.693 234.991 130.409L227.579 132.803L215.782 108.591C215.142 107.279 214.514 106.556 214.133 106.693L207.135 109.216C206.754 109.353 206.678 110.331 206.937 111.78L211.681 138.39C212.254 141.606 212.331 141.212 224.873 166.938C225.512 168.25 226.141 168.973 226.522 168.836L233.52 166.313C233.901 166.176 233.976 165.198 233.718 163.749L229.555 140.406Z" fill="#191919"/>
<path d="M306.164 121.203L300.51 103.697C299.418 100.315 295.791 98.46 292.409 99.5515C290.351 100.216 288.262 100.663 286.909 103.316L282.438 89.4715C281.347 86.09 277.719 84.2346 274.338 85.3261L272.591 85.8899C269.21 86.983 267.354 90.6086 268.446 93.9901L285.837 147.828C286.93 151.21 290.556 153.065 293.937 151.974L295.684 151.41C299.065 150.318 300.921 146.691 299.829 143.31L295.358 129.465C298.021 130.833 300.081 129.927 302.02 129.302C305.402 128.209 307.257 124.583 306.165 121.201L306.164 121.203Z" fill="#60A600"/>
<path d="M209.84 140.522C209.373 140.24 208.974 140.185 208.64 140.306C205.131 141.581 203.396 142.003 203.471 143.162C203.551 144.379 204.641 144.983 205.367 144.72C209.204 143.33 209.869 143.149 210.196 142.784C210.888 142.015 210.324 140.814 209.84 140.522Z" fill="#191919"/>
<path d="M285.775 117.674C283.196 118.609 281.987 119.083 281.396 119.367C279.733 120.167 281.069 122.607 282.502 122.087C286.338 120.698 287.003 120.517 287.331 120.151C288.246 119.132 287.08 117.201 285.775 117.674Z" fill="#191919"/>
<path d="M293.908 124.216C294.768 123.585 294.288 121.122 293.955 120.112C289.104 105.368 289 105.435 288.517 104.775C288.343 104.538 287.948 104.036 287.654 103.915C287.132 103.699 286.482 104.045 286.416 104.945C286.247 107.21 286.707 107.769 290.689 119.898C291.212 121.492 292.555 125.209 293.908 124.216Z" fill="#191919"/>
<path d="M258.566 125.245C258.457 124.32 258.248 123.506 257.89 122.731C257.123 121.282 255.918 117.357 255.796 114.659C255.712 112.843 256.043 112.972 256.648 112.657C257.747 112.084 257.791 112.086 257.934 111.925C258.372 111.433 258.3 110.722 257.586 110.38C255.41 109.337 253.058 110.756 252.836 113.517C252.526 117.352 254.58 123.816 256.06 125.44C256.363 125.824 257.155 126.489 257.624 126.511C258.138 126.535 258.657 126.013 258.568 125.243L258.566 125.245Z" fill="#191919"/>
<path d="M248.188 109.655C246.353 109.338 243.774 110.157 241.981 111.064C240.616 111.086 239.258 111.343 237.973 111.852C235.78 112.718 232.727 114.033 231.555 116.065C230.232 117.837 231.947 125.109 232.38 127.055C232.405 127.235 233.246 130.056 233.887 131.146C235.623 134.091 236.987 133.669 236.675 131.768C236.02 127.785 234.015 123.326 234.068 117.722C234.227 117.613 233.922 116.862 237.848 115.09C237.182 118.366 239.26 127.181 240.603 129.336C242.411 132.237 243.641 131.61 243.362 129.876C243.159 128.607 242.876 127.361 242.48 126.113C241.389 123.286 240.537 116.452 240.767 115.659C241.425 114.597 243.177 113.712 244.648 113.101C243.882 116.18 246.117 129.249 249.259 129.815C249.765 129.906 250.31 129.421 250.179 128.49C250.031 127.43 249.847 126.416 249.496 125.419C248.766 123.943 246.766 114.518 247.661 113.419C248.08 112.633 248.694 112.468 249.703 111.657C251.73 110.026 250.113 109.203 248.187 109.653L248.188 109.655Z" fill="#191919"/>
<path d="M259.337 134.049C257.995 134.123 256.691 134.354 255.413 134.748C240.032 139.482 241.331 138.812 239.986 140.06C239.463 140.546 239.358 141.385 239.615 141.977C239.901 142.754 240.725 143.354 241.498 143.762C245.589 145.915 247.749 144.496 245.847 143.07C244.944 142.393 244.22 141.98 243.461 141.527C243.506 141.242 255.894 138.076 258.551 136.729C259.126 136.438 260.343 135.683 260.601 135.151C260.857 134.623 260.485 133.989 259.338 134.052L259.337 134.049Z" fill="#191919"/>
<path d="M27.0452 85.6879C22.6604 85.1603 18.4851 87.7102 16.9526 91.8525L9.11705 113.03C8.59572 114.436 8.4146 115.947 8.58627 117.438L11.1756 139.87C11.6827 144.257 15.1335 147.726 19.5183 148.252C23.9031 148.778 28.0784 146.229 29.6109 142.087L37.4465 120.91C37.9679 119.503 38.149 117.993 37.9773 116.501L35.388 94.0701C34.8809 89.6821 31.43 86.214 27.0452 85.6879Z" fill="#191919"/>
<path d="M41.5455 116.97C38.5388 115.275 42.5188 107.484 44.7128 103.269C44.8498 103.006 45.0577 102.807 45.3113 102.655L44.4466 95.1592C43.9395 90.7713 40.4887 87.3047 36.1039 86.7771C31.7191 86.2494 27.5437 88.7994 26.0113 92.9416L18.1756 114.119C17.6543 115.527 17.4732 117.036 17.6449 118.527L20.2342 140.959C20.7413 145.347 24.1921 148.815 28.5769 149.342C32.9617 149.87 37.1371 147.32 38.6695 143.178L46.5052 122C46.8674 121.019 47.0659 119.989 47.0942 118.95C44.5317 118.208 42.4858 117.501 41.5455 116.97Z" fill="#60A600"/>
<path d="M86.7029 99.2871C82.3181 98.7594 78.1428 101.309 76.6103 105.453L71.008 120.592L69.0361 120.23C68.781 120.95 68.4943 121.794 68.2644 122.547C67.7367 124.284 45.3922 119.14 41.5461 116.973C40.8609 116.587 40.5396 115.884 40.4766 114.98L34.4664 113.875C33.8301 113.758 33.1781 113.993 32.7717 114.497C31.1967 116.455 30.7227 119 31.4865 121.408C31.6866 122.036 32.2095 122.507 32.8599 122.627L68.2281 129.13C68.1021 130.598 68.0391 129.28 70.8332 153.472C71.3403 157.86 74.7912 161.328 79.176 161.856C80.8014 162.051 82.3984 161.823 83.8427 161.249C81.6928 159.72 80.2076 157.324 79.8894 154.562L77.3001 132.131C77.1285 130.641 77.3096 129.13 77.8309 127.722L85.6665 106.545C86.6304 103.938 88.6417 101.961 91.0924 100.986C89.8261 100.086 88.3283 99.4855 86.7029 99.2902V99.2871Z" fill="#191919"/>
<path d="M106.69 131.192L104.099 108.759C103.592 104.371 100.141 100.904 95.7562 100.377C91.3714 99.849 87.1961 102.399 85.6636 106.541L77.828 127.719C77.3067 129.127 77.1255 130.636 77.2972 132.127L79.8865 154.558C80.3937 158.947 83.8445 162.415 88.2293 162.942C92.6141 163.47 96.7894 160.92 98.3219 156.777L106.158 135.6C106.679 134.193 106.86 132.683 106.688 131.193L106.69 131.192ZM102.285 133.395C101.447 140.363 97.8305 145.656 94.2096 145.222C90.5886 144.787 88.3317 138.785 89.1696 131.818C90.0075 124.852 93.6237 119.555 97.2446 119.992C100.866 120.428 103.122 126.427 102.285 133.395Z" fill="#60A600"/>
<path d="M89.1708 131.817C90.0087 124.849 93.6249 119.554 97.2459 119.99C97.2915 119.995 97.3372 120.003 97.3829 120.011C96.0205 119.453 92.4862 119.419 91.6404 119.316C88.0195 118.88 84.4033 124.175 83.5654 131.143C82.7275 138.111 84.9829 144.111 88.6054 144.546C89.3772 144.639 91.998 145.163 93.4863 145.053C90.2954 143.957 88.3896 138.306 89.1708 131.817Z" fill="#191919"/>
<path d="M64.1167 121.167C64.4428 120.294 64.6286 119.475 64.6633 118.622C64.6428 116.977 65.3641 112.938 66.484 110.484C67.2384 108.831 67.4746 109.096 68.155 109.091C69.3898 109.085 69.4355 109.106 69.634 109.028C70.2466 108.792 70.5097 108.126 70.0293 107.494C68.5756 105.582 65.8351 105.754 64.3703 108.118C62.3433 111.386 61.2187 118.077 61.7952 120.197C61.8881 120.672 62.2882 121.628 62.6977 121.863C63.1434 122.118 63.8458 121.893 64.1167 121.167Z" fill="#191919"/>
<path d="M61.9861 102.578C61.879 102.501 61.7703 102.432 61.6711 102.38C59.7259 101.356 57.9871 101.099 55.842 100.981C54.3583 100.254 52.3975 99.6519 48.9829 99.6724C46.8755 99.6866 44.628 99.8882 43.3396 101.543C42.1521 103.079 39.2541 111.472 39.4683 115.147C39.6604 118.432 41.0575 118.859 41.6638 116.974C42.7947 113.458 43.2136 108.132 45.7573 103.287C45.7919 103.282 45.8077 103.274 45.8124 103.249C45.836 103.196 46.0061 103.125 46.1353 103.043C46.9873 102.712 48.1072 102.64 49.0238 102.638C47.5858 104.361 44.7997 112.877 45.006 116.408C45.2029 119.785 46.6078 120.083 47.2015 118.235C48.3009 114.818 48.7828 109.341 51.295 104.549C51.3296 104.544 51.3454 104.536 51.3501 104.511C51.3737 104.459 51.5438 104.386 51.673 104.304C53.1598 103.728 55.6246 103.892 57.2374 104.038C55.1978 106.382 51.1973 119.04 53.7504 120.981C54.1567 121.292 54.8639 121.11 55.1742 120.223C55.527 119.212 55.8262 118.226 55.968 117.179C55.9916 115.605 58.4896 106.245 59.8141 105.664C60.5402 105.16 61.5561 105.202 61.7089 105.163C62.6066 104.996 62.0412 105.119 63.1752 104.86C64.2194 104.585 64.5281 103.246 61.9845 102.574L61.9861 102.578Z" fill="#191919"/>
</svg>
