<svg width="337" height="338" viewBox="0 0 337 338" fill="none" xmlns="http://www.w3.org/2000/svg">
<path d="M139.037 187.582C136.736 183.85 133.846 179.911 131.792 176.226C129.683 178.214 127.085 179.61 124.262 180.27C126.544 184.067 128.581 188.007 130.36 192.065C130.45 192.275 130.607 192.448 130.807 192.558C131.007 192.668 131.239 192.708 131.464 192.672C131.69 192.635 131.896 192.524 132.051 192.356C132.206 192.189 132.301 191.974 132.319 191.746C132.525 189.387 132.64 188.144 132.719 185.918C134.295 187.056 135.941 188.095 137.647 189.028C137.848 189.134 138.077 189.172 138.301 189.136C138.524 189.101 138.73 188.993 138.888 188.83C139.045 188.666 139.144 188.456 139.171 188.231C139.198 188.006 139.151 187.778 139.037 187.582Z" fill="#60A600"/>
<path d="M285.057 143.833C285.76 142.953 286.508 142.175 287.497 140.843C288.998 138.821 289.711 137.58 290.763 136.07C290.886 135.92 290.945 135.728 290.927 135.534C290.908 135.341 290.814 135.163 290.664 135.04C290.514 134.916 290.322 134.857 290.128 134.875C289.935 134.894 289.757 134.988 289.634 135.138C287.147 137.336 285.191 140.07 283.915 143.133C283.845 143.284 283.832 143.454 283.88 143.613C283.928 143.771 284.032 143.907 284.174 143.993C284.315 144.08 284.483 144.111 284.646 144.082C284.809 144.052 284.955 143.963 285.057 143.833Z" fill="#60A600"/>
<path d="M285.846 146.386C288.794 144.991 291.627 143.365 294.318 141.521C294.403 141.477 294.478 141.416 294.54 141.343C294.602 141.27 294.648 141.185 294.677 141.093C294.706 141.002 294.717 140.905 294.708 140.81C294.7 140.714 294.673 140.621 294.629 140.536C294.584 140.451 294.524 140.376 294.45 140.314C294.377 140.252 294.292 140.206 294.201 140.177C294.109 140.148 294.013 140.137 293.917 140.146C293.822 140.154 293.729 140.181 293.644 140.225C290.439 141.255 287.506 142.99 285.059 145.301C284.935 145.412 284.857 145.565 284.84 145.731C284.822 145.896 284.867 146.062 284.964 146.197C285.062 146.332 285.206 146.426 285.369 146.46C285.531 146.495 285.701 146.469 285.846 146.386Z" fill="#60A600"/>
<path d="M321.284 256.381C321.251 256.266 321.196 256.159 321.12 256.066C321.045 255.974 320.952 255.897 320.846 255.842C320.741 255.786 320.625 255.753 320.506 255.743C320.387 255.734 320.268 255.749 320.155 255.787C303.29 261.371 282.439 267.715 264.813 266.844C264.531 266.833 264.257 266.932 264.048 267.121C263.503 267.626 263.945 267.795 263.288 270.026C262.366 273.15 260.408 277.035 259.995 279.504C259.962 279.807 260.048 280.112 260.235 280.353C260.422 280.594 260.696 280.754 260.998 280.798C318.975 280.798 317.322 280.668 317.322 280.837C317.459 280.841 317.595 280.808 317.714 280.74C317.833 280.671 317.931 280.571 317.996 280.451C317.732 280.451 324.502 268.218 321.284 256.381Z" fill="#191919"/>
<path d="M81.8274 151.377C81.3259 147.387 80.4094 143.46 79.0927 139.661C79.0561 139.503 79.0779 139.337 79.154 139.193C79.2301 139.05 79.3554 138.939 79.5069 138.88C79.6583 138.822 79.8258 138.82 79.9785 138.875C80.1311 138.93 80.2588 139.039 80.3379 139.181C82.0167 143.215 83.2085 147.436 83.8882 151.752C84.0264 152.679 83.167 152.892 80.2284 154.829C80.2486 161.103 78.4928 168.141 72.5684 170.146C72.4639 171.624 72.4588 173.248 72.4706 174.741L76.0681 175.535C76.1614 175.556 76.2496 175.595 76.3277 175.65C76.4058 175.705 76.4723 175.775 76.5234 175.856C76.5745 175.937 76.6092 176.027 76.6255 176.121C76.6417 176.215 76.6393 176.312 76.6183 176.405C76.5972 176.498 76.5581 176.586 76.5029 176.664C76.4478 176.743 76.3779 176.809 76.297 176.86C76.2162 176.911 76.1261 176.946 76.0319 176.962C75.9377 176.978 75.8412 176.976 75.748 176.955L71.4731 176.193C71.2983 176.152 71.1422 176.053 71.0288 175.914C70.9155 175.774 70.8514 175.601 70.8463 175.422C70.7823 173.551 70.6374 171.75 70.7671 169.374C70.7813 169.184 70.8536 169.003 70.9741 168.855C71.0947 168.708 71.2577 168.601 71.4411 168.549C76.8331 167.002 78.2653 159.881 78.1171 154.293C78.1133 154.116 78.1544 153.94 78.2365 153.783C78.3187 153.626 78.4393 153.492 78.5872 153.394L81.8274 151.377Z" fill="#191919"/>
<path d="M61.773 176.184C61.1054 173.771 60.7971 171.273 60.8581 168.77C60.8612 168.607 60.9232 168.451 61.0326 168.33C61.1419 168.21 61.2912 168.133 61.4528 168.114C61.6145 168.094 61.7776 168.134 61.912 168.226C62.0464 168.318 62.1431 168.455 62.1841 168.613C62.981 171.183 63.5007 173.83 63.7343 176.511C63.7665 176.715 63.7291 176.924 63.6283 177.104C63.5275 177.284 63.369 177.425 63.1783 177.505C62.4837 177.757 61.804 178.049 61.1428 178.379C60.9757 178.468 60.7806 178.489 60.5987 178.436C60.4167 178.384 60.2622 178.263 60.1677 178.099C60.0732 177.935 60.0462 177.741 60.0923 177.557C60.1384 177.374 60.2541 177.215 60.4149 177.115C60.7789 176.859 61.3888 176.415 61.773 176.184Z" fill="#191919"/>
<path d="M120.326 156.786V156.846C118.9 156.869 117.512 157.311 116.336 158.117C115.159 158.924 114.247 160.06 113.712 161.382C113.178 162.704 113.045 164.155 113.33 165.553C113.616 166.95 114.307 168.232 115.317 169.239C116.651 170.554 118.449 171.289 120.322 171.285C122.195 171.281 123.99 170.539 125.319 169.219C126.326 168.209 127.014 166.926 127.299 165.528C127.584 164.131 127.452 162.68 126.921 161.357C126.389 160.033 125.481 158.895 124.309 158.082C123.137 157.27 121.752 156.819 120.326 156.786Z" fill="#60A600"/>
<path d="M120.309 149.356V149.298C117.434 149.285 114.616 150.094 112.187 151.631C109.758 153.168 107.819 155.368 106.6 157.97C105.38 160.573 104.93 163.471 105.304 166.321C105.677 169.171 106.858 171.855 108.708 174.055C106.332 178.706 103.236 182.753 100.493 187.198C100.379 187.394 100.332 187.621 100.359 187.845C100.385 188.07 100.484 188.28 100.641 188.443C100.797 188.606 101.003 188.714 101.226 188.751C101.449 188.787 101.678 188.749 101.878 188.644C103.585 187.712 105.231 186.674 106.807 185.535C106.886 187.758 106.997 188.947 107.206 191.362C107.225 191.589 107.319 191.804 107.474 191.972C107.629 192.14 107.836 192.251 108.062 192.287C108.287 192.324 108.518 192.284 108.718 192.174C108.919 192.064 109.076 191.89 109.166 191.68C110.966 187.577 113.027 183.594 115.336 179.754C112.889 179.107 110.775 177.564 109.414 175.43C109.351 175.346 109.324 175.241 109.337 175.136C109.349 175.032 109.402 174.937 109.482 174.87C109.563 174.803 109.666 174.769 109.771 174.776C109.876 174.783 109.974 174.829 110.046 174.906C110.639 175.492 111.276 176.032 111.951 176.52C114.277 178.51 117.257 179.566 120.316 179.486C122.314 179.482 124.292 179.084 126.136 178.315C127.981 177.545 129.655 176.42 131.065 175.003C132.474 173.586 133.59 171.906 134.349 170.057C135.108 168.208 135.496 166.228 135.489 164.23C135.472 162.256 135.065 160.305 134.292 158.488C133.519 156.671 132.396 155.025 130.985 153.643C129.575 152.261 127.906 151.172 126.074 150.436C124.242 149.7 122.283 149.334 120.309 149.356ZM132.178 167.536C131.349 167.285 130.325 167.167 129.083 166.707C128.763 167.94 128.178 169.089 127.368 170.073C126.559 171.057 125.545 171.852 124.397 172.404C125.108 173.374 125.652 174.456 126.006 175.605C126.06 175.712 126.069 175.835 126.032 175.948C125.995 176.061 125.914 176.154 125.808 176.208C125.702 176.261 125.579 176.271 125.466 176.234C125.353 176.196 125.259 176.116 125.206 176.01C124.469 175.031 123.844 173.972 123.344 172.854C122.217 173.277 121.015 173.461 119.813 173.393C118.611 173.325 117.437 173.006 116.366 172.458C115.942 173.28 115.466 174.074 114.939 174.834C114.888 174.937 114.8 175.017 114.692 175.058C114.584 175.098 114.465 175.096 114.359 175.051C114.253 175.006 114.168 174.922 114.122 174.816C114.076 174.711 114.072 174.591 114.111 174.483C114.319 173.539 114.727 172.651 115.308 171.878C114.285 171.205 113.41 170.33 112.738 169.306C112.065 168.283 111.609 167.133 111.397 165.927C110.273 166.406 109.095 166.745 107.889 166.938C107.787 166.977 107.674 166.974 107.574 166.93C107.474 166.885 107.396 166.803 107.357 166.701C107.318 166.599 107.321 166.486 107.365 166.386C107.41 166.287 107.492 166.209 107.594 166.169C108.475 165.556 109.479 165.142 110.536 164.956C111.503 164.773 111.242 165.143 111.25 164.235C111.29 162 112.162 159.86 113.697 158.235C112.868 157.473 111.122 155.64 111.094 155.616C111.001 155.559 110.935 155.467 110.91 155.361C110.885 155.255 110.903 155.143 110.961 155.05C111.018 154.957 111.11 154.891 111.216 154.866C111.322 154.841 111.434 154.86 111.527 154.917C112.767 155.433 113.811 156.332 114.504 157.483C116.125 156.105 118.19 155.361 120.317 155.389V155.453C120.499 155.453 120.671 155.487 120.851 155.493C120.85 153.816 121.261 152.164 122.049 150.683C122.086 150.583 122.16 150.501 122.255 150.454C122.351 150.408 122.461 150.4 122.562 150.433C122.663 150.465 122.748 150.536 122.798 150.63C122.848 150.723 122.86 150.833 122.831 150.935C122.65 152.507 122.321 154.059 121.849 155.569C123.649 155.838 125.323 156.655 126.643 157.91C127.379 158.612 126.671 158.548 127.834 157.783C128.484 157.382 129.183 157.066 129.913 156.843C130.018 156.795 130.137 156.788 130.246 156.826C130.355 156.863 130.445 156.94 130.499 157.042C130.552 157.144 130.564 157.263 130.532 157.374C130.5 157.484 130.427 157.578 130.328 157.637C129.557 158.285 128.698 158.821 127.777 159.229C129.085 161.09 129.632 163.381 129.303 165.632C130.462 165.692 131.581 166.07 132.539 166.725C132.625 166.784 132.689 166.872 132.718 166.973C132.747 167.074 132.74 167.181 132.698 167.278C132.656 167.374 132.582 167.452 132.488 167.499C132.394 167.547 132.287 167.559 132.185 167.536H132.178Z" fill="#60A600"/>
<path d="M188.453 176.435C188.457 175.924 188.36 175.417 188.168 174.943C187.977 174.469 187.693 174.038 187.334 173.674C186.976 173.309 186.549 173.019 186.078 172.82C185.607 172.621 185.102 172.517 184.591 172.514C180.658 172.48 159.297 172.345 156.54 172.332C155.995 172.321 155.454 172.418 154.947 172.619C154.44 172.82 153.979 173.12 153.589 173.502C153.2 173.883 152.89 174.339 152.679 174.841C152.468 175.344 152.359 175.884 152.359 176.429C152.359 176.974 152.468 177.514 152.679 178.016C152.89 178.519 153.2 178.974 153.589 179.356C153.979 179.737 154.44 180.037 154.947 180.238C155.454 180.439 155.995 180.537 156.54 180.526C159.887 180.512 181.244 180.396 184.591 180.374C185.63 180.368 186.624 179.95 187.355 179.211C188.086 178.472 188.494 177.474 188.49 176.435H188.453Z" fill="#60A600"/>
<path d="M157.462 193.404C168.138 193.552 165.887 193.572 181.492 193.441C181.611 193.441 181.725 193.394 181.809 193.309C181.893 193.225 181.94 193.111 181.94 192.993C181.94 192.874 181.893 192.76 181.809 192.676C181.725 192.592 181.611 192.544 181.492 192.544C165.875 192.411 168.153 192.43 157.462 192.581C157.353 192.581 157.248 192.625 157.171 192.702C157.094 192.779 157.051 192.884 157.051 192.993C157.051 193.102 157.094 193.206 157.171 193.283C157.248 193.36 157.353 193.404 157.462 193.404Z" fill="#60A600"/>
<path d="M121.087 231.633C131.763 231.781 129.512 231.801 145.117 231.67C145.236 231.67 145.35 231.623 145.434 231.539C145.518 231.454 145.565 231.34 145.565 231.222C145.565 231.103 145.518 230.989 145.434 230.905C145.35 230.821 145.236 230.773 145.117 230.773C129.5 230.64 131.778 230.659 121.087 230.81C120.978 230.81 120.873 230.854 120.796 230.931C120.719 231.008 120.676 231.113 120.676 231.222C120.676 231.331 120.719 231.435 120.796 231.512C120.873 231.589 120.978 231.633 121.087 231.633Z" fill="#60A600"/>
<path d="M121.426 225.077C125.07 225.246 129.544 225.101 136.353 224.752C136.467 224.743 136.573 224.69 136.65 224.605C136.727 224.52 136.768 224.409 136.765 224.294C136.762 224.18 136.716 224.071 136.635 223.989C136.554 223.908 136.445 223.861 136.331 223.857C131.352 223.689 126.367 223.822 121.404 224.257C121.299 224.265 121.202 224.314 121.132 224.392C121.062 224.47 121.025 224.572 121.027 224.677C121.03 224.782 121.073 224.882 121.147 224.956C121.221 225.031 121.321 225.074 121.426 225.077Z" fill="#60A600"/>
<path d="M197.872 230.542C202.622 230.8 207.886 230.739 216.441 230.577C216.555 230.57 216.662 230.52 216.74 230.437C216.818 230.354 216.862 230.244 216.862 230.13C216.862 230.016 216.818 229.906 216.74 229.823C216.662 229.74 216.555 229.689 216.441 229.682C209.847 229.556 203.891 229.381 197.872 229.72C197.763 229.72 197.658 229.763 197.581 229.84C197.504 229.917 197.461 230.022 197.461 230.131C197.461 230.24 197.504 230.344 197.581 230.421C197.658 230.498 197.763 230.542 197.872 230.542Z" fill="#60A600"/>
<path d="M197.872 221.803C202.051 222.059 206.696 222.002 214.257 221.84C214.376 221.84 214.49 221.793 214.574 221.709C214.658 221.625 214.705 221.511 214.705 221.392C214.705 221.273 214.658 221.159 214.574 221.075C214.49 220.991 214.376 220.943 214.257 220.943C206.755 220.775 201.892 220.724 197.872 220.981C197.763 220.981 197.658 221.024 197.581 221.101C197.504 221.178 197.461 221.283 197.461 221.392C197.461 221.501 197.504 221.605 197.581 221.682C197.658 221.76 197.763 221.803 197.872 221.803Z" fill="#60A600"/>
<path d="M143.625 202.889H197.146C197.26 202.889 197.369 202.843 197.449 202.763C197.53 202.682 197.575 202.573 197.575 202.459C197.575 202.345 197.53 202.236 197.449 202.155C197.369 202.075 197.26 202.029 197.146 202.029H143.625C143.511 202.029 143.402 202.075 143.321 202.155C143.241 202.236 143.195 202.345 143.195 202.459C143.195 202.573 143.241 202.682 143.321 202.763C143.402 202.843 143.511 202.889 143.625 202.889Z" fill="#60A600"/>
<path d="M70.6484 145.235C70.6484 145.959 70.8018 146.654 71.0748 147.166C71.3479 147.679 71.7182 147.966 72.1043 147.966C72.4904 147.966 72.8607 147.679 73.1337 147.166C73.4067 146.654 73.5601 145.959 73.5601 145.235C73.5601 144.511 73.4067 143.816 73.1337 143.304C72.8607 142.791 72.4904 142.504 72.1043 142.504C71.7182 142.504 71.3479 142.791 71.0748 143.304C70.8018 143.816 70.6484 144.511 70.6484 145.235Z" fill="#191919"/>
<path d="M253.348 130.398C253.348 130.978 253.501 131.533 253.774 131.943C254.047 132.352 254.417 132.582 254.803 132.582C255.19 132.582 255.56 132.352 255.833 131.943C256.106 131.533 256.259 130.978 256.259 130.398C256.259 129.819 256.106 129.264 255.833 128.854C255.56 128.445 255.19 128.215 254.803 128.215C254.417 128.215 254.047 128.445 253.774 128.854C253.501 129.264 253.348 129.819 253.348 130.398Z" fill="#191919"/>
<path d="M75.5813 157.724C75.1668 161.032 72.7775 163.777 69.4395 163.487C65.2775 163.14 64.1924 158.681 65.4595 154.752C65.5373 154.505 65.7046 154.296 65.9285 154.167C66.1525 154.038 66.4168 153.997 66.6694 154.052C69.6181 154.748 72.3411 156.054 75.0472 156.865C75.2264 156.917 75.38 157.034 75.4786 157.192C75.5771 157.351 75.6137 157.54 75.5813 157.724ZM67.2305 156.288C66.9042 157.716 67.1402 159.214 67.8893 160.472C68.3901 160.984 69.0453 161.317 69.7538 161.419C70.4623 161.522 71.1849 161.389 71.8103 161.04C72.8729 160.372 73.6681 159.353 74.0581 158.16C71.78 157.577 69.3384 156.767 67.2305 156.288Z" fill="#191919"/>
<path d="M69.0824 139.821C69.4492 139.417 69.909 139.108 70.4219 138.922C70.9348 138.736 71.4854 138.677 72.0259 138.752C72.5665 138.826 73.0808 139.032 73.5241 139.35C73.9675 139.668 74.3267 140.089 74.5705 140.577C74.6375 140.763 74.7754 140.914 74.9537 140.997C75.1321 141.081 75.3364 141.09 75.5216 141.023C75.7069 140.956 75.8579 140.818 75.9415 140.64C76.0251 140.461 76.0344 140.257 75.9673 140.072C74.9462 136.063 69.5643 135.037 67.8995 139.14C67.8093 139.297 67.785 139.483 67.8321 139.658C67.8792 139.833 67.9937 139.982 68.1506 140.072C68.3075 140.162 68.4938 140.186 68.6685 140.139C68.8433 140.092 68.9921 139.978 69.0824 139.821Z" fill="#191919"/>
<path d="M247.596 139.554C246.851 139.011 246.212 138.336 245.711 137.563C244.555 135.541 245.608 134.26 247.251 132.835C247.762 132.513 248.183 132.068 248.476 131.54C248.769 131.012 248.924 130.419 248.925 129.815C249.328 126.841 248.787 124.905 249.98 125.035C250.157 125.056 250.318 125.146 250.428 125.285C250.538 125.424 250.59 125.601 250.57 125.778C250.454 127.038 250.545 128.578 250.402 129.99C250.408 130.652 250.278 131.308 250.019 131.916C249.761 132.525 249.379 133.074 248.899 133.529C246.993 135.46 245.697 135.974 249.067 138.331C249.778 138.837 249.269 139.596 249.741 143.02C249.83 144.192 250.154 145.333 250.693 146.377C251.232 147.421 251.976 148.346 252.879 149.098C253.782 149.849 254.827 150.411 255.952 150.751C257.077 151.09 258.258 151.2 259.426 151.075C259.631 151.061 259.836 151.108 260.015 151.208C260.195 151.308 260.341 151.458 260.437 151.639C262.018 154.652 263.445 157.66 264.788 160.679C266.734 165.082 262.749 168.819 259.967 172.36C256.788 176.404 253.645 180.562 252.461 185.656C252.416 185.845 252.298 186.008 252.133 186.11C251.968 186.212 251.769 186.244 251.58 186.199C251.391 186.155 251.228 186.037 251.126 185.872C251.024 185.707 250.992 185.508 251.037 185.319C253.812 172.965 265.334 166.811 262.913 161.518C261.63 158.713 260.284 155.922 258.869 153.221C256.589 153.324 254.336 152.689 252.446 151.409C250.556 150.129 249.13 148.273 248.38 146.117C247.773 143.985 247.508 141.77 247.596 139.554Z" fill="#191919"/>
<path d="M285.863 147.555C286.537 144.618 285.346 140.953 282.378 140.003C280.97 139.598 279.468 139.667 278.104 140.2C280.353 133.475 282.774 127.67 280.029 120.859C279.537 119.341 278.71 117.952 277.607 116.797C276.505 115.642 275.156 114.751 273.662 114.188C273.849 108.65 270.277 106.02 264.76 105.127C248.975 102.567 235.677 117.724 244.181 123.156C244.848 123.565 245.595 123.826 246.372 123.921C246.519 123.945 246.671 123.936 246.815 123.897C246.959 123.857 247.094 123.787 247.209 123.691C247.324 123.596 247.417 123.476 247.482 123.342C247.547 123.207 247.583 123.06 247.587 122.91C249.991 123.55 252.528 123.487 254.898 122.728C255.135 122.656 255.34 122.503 255.477 122.296C255.613 122.088 255.673 121.839 255.644 121.592C255.866 121.633 256.096 121.607 256.303 121.517C256.51 121.427 256.685 121.277 256.807 121.087C256.902 120.932 256.955 120.755 256.962 120.574C256.968 120.392 256.928 120.212 256.846 120.051C256.428 119.23 257.169 118.44 257.99 118.145C257.343 124.327 260.237 128.407 265.624 131.355C267.02 132.132 268.647 131.217 269.301 131.584C269.925 132.04 270.362 132.707 270.532 133.461C270.701 134.215 270.592 135.005 270.223 135.684C269.333 136.955 266.828 137.175 265.296 137.297C265.047 137.316 264.814 137.427 264.642 137.607C264.47 137.788 264.371 138.026 264.364 138.276C264.268 140.5 264.385 142.729 264.715 144.931C265.449 149.283 267.721 153.226 271.118 156.044C274.758 159.168 279.41 160.863 284.207 160.814C294.945 160.069 294.63 147.356 285.863 147.555Z" fill="#191919"/>
<path d="M252.22 140.479C253.122 143.918 258.31 144.117 258.854 138.848C258.895 138.659 258.859 138.46 258.754 138.297C258.649 138.134 258.483 138.019 258.294 137.978C258.104 137.937 257.906 137.973 257.743 138.078C257.579 138.183 257.465 138.349 257.423 138.538C256.937 139.95 255.899 141.29 254.51 140.705C254.086 140.56 253.715 140.293 253.443 139.937C253.416 139.846 253.369 139.761 253.306 139.69C253.243 139.618 253.166 139.561 253.079 139.521C252.992 139.481 252.898 139.461 252.803 139.46C252.707 139.46 252.613 139.479 252.526 139.518C252.439 139.557 252.361 139.613 252.297 139.684C252.233 139.755 252.186 139.839 252.157 139.93C252.128 140.021 252.119 140.117 252.129 140.212C252.14 140.306 252.171 140.398 252.22 140.479Z" fill="#191919"/>
<path d="M252.897 127.139C253.292 126.782 253.763 126.519 254.275 126.371C254.786 126.223 255.325 126.193 255.849 126.283C256.203 126.419 256.52 126.636 256.774 126.917C256.879 127.076 257.042 127.188 257.228 127.229C257.415 127.27 257.61 127.237 257.772 127.136C257.934 127.036 258.05 126.876 258.095 126.691C258.141 126.505 258.113 126.31 258.016 126.145C257.765 125.512 257.323 124.972 256.753 124.599C256.182 124.227 255.51 124.04 254.829 124.065C254.148 124.09 253.491 124.325 252.949 124.738C252.406 125.15 252.005 125.721 251.8 126.371C251.721 126.517 251.699 126.686 251.737 126.847C251.775 127.008 251.871 127.15 252.006 127.245C252.142 127.34 252.307 127.381 252.472 127.362C252.636 127.342 252.788 127.263 252.897 127.139Z" fill="#191919"/>
<path d="M93.2397 114.743C85.947 110.251 74.9406 117.372 65.4709 121.783C64.4599 122.263 62.3014 121.207 60.6821 121.375C51.1332 122.386 47.1499 131.935 47.0066 141.477C46.8567 151.756 52.8957 160.427 59.1386 168.606C59.2503 168.753 59.4055 168.862 59.5823 168.916C59.7591 168.97 59.9485 168.968 60.1237 168.909C60.2989 168.849 60.451 168.736 60.5585 168.586C60.666 168.435 60.7234 168.255 60.7225 168.07C60.6686 163.957 60.6231 159.722 60.1985 155.614C60.1872 155.506 60.1546 155.402 60.1027 155.306C60.0508 155.211 59.9806 155.126 59.896 155.058C59.8115 154.99 59.7143 154.939 59.6101 154.908C59.5059 154.878 59.3966 154.868 59.2886 154.88C58.4697 155.051 57.6227 155.033 56.8115 154.829C56.0003 154.625 55.2461 154.239 54.606 153.7C53.258 152.253 53.2344 149.336 55.1486 148.493C55.6422 148.342 56.1614 148.293 56.6747 148.348C57.188 148.404 57.6847 148.563 58.1344 148.817C58.2362 148.959 58.3892 149.056 58.5612 149.088C58.7331 149.119 58.9106 149.082 59.0561 148.986C61.4174 147.365 63.3786 145.227 64.7908 142.735C66.203 140.243 67.0291 137.463 67.2064 134.604C67.6108 134.695 68.022 134.773 68.4314 134.833C76.1824 136.065 85.0674 136.944 91.5715 132.609C97.4926 128.658 100.072 118.955 93.2397 114.743Z" fill="#191919"/>
<path d="M296.358 161.429C292.576 159.935 288.562 159.111 284.496 158.994C280.312 158.976 277.116 161.353 273.919 164.061C268.7 168.601 264.005 173.71 259.92 179.292C256.779 183.469 254.828 187.329 249.588 187.983C249.41 188.004 249.241 188.071 249.096 188.176C248.952 188.281 248.836 188.421 248.761 188.583C245.898 194.381 244.68 200.853 245.237 207.295C245.794 213.737 248.106 219.903 251.922 225.124C255.106 229.673 253.492 236.538 254.302 242.323C254.329 242.518 254.418 242.7 254.555 242.842C254.693 242.984 254.873 243.077 255.067 243.109C261.479 244.147 270.59 244.12 275.077 239.418C277.069 237.031 278.28 234.09 278.545 230.993C279.335 225.494 279.448 219.92 278.882 214.394C279.001 214.259 279.067 214.086 279.067 213.906C279.067 213.726 279.001 213.552 278.882 213.418C270.35 203.674 271.938 187.823 276.983 175.971C280.811 166.971 286.237 161.594 295.855 163.32C296.096 163.361 296.344 163.31 296.551 163.178C296.757 163.046 296.906 162.841 296.969 162.604C297.032 162.367 297.005 162.116 296.892 161.898C296.779 161.681 296.588 161.513 296.358 161.429Z" fill="#60A600"/>
<path d="M328.512 257.115C326.679 238.159 323.143 219.407 317.947 201.086C317.882 200.863 317.74 200.671 317.546 200.544C317.352 200.417 317.119 200.364 316.889 200.394C316.66 200.424 316.448 200.535 316.293 200.707C316.138 200.88 316.05 201.102 316.044 201.333C315.708 221.459 312.487 243.984 295.809 255.616C290.236 259.311 283.928 261.754 277.32 262.777C254.658 266.968 256.382 257.927 256.028 268.125C256.019 268.359 256.092 268.589 256.235 268.774C256.379 268.959 256.583 269.087 256.812 269.136C260.371 269.864 263.989 270.266 267.621 270.338C278.931 270.634 295.144 268.209 306.386 265.441C313.844 263.647 321.126 261.185 328.141 258.083C328.229 258.044 328.309 257.988 328.375 257.918C328.441 257.848 328.493 257.766 328.528 257.676C328.562 257.586 328.579 257.49 328.576 257.394C328.573 257.298 328.551 257.203 328.512 257.115Z" fill="#60A600"/>
<path d="M220.472 229.259C227.416 234.82 232.361 236.398 237.023 238.832C237.194 238.925 237.394 238.947 237.58 238.893C237.767 238.839 237.924 238.713 238.018 238.543C238.111 238.373 238.133 238.173 238.079 237.987C238.025 237.8 237.9 237.643 237.729 237.549C236.887 237.061 232.226 234.146 226.189 230.912C224.521 230.017 222.853 229.15 221.237 228.164C221.092 228.089 220.924 228.069 220.766 228.109C220.608 228.148 220.469 228.243 220.375 228.377C220.282 228.511 220.24 228.674 220.258 228.836C220.276 228.998 220.352 229.149 220.472 229.259Z" fill="#191919"/>
<path d="M215.985 233.563C219.798 237.177 224.27 240.024 229.159 241.949C229.245 241.992 229.339 242.017 229.435 242.024C229.531 242.03 229.628 242.018 229.719 241.987C229.81 241.956 229.895 241.908 229.967 241.844C230.04 241.781 230.099 241.704 230.142 241.618C230.185 241.531 230.21 241.438 230.217 241.341C230.223 241.245 230.211 241.149 230.18 241.058C230.149 240.966 230.101 240.882 230.037 240.809C229.974 240.737 229.897 240.677 229.811 240.635C228.271 239.811 216.976 232.614 216.801 232.499C216.659 232.413 216.49 232.383 216.327 232.413C216.164 232.444 216.018 232.534 215.917 232.665C215.815 232.797 215.767 232.962 215.779 233.127C215.792 233.293 215.865 233.448 215.985 233.563Z" fill="#191919"/>
<path d="M216.262 240.087C219.434 243.02 223.126 245.336 227.149 246.914C227.318 247.006 227.517 247.027 227.701 246.973C227.886 246.919 228.042 246.794 228.135 246.625C228.229 246.457 228.252 246.259 228.2 246.073C228.148 245.888 228.025 245.731 227.858 245.635C226.004 244.456 224.272 243.238 221.44 241.536C219.834 240.56 218.188 239.703 217.071 239.008C216.928 238.901 216.748 238.855 216.571 238.88C216.394 238.906 216.234 239 216.127 239.143C216.02 239.286 215.974 239.466 215.999 239.643C216.024 239.82 216.119 239.979 216.262 240.087Z" fill="#191919"/>
<path d="M298.773 163.17C298.601 163.08 298.4 163.063 298.215 163.122C298.03 163.18 297.876 163.31 297.787 163.482C297.697 163.655 297.68 163.855 297.739 164.04C297.797 164.225 297.927 164.38 298.099 164.469C315.364 173.496 316.365 194.927 314.636 214.262C314.23 220.967 312.849 227.576 310.536 233.883C309.221 237.477 307.624 240.962 305.759 244.304C298.14 257.279 282.567 262.753 267.188 262.854C259.58 262.854 252.012 261.763 244.714 259.614C246.874 254.127 248.429 248.421 249.349 242.596C258.128 245.123 269.685 246.798 275.952 240.033C278.83 236.917 279.371 232.381 279.954 228.221C281.212 217.537 281.048 206.733 279.468 196.091C279.428 195.931 279.331 195.792 279.195 195.699C279.059 195.606 278.893 195.566 278.73 195.587C278.566 195.607 278.416 195.687 278.307 195.811C278.199 195.935 278.139 196.095 278.141 196.26C279.358 206.79 279.272 217.429 277.884 227.938C277.365 231.532 276.858 235.925 274.39 238.602C268.853 244.645 257.627 242.955 249.701 240.793C249.752 240.538 249.792 240.277 249.849 240.024C249.876 239.859 249.84 239.689 249.748 239.548C249.657 239.408 249.516 239.306 249.353 239.264C249.191 239.222 249.018 239.242 248.87 239.32C248.721 239.399 248.607 239.53 248.55 239.687C248.481 239.925 248.409 240.169 248.336 240.405C247.588 240.186 246.864 239.967 246.185 239.75C245.319 237.174 243.918 234.81 242.074 232.813C240.231 230.816 237.986 229.232 235.486 228.164C235.397 228.119 235.299 228.094 235.199 228.089C235.099 228.084 234.999 228.1 234.906 228.135C234.812 228.17 234.726 228.224 234.654 228.294C234.583 228.363 234.526 228.447 234.487 228.539C234.449 228.632 234.43 228.731 234.432 228.831C234.433 228.931 234.455 229.03 234.496 229.121C234.538 229.212 234.597 229.294 234.671 229.361C234.745 229.428 234.832 229.479 234.927 229.512C237.258 230.57 239.333 232.12 241.009 234.056C242.685 235.991 243.922 238.266 244.636 240.725C244.805 241.27 245.066 241.295 247.814 242.144C245.529 249.683 244.781 253.889 243.049 259.142C233.214 255.955 224.018 251.058 215.885 244.675C215.744 244.585 215.574 244.55 215.409 244.578C215.243 244.606 215.094 244.695 214.991 244.827C214.888 244.959 214.837 245.125 214.849 245.292C214.862 245.459 214.936 245.616 215.058 245.731C223.229 252.325 232.501 257.422 242.447 260.787C242.233 261.373 242.048 261.966 241.8 262.541C241.727 262.717 241.725 262.913 241.795 263.09C241.864 263.267 242 263.41 242.173 263.489C242.346 263.568 242.542 263.577 242.722 263.513C242.901 263.45 243.048 263.319 243.133 263.149C243.43 262.527 243.721 261.902 244.006 261.274C264.084 267.438 287.984 266.597 302.76 251.776C307.449 247.049 310.053 240.879 312.471 234.653C314.836 228.158 316.226 221.348 316.596 214.446C318.233 194.189 316.783 172.37 298.773 163.17Z" fill="#191919"/>
<path d="M204.926 252.586C213.64 264.507 234.75 270.792 249.089 264.843C249.183 264.81 249.269 264.759 249.343 264.692C249.416 264.625 249.475 264.544 249.516 264.454C249.557 264.363 249.579 264.265 249.581 264.166C249.582 264.067 249.564 263.968 249.526 263.876C249.488 263.784 249.432 263.701 249.362 263.632C249.291 263.562 249.206 263.508 249.114 263.472C249.021 263.437 248.922 263.42 248.823 263.424C248.724 263.428 248.626 263.452 248.537 263.495C235.318 268.784 213.489 261.447 205.996 251.786C205.881 251.669 205.729 251.598 205.566 251.585C205.403 251.572 205.241 251.619 205.11 251.717C204.979 251.815 204.889 251.957 204.855 252.117C204.821 252.277 204.846 252.443 204.926 252.586Z" fill="#191919"/>
<path d="M242.913 227.606C243.21 225.975 243.648 223.843 243.955 221.297C244.108 220.037 244.629 213.696 244.901 211.812C244.934 211.621 244.89 211.425 244.778 211.266C244.666 211.108 244.495 211 244.304 210.967C244.113 210.935 243.916 210.979 243.758 211.091C243.599 211.203 243.492 211.373 243.459 211.565C242.167 216.767 241.536 222.111 241.58 227.471C241.582 227.637 241.645 227.796 241.757 227.919C241.869 228.041 242.022 228.118 242.186 228.134C242.351 228.151 242.517 228.106 242.651 228.009C242.785 227.911 242.878 227.768 242.913 227.606Z" fill="#191919"/>
<path d="M78.9088 236.981C78.7858 236.845 78.6174 236.757 78.4348 236.734C78.2521 236.711 78.0674 236.756 77.9147 236.858C59.5162 249.381 65.2334 244.591 44.5904 259.279C44.4254 259.394 44.2312 259.46 44.0302 259.47C43.8292 259.479 43.6296 259.431 43.4547 259.331C43.2798 259.232 43.1366 259.085 43.0418 258.908C42.947 258.73 42.9044 258.529 42.9189 258.329C43.5929 250.124 43.7041 238.173 44.7067 227.581C44.7371 227.418 44.8266 227.271 44.9581 227.17C45.0896 227.069 45.2538 227.02 45.4193 227.032C45.5849 227.044 45.74 227.117 45.8551 227.237C45.9701 227.356 46.037 227.514 46.0429 227.68C45.4919 237.714 45.8862 245.39 45.2004 256.261C53.7838 250.234 64.4684 242.815 70.9809 239.438C69.8789 220.654 65.599 192.477 51.0271 180.691C50.8939 180.584 50.7344 180.516 50.5655 180.494C50.3966 180.471 50.2248 180.495 50.0684 180.563C22.367 192.435 6.74197 230.466 8.57019 259.923C9.13794 267.398 11.698 274.584 15.9842 280.734C25.0478 293.52 39.0434 297.208 58.2608 283.356C64.9267 285.469 71.783 284.771 78.7235 283.767C78.9497 283.735 79.1555 283.618 79.2997 283.441C79.4439 283.263 79.5161 283.038 79.502 282.81C79.2475 278.614 79.3335 274.554 79.2526 269.692C75.6214 273.039 66.3371 280.308 65.7355 280.749C64.77 281.481 63.7289 282.107 62.6301 282.616C62.4757 282.673 62.3061 282.671 62.1531 282.611C62 282.551 61.8741 282.438 61.799 282.292C61.7238 282.145 61.7047 281.977 61.7451 281.818C61.7855 281.658 61.8827 281.519 62.0184 281.427C64.2964 279.72 66.4569 277.863 68.4854 275.866C75.1783 270.317 73.5792 272.53 85.696 262.049C86.6683 261.207 87.6253 260.349 88.5605 259.464C88.6612 259.369 88.7366 259.251 88.7798 259.119C88.8231 258.988 88.8328 258.847 88.8082 258.711C87.4843 250.721 84.0688 243.224 78.9088 236.981ZM48.835 188.354C53.5576 198.723 55.5695 210.121 54.6819 221.479C57.1066 220.268 59.4909 218.942 61.7589 217.531C61.9379 217.419 62.1474 217.364 62.3587 217.375C62.5699 217.387 62.7726 217.463 62.9387 217.594C63.1049 217.725 63.2265 217.904 63.2868 218.106C63.347 218.309 63.3431 218.526 63.2754 218.726C61.4796 223.565 59.0597 228.149 56.0771 232.361C58.1189 234.781 59.9028 237.407 61.4 240.196C61.4766 240.367 61.4849 240.561 61.4233 240.738C61.3617 240.914 61.2349 241.061 61.0687 241.147C60.9026 241.233 60.7098 241.253 60.5298 241.201C60.3499 241.15 60.1964 241.031 60.1009 240.87C58.4665 238.035 56.5372 235.381 54.3449 232.951C53.5833 232.043 54.8336 231.78 58.276 225.185C59.0225 223.746 59.7184 222.282 60.3267 220.804C58.3737 221.958 56.1344 223.153 53.9237 224.194C53.7547 224.274 53.5676 224.307 53.3815 224.291C53.1953 224.275 53.0167 224.21 52.8638 224.103C51.7736 223.343 53.0862 222.388 52.6852 212.68C52.4136 204.51 50.6947 196.453 47.6083 188.883C47.5642 188.726 47.5787 188.558 47.649 188.411C47.7192 188.264 47.8405 188.147 47.9903 188.082C48.1402 188.018 48.3083 188.01 48.4636 188.06C48.619 188.11 48.7509 188.214 48.835 188.354Z" fill="#60A600"/>
<path d="M83.7093 235.613C82.9696 235.975 82.0715 236.472 81.3503 236.88C81.2016 236.953 81.0311 236.969 80.8714 236.924C80.7118 236.88 80.5742 236.778 80.4849 236.638C80.3957 236.498 80.361 236.331 80.3876 236.167C80.4143 236.004 80.5002 235.855 80.6292 235.751C81.3571 235.263 82.6174 234.331 83.5644 233.797C83.7361 233.703 83.9349 233.673 84.1267 233.71C84.3185 233.747 84.4914 233.85 84.6159 234.001C88.7174 238.553 91.5899 244.076 92.9617 250.048C93.0125 250.229 93.0051 250.421 92.9403 250.596C92.8755 250.772 92.7568 250.923 92.6011 251.027C91.4848 251.745 90.4154 252.533 89.3996 253.386C89.2534 253.513 89.0629 253.577 88.8698 253.563C88.6767 253.55 88.497 253.46 88.37 253.314C88.2431 253.168 88.1795 252.977 88.193 252.784C88.2066 252.591 88.2964 252.411 88.4425 252.284C89.2614 251.551 90.0601 250.749 91.0778 249.979C89.3287 244.86 86.8467 240.021 83.7093 235.613Z" fill="#191919"/>
<path d="M86.4151 233.013C89.472 227.644 93.5867 222.951 98.5101 219.218C98.6694 219.106 98.7778 218.936 98.8114 218.744C98.8451 218.552 98.8012 218.355 98.6895 218.196C98.5778 218.037 98.4074 217.928 98.2157 217.895C98.024 217.861 97.8269 217.905 97.6676 218.017C91.3825 222.172 87.9569 225.34 85.1986 232.452C85.1462 232.609 85.1537 232.78 85.2196 232.933C85.2855 233.085 85.4052 233.207 85.5558 233.277C85.7064 233.346 85.8773 233.358 86.0359 233.309C86.1944 233.26 86.3294 233.155 86.4151 233.013Z" fill="#191919"/>
<path d="M98.4051 223.584C102.25 221.572 115.526 216.428 116.51 216.076C116.694 216.014 116.846 215.882 116.933 215.708C117.019 215.535 117.033 215.334 116.971 215.15C116.91 214.966 116.777 214.814 116.604 214.728C116.43 214.641 116.229 214.627 116.045 214.689C108.832 216.945 104.614 217.645 97.7126 222.44C97.5839 222.542 97.4968 222.687 97.4677 222.849C97.4386 223.01 97.4694 223.177 97.5544 223.317C97.6394 223.458 97.7727 223.562 97.9294 223.612C98.086 223.661 98.2551 223.651 98.4051 223.584Z" fill="#191919"/>
<path d="M101.437 228.182C104.102 226.639 106.323 226.14 111.715 223.446C113.539 222.47 115.429 221.622 117.37 220.906C117.55 220.849 117.701 220.723 117.791 220.557C117.881 220.391 117.903 220.196 117.853 220.014C117.802 219.831 117.684 219.675 117.521 219.579C117.359 219.482 117.165 219.452 116.981 219.494C114.937 219.994 112.942 220.674 111.019 221.526C107.341 222.907 103.864 224.773 100.68 227.075C100.553 227.183 100.47 227.334 100.447 227.499C100.425 227.664 100.465 227.832 100.559 227.97C100.653 228.108 100.795 228.205 100.957 228.245C101.119 228.284 101.29 228.262 101.437 228.182Z" fill="#191919"/>
<path d="M103.193 232.609C114.277 228.059 114.927 227.695 117.107 227.016C117.292 226.966 117.449 226.845 117.546 226.68C117.643 226.515 117.671 226.319 117.625 226.134C117.578 225.948 117.461 225.788 117.298 225.688C117.136 225.588 116.94 225.555 116.754 225.597C111.685 226.557 106.865 228.536 102.584 231.414C102.445 231.505 102.344 231.644 102.3 231.805C102.257 231.966 102.275 232.137 102.351 232.285C102.426 232.434 102.554 232.549 102.71 232.609C102.865 232.668 103.037 232.668 103.193 232.609Z" fill="#191919"/>
<path d="M93.0596 247.952C97.7068 247.651 100.474 243.352 106.294 237.94C109.259 235.092 112.518 232.567 116.016 230.406C116.179 230.309 116.297 230.152 116.346 229.968C116.395 229.785 116.371 229.589 116.279 229.423C116.187 229.258 116.033 229.134 115.852 229.079C115.67 229.024 115.474 229.042 115.305 229.129C100.711 236.973 98.1752 246.04 92.9433 246.616C92.7791 246.647 92.6323 246.738 92.5314 246.871C92.4305 247.004 92.3826 247.17 92.3971 247.337C92.4116 247.503 92.4874 247.658 92.6098 247.772C92.7322 247.886 92.8925 247.95 93.0596 247.952Z" fill="#191919"/>
<path d="M167.656 261.922C166.605 257.991 165.898 253.976 165.541 249.922C165.511 249.831 165.5 249.735 165.51 249.64C165.519 249.545 165.549 249.453 165.597 249.37C165.644 249.288 165.709 249.216 165.787 249.16C165.864 249.104 165.953 249.066 166.046 249.047C166.14 249.028 166.236 249.029 166.33 249.05C166.423 249.071 166.51 249.112 166.587 249.169C166.663 249.227 166.726 249.3 166.772 249.384C166.818 249.468 166.845 249.56 166.852 249.656C168.083 253.822 169.014 258.07 169.638 262.369C169.666 262.489 169.669 262.613 169.647 262.734C169.624 262.855 169.578 262.97 169.509 263.072C169.441 263.174 169.352 263.261 169.249 263.327C169.145 263.393 169.029 263.438 168.908 263.457C167.992 263.547 167.083 263.7 166.189 263.914C166.005 263.964 165.81 263.941 165.643 263.85C165.476 263.759 165.352 263.607 165.295 263.426C165.238 263.244 165.254 263.048 165.34 262.878C165.425 262.708 165.573 262.578 165.752 262.516C166.477 262.261 166.967 262.094 167.656 261.922Z" fill="#191919"/>
<path d="M170.771 263.112C175.815 266.833 184.787 263.171 190.149 259.742C193.096 257.803 195.842 255.576 198.348 253.093C198.489 252.959 198.571 252.775 198.576 252.58C198.581 252.386 198.508 252.197 198.374 252.056C198.24 251.915 198.055 251.833 197.861 251.828C197.666 251.823 197.478 251.896 197.337 252.03C191.659 257.272 177.341 265.739 171.504 262.01C171.36 261.95 171.199 261.942 171.049 261.987C170.899 262.032 170.77 262.129 170.683 262.259C170.596 262.389 170.558 262.546 170.574 262.701C170.59 262.857 170.66 263.002 170.771 263.112Z" fill="#191919"/>
<path d="M184.706 255.637C189.95 254.269 193.208 251.796 195.967 250.468C196.147 250.395 196.291 250.253 196.366 250.074C196.442 249.894 196.443 249.693 196.37 249.512C196.296 249.332 196.154 249.189 195.975 249.113C195.796 249.038 195.594 249.036 195.414 249.11C191.536 250.518 187.796 252.281 184.243 254.377C184.09 254.449 183.97 254.575 183.906 254.731C183.842 254.887 183.839 255.061 183.897 255.22C183.955 255.378 184.07 255.508 184.22 255.586C184.37 255.663 184.543 255.682 184.706 255.637Z" fill="#191919"/>
<path d="M181.812 251.836C182.468 251.604 183.364 251.644 185.613 250.951C186.936 250.542 188.219 250.011 189.443 249.364C189.621 249.285 189.759 249.138 189.828 248.957C189.897 248.776 189.892 248.574 189.812 248.397C189.733 248.22 189.587 248.081 189.405 248.012C189.224 247.943 189.022 247.949 188.845 248.028C187.91 248.346 183.736 248.771 181.185 250.653C181.049 250.747 180.953 250.888 180.914 251.048C180.875 251.208 180.896 251.377 180.973 251.523C181.05 251.669 181.178 251.781 181.333 251.839C181.488 251.897 181.658 251.896 181.812 251.836Z" fill="#191919"/>
<path d="M82.4149 203.563C81.393 200.489 79.9534 197.571 78.1367 194.89C78.6018 192.43 78.7433 192.548 79.2168 189.715C80.4721 190.601 80.7434 190.913 81.2253 190.815C81.7426 190.699 81.6904 190.492 82.976 187.951C83.0536 187.78 83.0629 187.587 83.0019 187.41C82.9408 187.233 82.8141 187.086 82.6479 186.999C82.4818 186.913 82.2887 186.893 82.1087 186.945C81.9286 186.997 81.7753 187.116 81.6803 187.277L80.8175 188.793C77.5284 186.182 77.3077 185.929 74.3033 183.738C76.0422 181.004 76.8915 180.288 78.5007 177.912C78.6745 177.998 78.8754 178.011 79.0591 177.949C79.2429 177.887 79.3945 177.754 79.4805 177.581C79.5665 177.407 79.58 177.206 79.5179 177.022C79.4558 176.838 79.3232 176.687 79.1494 176.601L78.5259 176.281C78.3659 176.211 78.1866 176.199 78.0188 176.247C77.851 176.295 77.7051 176.4 77.6059 176.544C76.0153 178.714 74.091 180.54 72.5627 182.778C68.3047 181.302 61.2126 179.192 58.1998 177.753C57.4702 177.406 56.9714 178.122 54.8635 179.202C54.5166 179.39 54.1555 179.549 53.7834 179.679C53.6296 179.744 53.5053 179.864 53.4346 180.015C53.3639 180.166 53.3518 180.338 53.4006 180.498C53.4495 180.657 53.5558 180.793 53.6991 180.879C53.8423 180.965 54.0123 180.994 54.176 180.962C55.4163 180.564 56.6218 180.064 57.7802 179.469C62.1173 181.594 66.6556 183.282 71.3276 184.507C69.8716 186.186 68.6583 188.061 67.7234 190.077C67.2499 190.78 66.7916 191.498 66.3434 192.216C65.0796 191.436 63.3104 190.531 61.9203 189.766C61.7707 189.697 61.6009 189.685 61.4431 189.732C61.2853 189.78 61.1504 189.883 61.0638 190.024C60.9773 190.164 60.9452 190.331 60.9735 190.493C61.0018 190.656 61.0887 190.802 61.2176 190.905C62.2589 191.579 64.8387 193.264 66.1041 194.236C66.2048 194.307 66.3188 194.357 66.4392 194.384C66.5597 194.41 66.6843 194.412 66.8054 194.389C66.9266 194.366 67.042 194.319 67.1447 194.251C67.2474 194.183 67.3353 194.095 67.4033 193.992C67.7706 193.469 68.1548 192.959 68.5356 192.445C70.2593 193.971 70.7042 194.538 72.3706 196.162C72.6958 210.18 73.631 221.605 74.642 235.488C74.6525 235.64 74.7028 235.786 74.7878 235.912C74.8729 236.038 74.9896 236.139 75.1264 236.206C75.2631 236.272 75.4149 236.302 75.5666 236.291C75.7182 236.28 75.8642 236.229 75.99 236.144C77.4071 235.153 77.4475 235.326 84.2212 231.69C84.8194 231.37 84.2819 231.286 85.8018 228.782C87.6957 225.666 88.5668 225.292 88.4085 224.67C88.0243 224.657 86.8178 214.476 82.4149 203.563Z" fill="#191919"/>
<path d="M160.349 249.597C160.293 249.446 160.19 249.318 160.054 249.232C159.919 249.145 159.759 249.106 159.599 249.12C151.029 249.625 142.687 250.23 134.292 250.468C123.126 250.781 118.2 250.279 115.814 250.264C108.544 250.198 104.336 251.443 103.249 244.535C103.22 244.348 103.139 244.173 103.015 244.03C102.892 243.887 102.731 243.782 102.55 243.726C101.431 243.36 101.182 244.847 98.3628 246.719C95.5438 248.591 93.8959 248.114 93.9279 249.475C94.2514 261.349 94.2649 271.139 91.8671 282.279C91.8372 282.419 91.836 282.563 91.8636 282.704C91.8912 282.844 91.947 282.977 92.0277 283.096C92.1084 283.214 92.2122 283.314 92.3329 283.391C92.4536 283.468 92.5886 283.52 92.7299 283.543C99.025 284.562 106.488 281.836 112.358 279.377C112.51 279.315 112.644 279.217 112.749 279.092C112.855 278.967 112.93 278.819 112.967 278.659C114.598 271.628 113.459 268.763 114.891 253.915C114.915 253.75 115 253.6 115.129 253.494C115.257 253.388 115.421 253.333 115.587 253.341C115.754 253.348 115.912 253.417 116.031 253.534C116.15 253.651 116.221 253.808 116.231 253.974C116.58 260.802 116.262 267.648 115.284 274.415C122.093 278.577 127.036 278.911 134.83 277.809C145.497 276.292 154.77 271.677 164.223 266.642C164.372 266.563 164.492 266.439 164.568 266.288C164.643 266.137 164.67 265.966 164.644 265.8C164.021 261.803 160.349 249.428 160.349 249.597Z" fill="#60A600"/>
<path d="M100.943 215.467C100.782 212.097 99.7967 196.595 99.4901 191.682C99.4733 191.461 99.3798 191.254 99.2259 191.095C99.072 190.936 98.8674 190.836 98.6476 190.812L97.7562 190.597C95.933 189.943 97.8961 186.829 98.7537 185.104C98.8598 184.882 98.8828 184.629 98.8185 184.392C98.7542 184.154 98.6069 183.948 98.4033 183.81C93.0165 180.232 87.0201 177.672 80.7108 176.256C80.501 176.204 80.2805 176.217 80.0785 176.294C79.8764 176.37 79.7024 176.506 79.5796 176.684C79.4567 176.862 79.3908 177.072 79.3906 177.289C79.3904 177.505 79.4559 177.716 79.5784 177.893C81.5491 181.166 83.0943 184.677 84.1768 188.34C87.8838 198.472 89.1122 209.824 90.2529 220.539C90.2692 220.704 90.3344 220.86 90.4402 220.987C90.546 221.115 90.6875 221.208 90.8465 221.254C91.0054 221.3 91.1746 221.298 91.3322 221.247C91.4898 221.196 91.6286 221.099 91.7307 220.969C92.1923 220.376 92.7122 219.83 93.2825 219.341C94.5193 218.286 98.8195 214.665 99.6367 216.119C99.7301 216.28 99.8813 216.399 100.059 216.452C100.238 216.506 100.429 216.489 100.596 216.406C100.762 216.323 100.89 216.18 100.955 216.005C101.019 215.831 101.015 215.639 100.943 215.467ZM98.9206 210.508C98.5718 210.989 98.3982 210.892 95.1849 211.157C95.9447 212.027 96.7555 212.852 97.613 213.626C97.7636 213.748 97.8595 213.925 97.8795 214.118C97.8996 214.311 97.8422 214.504 97.72 214.654C97.5978 214.805 97.4207 214.901 97.2278 214.921C97.0349 214.941 96.8419 214.883 96.6913 214.761C95.3793 213.496 93.9989 212.303 92.5563 211.189C92.4081 211.092 92.2933 210.952 92.2273 210.788C92.1614 210.624 92.1475 210.443 92.1876 210.271C92.2277 210.099 92.3198 209.943 92.4515 209.825C92.5831 209.706 92.748 209.632 92.9236 209.61L96.9424 209.105C95.7732 204.119 94.2788 199.214 92.4687 194.423C88.7785 184.851 86.8391 184.406 87.9192 183.69C88.067 183.592 88.2473 183.557 88.4211 183.591C88.5948 183.626 88.748 183.727 88.8476 183.874C94.5463 192.117 97.0283 199.687 99.0789 209.726C99.11 209.861 99.1117 210 99.0841 210.135C99.0565 210.27 99.0001 210.397 98.9189 210.508H98.9206Z" fill="#60A600"/>
<path d="M135.615 158.502C135.615 158.502 222.84 159.065 229.24 159.07C230.793 159.095 232.278 159.713 233.391 160.796C234.504 161.879 235.161 163.347 235.228 164.899V223.575C235.266 223.78 235.374 223.966 235.534 224.099C235.694 224.233 235.895 224.306 236.104 224.306C236.312 224.306 236.514 224.233 236.674 224.099C236.834 223.966 236.942 223.78 236.979 223.575V164.899C237.013 163.865 236.837 162.835 236.463 161.871C236.088 160.907 235.522 160.029 234.8 159.289C234.077 158.549 233.212 157.963 232.258 157.566C231.303 157.169 230.277 156.97 229.243 156.979C222.84 156.96 135.615 157.161 135.615 157.161C135.448 157.178 135.294 157.256 135.182 157.379C135.07 157.503 135.008 157.665 135.008 157.832C135.008 157.999 135.07 158.16 135.182 158.284C135.294 158.408 135.448 158.486 135.615 158.502Z" fill="#191919"/>
<path d="M104.779 156.642C104.122 156.619 103.467 156.728 102.853 156.963C102.239 157.198 101.679 157.554 101.206 158.01C100.732 158.466 100.355 159.012 100.097 159.617C99.839 160.221 99.7052 160.872 99.7036 161.529C99.6497 168.09 100.108 175.535 100.406 182.086C100.41 182.28 100.492 182.464 100.632 182.598C100.772 182.733 100.96 182.806 101.154 182.801C101.347 182.797 101.532 182.716 101.666 182.576C101.8 182.436 101.873 182.248 101.869 182.054C101.877 171.014 101.806 165.266 101.636 161.497C101.609 161.06 101.669 160.621 101.813 160.207C101.957 159.793 102.181 159.412 102.474 159.085C102.766 158.759 103.12 158.493 103.516 158.305C103.912 158.116 104.341 158.008 104.779 157.987V156.642Z" fill="#191919"/>
<path d="M101.585 191.552C101.273 199.582 101.456 207.623 102.133 215.631C102.138 215.824 102.219 216.008 102.359 216.141C102.499 216.275 102.687 216.347 102.88 216.342C103.074 216.338 103.257 216.256 103.391 216.116C103.525 215.976 103.597 215.789 103.592 215.595C103.86 207.563 103.635 199.523 102.918 191.518C102.89 191.359 102.806 191.215 102.681 191.113C102.556 191.011 102.399 190.957 102.237 190.961C102.076 190.965 101.921 191.027 101.801 191.135C101.682 191.244 101.605 191.392 101.585 191.552Z" fill="#191919"/>
<path d="M103.629 242.508C103.622 243.363 103.786 244.21 104.112 245.001C104.437 245.791 104.918 246.508 105.525 247.11C106.132 247.711 106.853 248.185 107.647 248.504C108.44 248.822 109.289 248.978 110.143 248.964C115.692 248.886 209.907 246.15 209.907 246.15C210.101 246.144 210.284 246.061 210.417 245.92C210.549 245.779 210.621 245.592 210.615 245.398C210.609 245.205 210.527 245.021 210.386 244.889C210.245 244.756 210.057 244.685 209.863 244.69C209.863 244.69 115.647 247.201 110.111 247.407C109.451 247.43 108.792 247.321 108.174 247.086C107.556 246.851 106.991 246.495 106.513 246.039C106.034 245.582 105.652 245.035 105.388 244.429C105.125 243.822 104.985 243.169 104.977 242.508H103.629Z" fill="#191919"/>
<path d="M249.033 86.8091C250.982 82.2596 253.245 78.2375 255.267 74.2187C255.352 74.0528 255.487 73.9183 255.654 73.8352C255.82 73.752 256.009 73.7245 256.193 73.7568C256.376 73.7891 256.544 73.8794 256.672 74.0144C256.801 74.1494 256.882 74.3221 256.905 74.5069C257.439 79.1541 258.17 86.7535 258.533 92.2348C258.544 92.392 258.499 92.5481 258.406 92.6759C258.314 92.8036 258.18 92.895 258.027 92.934C258.075 93.0395 258.097 93.1549 258.092 93.2707C258.086 93.3864 258.053 93.4992 257.996 93.5998C257.938 93.7003 257.858 93.7857 257.76 93.849C257.663 93.9122 257.553 93.9515 257.437 93.9636C249.827 94.9599 242.521 97.5865 236.018 101.664C235.821 101.779 235.589 101.817 235.366 101.768C235.143 101.72 234.947 101.589 234.816 101.403C231.866 97.2628 228.376 93.4058 225.278 89.7292C225.141 89.5554 225.066 89.3418 225.063 89.121C225.059 88.9003 225.128 88.6845 225.259 88.5067C225.39 88.3288 225.575 88.1987 225.787 88.1362C225.999 88.0737 226.225 88.0822 226.432 88.1604L236.924 92.3729C237.11 89.9482 238.09 79.2805 238.414 76.3924C238.438 76.1886 238.521 75.9964 238.653 75.8389C238.785 75.6814 238.959 75.5654 239.155 75.505C239.351 75.4445 239.561 75.4422 239.758 75.4983C239.955 75.5545 240.132 75.6666 240.267 75.8212C243.459 79.5366 246.038 82.9049 249.033 86.8091ZM255.55 77.5719C253.697 81.3075 251.693 85.3027 250.239 89.1681C250.174 89.3334 250.066 89.4787 249.927 89.5892C249.788 89.6997 249.622 89.7716 249.446 89.7975C249.27 89.8235 249.091 89.8027 248.926 89.7371C248.76 89.6716 248.615 89.5636 248.505 89.4242C246.567 86.9337 241.078 80.0556 240.266 79.0833C240.048 81.1441 239.142 91.0654 238.918 93.9501C238.905 94.1143 238.854 94.2732 238.769 94.414C238.683 94.5548 238.566 94.6735 238.426 94.7603C238.286 94.8472 238.128 94.8998 237.964 94.9139C237.8 94.928 237.635 94.9032 237.482 94.8415L229.461 91.5928C231.652 94.2045 233.869 96.8921 235.841 99.6808C242.397 95.8281 249.686 93.3861 257.24 92.5111C257.166 92.3325 256.49 84.9404 255.55 77.5719Z" fill="#60A600"/>
<path d="M208.289 106.259C212.284 105.901 216.227 105.098 220.045 103.866C220.235 103.826 220.4 103.711 220.506 103.548C220.611 103.385 220.647 103.187 220.606 102.997C220.565 102.807 220.451 102.642 220.288 102.536C220.125 102.431 219.926 102.395 219.737 102.436C215.718 102.739 211.76 103.589 207.972 104.963C207.822 105.024 207.699 105.137 207.625 105.281C207.551 105.425 207.532 105.591 207.57 105.748C207.609 105.906 207.702 106.044 207.834 106.138C207.966 106.231 208.128 106.275 208.289 106.259Z" fill="#60A600"/>
<path d="M212.122 77.5213C218.49 80.0488 219.659 79.7505 223.562 81.0092C223.74 81.0704 223.935 81.0606 224.106 80.9817C224.277 80.9029 224.412 80.7611 224.481 80.5858C224.55 80.4106 224.55 80.2153 224.479 80.0406C224.408 79.8659 224.273 79.7252 224.101 79.6477C220.446 77.8723 216.52 76.718 212.486 76.2323C212.323 76.2055 212.155 76.2398 212.015 76.3287C211.876 76.4176 211.773 76.5549 211.728 76.7142C211.683 76.8736 211.699 77.044 211.771 77.1928C211.844 77.3417 211.969 77.4586 212.122 77.5213Z" fill="#60A600"/>
<path d="M237.106 57.3992C237.171 61.2681 237.963 65.0904 239.44 68.6668C239.491 68.854 239.615 69.0133 239.783 69.1095C239.952 69.2057 240.152 69.231 240.339 69.1798C240.526 69.1287 240.686 69.0052 240.782 68.8366C240.878 68.668 240.903 68.4681 240.852 68.2809C240.47 66.3667 240.241 64.4745 239.61 61.5898C239.157 59.5459 238.803 58.5803 238.431 57.1902C238.388 57.0291 238.287 56.8896 238.147 56.7986C238.008 56.7077 237.839 56.6717 237.674 56.6977C237.51 56.7237 237.361 56.8097 237.256 56.9393C237.151 57.0689 237.098 57.2327 237.106 57.3992Z" fill="#60A600"/>
<path d="M262.48 69.6727C263.435 68.6617 264.625 67.5412 265.772 66.2016C267.639 64.0633 268.959 62.2334 270.265 60.6276C270.33 60.5576 270.381 60.4753 270.415 60.3856C270.449 60.2958 270.464 60.2003 270.461 60.1044C270.458 60.0086 270.436 59.9143 270.396 59.827C270.356 59.7397 270.3 59.6611 270.23 59.5956C270.16 59.5301 270.078 59.479 269.988 59.4453C269.898 59.4116 269.803 59.3959 269.707 59.3991C269.611 59.4023 269.517 59.4243 269.429 59.464C269.342 59.5036 269.263 59.5601 269.198 59.6301C266.094 62.2334 263.463 65.3532 261.422 68.8521C261.336 68.9935 261.305 69.1615 261.336 69.3241C261.366 69.4867 261.455 69.6325 261.585 69.7338C261.716 69.8352 261.879 69.8849 262.044 69.8737C262.209 69.8624 262.364 69.7909 262.48 69.6727Z" fill="#60A600"/>
<path d="M269.39 87.3482C276.845 83.9007 278.612 82.4735 281.777 81.2468C281.955 81.1822 282.101 81.051 282.185 80.8809C282.269 80.7107 282.283 80.5148 282.225 80.3343C282.167 80.1537 282.042 80.0026 281.875 79.9126C281.708 79.8226 281.513 79.8007 281.33 79.8516C279.017 80.443 276.779 81.3008 274.663 82.4078C272.593 83.5125 270.61 84.7731 268.732 86.1788C268.594 86.2744 268.496 86.4182 268.459 86.5818C268.421 86.7455 268.446 86.9174 268.528 87.0637C268.611 87.21 268.745 87.3203 268.904 87.3729C269.064 87.4255 269.237 87.4167 269.39 87.3482Z" fill="#60A600"/>
<path d="M148.542 114.982C148.625 114.902 148.691 114.807 148.736 114.701C148.781 114.595 148.804 114.481 148.804 114.366C148.804 114.251 148.781 114.138 148.736 114.032C148.691 113.926 148.625 113.83 148.542 113.751C148.711 113.751 134.599 101.6 129.82 97.278C129.665 97.139 129.472 97.0475 129.266 97.0145C129.06 96.9814 128.849 97.0082 128.658 97.0916C128.467 97.175 128.303 97.3115 128.188 97.4849C128.072 97.6583 128.008 97.8614 128.004 98.07C127.8 110.707 128.467 123.513 128.405 130.59C128.403 130.808 128.465 131.022 128.583 131.205C128.701 131.388 128.869 131.533 129.068 131.623C129.267 131.712 129.487 131.741 129.702 131.708C129.917 131.674 130.118 131.579 130.28 131.433C130.836 130.919 148.551 114.78 148.542 114.982ZM130.176 100.471C130.176 110.229 130.765 117.695 130.693 128.105C136.38 123.116 140.855 119.313 146.852 114.42C145.127 113.007 131.94 101.993 130.167 100.471H130.176Z" fill="#191919"/>
<path d="M192.146 70.8301C192.183 70.9246 192.242 71.0091 192.318 71.0766C192.394 71.1441 192.485 71.1929 192.583 71.2189C192.682 71.245 192.785 71.2476 192.884 71.2266C192.984 71.2056 193.077 71.1616 193.157 71.098C193.325 71.098 207.036 61.325 213.334 57.0232C213.489 56.9125 213.609 56.7604 213.682 56.5843C213.754 56.4083 213.775 56.2155 213.742 56.0281C213.709 55.8406 213.625 55.6662 213.497 55.5248C213.37 55.3834 213.206 55.2807 213.023 55.2287C202.397 52.3793 188.981 49.7878 181.85 47.9731C181.656 47.9232 181.452 47.931 181.262 47.9956C181.072 48.0601 180.905 48.1785 180.782 48.3364C180.658 48.4942 180.583 48.6847 180.566 48.8844C180.549 49.0841 180.591 49.2845 180.686 49.4609C181.515 50.9741 192.164 70.6582 192.146 70.8301ZM183.581 50.5562C185.097 53.4561 191.37 66.0177 192.985 69.4046C194.686 68.1257 208.5 57.9803 210.402 56.6373C207.797 56.0021 184.91 50.8965 183.581 50.5562Z" fill="#60A600"/>
<path d="M73.9893 90.4789H73.9269C74.4324 88.3676 75.3137 85.2824 75.6203 83.2233C75.6498 83.0107 75.6012 82.7947 75.4834 82.6152C75.3656 82.4358 75.1868 82.3052 74.98 82.2477C71.0849 81.0004 67.1114 80.0125 63.0856 79.2905C62.9446 79.2669 62.8002 79.2719 62.6612 79.3053C62.5221 79.3387 62.3912 79.3997 62.2762 79.4848C62.1613 79.5699 62.0646 79.6772 61.9921 79.8005C61.9195 79.9237 61.8725 80.0603 61.8539 80.2021C61.3079 84.6437 60.8682 87.3347 60.3728 92.3947C60.3565 92.5459 60.3759 92.6987 60.4296 92.8409C60.4832 92.9832 60.5694 93.1108 60.6814 93.2136C60.7934 93.3164 60.9279 93.3915 61.0742 93.4327C61.2205 93.474 61.3744 93.4804 61.5236 93.4512C73.2529 91.0754 73.8191 91.2287 73.9893 90.4789ZM63.8102 81.5669L62.4773 91.3214C63.4883 91.1529 71.6303 89.8622 72.7087 89.6988C73.0642 87.7324 73.4854 85.8233 73.7668 83.7777C70.9849 83.0834 66.6207 82.0775 63.8102 81.5703V81.5669Z" fill="#191919"/>
<path d="M148.315 64.1052C140.462 67.7634 146.688 75.7907 136.596 82.2004C136.431 82.3017 136.312 82.4645 136.266 82.6532C136.221 82.8418 136.252 83.0408 136.354 83.2064C136.455 83.372 136.618 83.4905 136.806 83.536C136.995 83.5816 137.194 83.5502 137.359 83.449C149.414 76.3922 142.517 69.1804 148.949 65.2864C149.086 65.1926 149.184 65.0514 149.224 64.8898C149.263 64.7282 149.242 64.5577 149.163 64.4111C149.084 64.2645 148.954 64.1521 148.798 64.0957C148.641 64.0392 148.469 64.0426 148.315 64.1052Z" fill="#191919"/>
<path d="M159.161 78.6015C155.198 78.1987 153.623 82.0995 151.823 83.9935C150.648 85.1758 149.202 86.0531 147.61 86.5491C146.018 87.0451 144.33 87.1447 142.691 86.8394C142.501 86.7992 142.303 86.8359 142.141 86.9414C141.979 87.047 141.865 87.2127 141.825 87.4022C141.784 87.5917 141.821 87.7894 141.927 87.9518C142.032 88.1142 142.198 88.2281 142.387 88.2683C144.298 88.8411 146.329 88.8826 148.261 88.3883C150.194 87.894 151.956 86.8826 153.357 85.4628C155.537 83.1897 156.159 80.0135 159.113 79.9393C159.277 79.9261 159.431 79.8528 159.545 79.7335C159.66 79.6142 159.726 79.4571 159.732 79.2921C159.738 79.1271 159.683 78.9656 159.578 78.8383C159.473 78.711 159.325 78.6267 159.161 78.6015Z" fill="#191919"/>
<path d="M126.508 57.7984C124.7 54.3178 121.907 51.4473 118.476 49.546C115.046 47.6446 111.131 46.7968 107.221 47.1085C103.311 47.4202 99.5804 48.8776 96.4946 51.2984C93.4087 53.7193 91.105 56.9961 89.8715 60.7192C88.638 64.4423 88.5295 68.4465 89.5595 72.2309C90.5895 76.0154 92.7124 79.4122 95.6626 81.9966C98.6128 84.581 102.259 86.2383 106.147 86.7613C110.034 87.2843 113.989 86.6498 117.517 84.937C119.886 83.7457 121.997 82.0988 123.729 80.0906C125.46 78.0825 126.779 75.7526 127.609 73.2342C128.44 70.7158 128.765 68.0584 128.567 65.4141C128.369 62.7698 127.652 60.1904 126.456 57.8237L126.508 57.7984ZM125.224 58.4084C126.325 60.5702 126.981 62.9305 127.153 65.35C127.326 67.7695 127.013 70.1991 126.231 72.4954C125.449 74.7916 124.215 76.908 122.602 78.7194C120.989 80.5308 119.029 82.0006 116.838 83.0419C114.647 84.0833 112.27 84.6751 109.847 84.7823C107.423 84.8896 105.003 84.5102 102.729 83.6665C100.455 82.8229 98.3727 81.532 96.6056 79.8703C94.8386 78.2085 93.4225 76.2095 92.4409 73.9913C91.3263 71.8316 90.6575 69.4697 90.4741 67.0463C90.2907 64.6229 90.5965 62.1873 91.3733 59.8844C92.1501 57.5816 93.382 55.4584 94.9959 53.6412C96.6097 51.824 98.5725 50.3499 100.768 49.3066C102.963 48.2632 105.345 47.6719 107.773 47.5677C110.201 47.4636 112.625 47.8488 114.902 48.7005C117.178 49.5521 119.26 50.8528 121.023 52.5252C122.787 54.1975 124.196 56.2074 125.167 58.4354L125.224 58.4084Z" fill="#60A600"/>
<path d="M174.946 120.641C174.036 120.624 173.131 120.787 172.285 121.121C171.438 121.455 170.665 121.953 170.012 122.586C169.358 123.22 168.836 123.976 168.475 124.812C168.115 125.647 167.923 126.546 167.911 127.456C167.897 128.391 168.068 129.319 168.416 130.187C168.764 131.055 169.28 131.845 169.936 132.511C170.592 133.177 171.374 133.706 172.236 134.067C173.098 134.428 174.024 134.614 174.959 134.614C175.893 134.614 176.819 134.428 177.681 134.067C178.543 133.706 179.325 133.177 179.981 132.511C180.637 131.845 181.153 131.055 181.501 130.187C181.849 129.319 182.02 128.391 182.006 127.456C181.989 126.548 181.793 125.652 181.429 124.82C181.064 123.988 180.539 123.237 179.883 122.609C179.226 121.981 178.452 121.489 177.605 121.162C176.758 120.834 175.854 120.678 174.946 120.701V120.641ZM174.946 122.046C176.338 122.093 177.655 122.688 178.611 123.701C179.567 124.714 180.085 126.064 180.051 127.456C180.017 128.791 179.463 130.059 178.507 130.991C177.551 131.923 176.269 132.444 174.934 132.444C173.599 132.444 172.317 131.923 171.361 130.991C170.405 130.059 169.851 128.791 169.817 127.456C169.792 126.068 170.317 124.726 171.278 123.724C172.239 122.722 173.558 122.14 174.946 122.107V122.046Z" fill="#191919"/>
</svg>
