<svg width="315" height="316" viewBox="0 0 315 316" fill="none" xmlns="http://www.w3.org/2000/svg">
<path d="M153.696 178.141C155.094 171.55 151.525 166.014 149.443 154.927C148.931 152.212 148.388 149.271 147.818 146.57C147.523 145.173 145.419 145.487 145.651 146.802C147.087 160.963 152.182 169.482 152.692 177.908C152.617 178.681 153.696 178.681 153.696 178.141Z" fill="#191919"/>
<path d="M151.84 144.945C151.878 146.881 153.516 148.978 154.239 150.749C155.508 153.863 156.08 157.334 157.565 160.344C158.258 161.747 159.268 161.237 159.268 160.73C159.439 159.121 159.2 157.495 158.572 156.005C157.369 152.105 155.651 148.384 153.464 144.939C153.155 144.249 151.813 143.63 151.84 144.945Z" fill="#191919"/>
<path d="M161.048 145.715C162.706 149.713 164.074 153.825 165.143 158.019C165.389 159.022 165.989 160.482 167.31 159.876C170.933 158.216 163.768 146.786 162.667 145.173C162.141 144.397 160.739 144.634 161.048 145.715Z" fill="#191919"/>
<path d="M230.302 287.323C230.315 287.212 230.287 287.101 230.225 287.008C226.883 271.187 218.143 246.016 210.881 232.611C209.476 229.979 207.675 227.578 205.542 225.492C203.567 223.602 198.552 222.638 197.727 220.307C195.731 214.679 193.811 209.027 191.846 203.284C191.291 201.664 191.148 198.874 189.137 198.641C187.899 198.492 186.746 199.429 185.733 199.956C177.615 204.169 166.045 205.058 157.024 205.141C157.148 204.984 157.228 204.797 157.257 204.599C157.254 203.106 156.878 201.637 156.163 200.326C155.448 199.015 154.416 197.904 153.162 197.093C150.614 194.92 148.421 192.361 146.662 189.511C143.721 183.553 141.014 177.361 138.537 171.172C142.789 172.274 144.529 172.254 149.061 178.445C150.064 180.211 151.374 181.783 152.93 183.088C153.693 183.57 155.547 183.636 154.942 182.236C153.622 179.813 151.954 177.597 149.99 175.659C148.397 173.524 146.462 171.668 144.263 170.165C141.915 168.839 139.196 168.322 136.525 168.696C136.203 168.807 135.936 169.037 135.777 169.339C135.619 169.641 135.583 169.991 135.675 170.319C138.077 176.952 140.867 183.438 144.032 189.742C145.202 192.216 146.86 194.427 148.906 196.242C151.637 198.614 154.323 201.117 155.406 204.905C155.406 205.209 156.109 205.138 153.239 205.138C152.822 205.18 152.433 205.364 152.136 205.66C151.84 205.957 151.655 206.346 151.614 206.763C151.614 210.858 157.914 232.622 157.03 234.619C150.258 249.953 156.019 267.902 167.786 305.111C168.082 306.045 168.888 307.141 169.644 306.659C170.117 306.36 170.107 305.653 170.107 305.111C167.643 283.061 154.728 264.004 157.572 242.048C157.923 239.334 159.399 236.553 159.508 233.923C159.868 225.103 154.94 216.667 155.255 207.845C165.856 208.929 181.643 205.989 188.374 202.197C186.903 202.971 194.249 222.324 196.421 223.709C199.484 225.66 202.45 223.011 208.106 233.304C217.277 249.999 221.029 269.056 227.915 286.773C228.075 287.303 228.368 287.782 228.767 288.166C229.479 288.774 230.597 288.204 230.302 287.323Z" fill="#191919"/>
<path d="M104.56 90.9335C106.417 87.2968 104.717 81.011 102.082 78.0894C99.0017 74.6716 94.7193 72.5359 91.0952 69.7324C75.5578 57.7136 67.4702 47.5249 59.1369 39.3995C57.532 37.8245 53.7945 39.62 52.0966 40.1728C29.5836 47.506 8.36833 68.778 8.45338 92.3227C8.45338 94.0252 13.0209 96.3421 14.1801 97.1201C22.9892 102.765 32.5494 107.141 42.5789 110.12C55.9664 114.357 70.3572 115.149 83.5116 109.578L96.9763 120.643C105.371 116.461 112.047 109.486 115.856 100.916L104.56 90.9335ZM91.3299 105.249C95.3448 106.873 99.1611 108.95 102.705 111.44C103.557 112.524 103.246 113.065 101.931 112.832C100.848 112.832 92.1662 107.758 90.325 106.874C88.6051 106.052 89.3926 104.398 91.3267 105.249H91.3299ZM106.187 108.189C105.645 108.504 97.5244 102.773 95.8958 101.458C95.1225 100.684 96.1273 98.9818 97.2109 99.8323C100.477 101.82 103.629 103.99 106.651 106.332C107.499 106.565 106.959 108.422 106.184 108.189H106.187ZM110.517 104.167C109.976 104.167 102.393 97.9753 101.078 96.8917C99.4522 95.8097 100.763 93.9528 102.701 95.0348C104.327 96.1184 111.6 101.768 112.142 102.85C112.917 104.167 111.6 105.249 110.517 104.167Z" fill="#60A600"/>
<path d="M129.474 112.832C127.308 111.44 116.784 102.309 116.474 102.309C116.403 102.308 116.332 102.321 116.265 102.347C116.199 102.374 116.139 102.413 116.088 102.464C116.038 102.514 115.998 102.575 115.971 102.641C115.945 102.707 115.932 102.778 115.934 102.85V103.165C116.474 104.557 125.645 113.746 128.082 115.313C129.454 116.196 131.564 114.539 132.649 113.92C137.099 112.585 140.603 113.868 144.566 116.319C145.863 117.122 147.273 119.028 148.898 119.028C149.093 119.053 149.289 119.002 149.447 118.887C149.605 118.771 149.713 118.6 149.749 118.408C149.747 114.372 135.963 106.579 129.474 112.832Z" fill="#191919"/>
<path d="M135.127 158.409C133.502 156.551 119.96 139.528 119.418 138.445C118.336 135.737 120.735 133.339 120.735 131.713C120.735 131.48 103.479 119.332 101.854 118.713C101.312 118.713 101.081 119.255 101.312 119.797C102.396 121.189 117.02 131.713 117.253 131.713C116.164 133.179 115.623 134.979 115.721 136.802C115.82 138.625 116.554 140.356 117.794 141.696C122.205 147.922 127.094 153.794 132.418 159.26C135.176 162.153 140.002 165.76 138.61 162.2C137.574 160.827 136.408 159.558 135.127 158.409Z" fill="#191919"/>
<path d="M103.794 184.873C105.188 184.099 104.884 182.49 103.479 183.016C102.591 183.324 101.687 183.582 100.77 183.789C100.3 183.043 99.9352 182.236 99.6864 181.39C99.1446 180.075 97.8295 180.307 98.0626 181.705C98.0626 182.556 99.4549 186.811 99.9195 186.811C100.538 187.04 103.479 185.181 103.794 184.873Z" fill="#60A600"/>
<path d="M136.441 185.181C135.126 185.181 130.252 185.496 128.858 185.496C126.513 185.491 124.23 186.252 122.358 187.663C119.909 188.766 109.841 194.222 109.591 194.472C109.047 192.84 107.49 190.932 108.043 190.062C108.941 188.837 109.486 187.389 109.62 185.876C109.753 184.363 109.469 182.842 108.799 181.479C108.13 180.115 107.099 178.961 105.82 178.142C104.54 177.323 103.061 176.87 101.543 176.832C100.924 176.059 100.227 175.208 99.4541 174.356C103.639 172.341 106.981 168.917 108.895 164.684C109.974 161.915 111.519 159.35 113.462 157.101C115.861 154.935 119.052 154.336 121.279 151.994C122.334 150.892 120.964 149.054 119.654 150.137C117.255 151.761 114.546 152.845 112.07 154.705C105.877 160.044 107.866 163.271 102.398 169.33C100.944 170.593 99.3314 171.66 97.6004 172.502C96.2277 171.125 94.6639 169.952 92.9573 169.02C90.4814 167.396 88.9331 169.02 86.999 170.414C85.0649 171.808 83.2033 173.35 81.5826 174.747C80.4187 175.75 81.3511 176.991 82.6662 178.152C80.3762 179.029 21.205 202.267 8.69161 204.455C7.60801 204.996 7.60801 206.62 8.69161 206.389C22.9879 204.746 72.1641 185.641 85.6067 180.389C87.5473 182.108 89.3819 183.943 91.1003 185.884C90.327 189.133 92.1839 192.382 95.975 193.699C97.1329 196.729 97.5314 199.997 97.1357 203.217C93.9637 204.918 90.7901 206.776 87.9283 208.556C82.5119 211.495 77.3963 214.498 71.9877 217.453C62.8716 222.435 35.8856 236.484 20.375 243.685C19.8347 243.685 20.375 245.001 21.1499 244.768C43.9918 235.224 66.1931 224.213 87.6149 211.805C96.2868 206.839 96.6648 205.234 95.9718 206.62C95.8491 206.863 95.7707 207.125 95.7403 207.395C95.7819 207.812 95.9663 208.201 96.2623 208.497C96.5583 208.793 96.9476 208.977 97.3641 209.019C101.389 208.813 105.334 207.814 108.972 206.078C111.679 205.305 111.964 202.038 111.139 199.347C110.894 198.61 110.687 197.861 110.519 197.102C111.973 196.328 113.37 195.449 114.697 194.472C117.406 192.847 125.766 187.953 128.472 188.282C130.872 188.574 135.203 187.967 137.134 186.424C137.215 186.035 136.983 185.181 136.441 185.181ZM103.71 190.287C98.6036 192.995 92.3351 188.43 94.811 182.704C95.0441 181.311 99.4037 178.073 102.626 179.455C110.043 182.634 105.412 189.205 103.71 190.287Z" fill="#191919"/>
<path d="M193.469 163.051C189.476 163.573 185.57 164.624 181.854 166.176C180.594 162.977 179.124 159.866 177.453 156.861C175.779 153.511 173.756 150.347 171.418 147.421C170.644 146.569 169.102 146.791 169.638 147.652C176.629 158.732 181.241 171.143 183.183 184.099C183.97 190.412 183.54 192.066 184.267 197.329C184.582 198.411 186.108 198.95 186.434 197.644C187.511 193.297 186.665 189.851 186.665 187.122C186.14 180.653 184.774 174.28 182.603 168.164C185.309 168.227 188.273 166.179 194.791 165.455C196.648 165.14 202.886 167.066 203.998 164.913C205.805 161.402 194.786 162.742 193.469 163.051Z" fill="#191919"/>
<path d="M255.528 50.3866C231.074 80.7211 236.557 74.5251 226.124 88.6134C215.654 84.0059 205.542 78.6261 195.87 72.5185L186.815 67.0233C195.408 53.7666 215.619 11.8401 215.833 10.0729C215.813 9.8928 215.743 9.72206 215.629 9.58106C215.515 9.44006 215.363 9.33474 215.191 9.27764C215.019 9.22055 214.835 9.21408 214.659 9.25903C214.484 9.30397 214.325 9.39842 214.201 9.53113C212.648 11.1392 195.7 45.5545 192.309 51.7805C189.699 56.3919 187.348 61.1453 185.267 66.0185C183.783 64.7515 181.877 64.0886 179.928 64.1616C178.535 64.3931 178.071 65.7854 177.529 67.1021C174.588 71.9767 172.311 77.3207 169.172 82.2678C166.121 87.0747 162.672 91.7083 159.963 96.8145V97.3626C159.963 97.75 161.511 99.4526 165.148 102.393L162.362 105.874C159.182 110.468 155.904 107.835 152.458 109.279C150.524 110.131 147.891 111.678 147.891 114.076C147.911 114.255 147.982 114.425 148.096 114.564C148.209 114.704 148.36 114.808 148.531 114.865C148.701 114.922 148.885 114.929 149.059 114.886C149.234 114.842 149.392 114.749 149.516 114.618C151.243 112.668 153.596 111.382 156.17 110.982C161.625 110.32 161.549 110.933 166.461 103.398C173.136 108.75 180.226 113.562 187.664 117.79C187.469 117.905 187.306 118.067 187.192 118.263C186.206 119.481 185.734 121.035 185.876 122.596C186.217 123.904 187.502 125.305 185.876 127.478C185.473 127.925 185.163 128.449 184.966 129.019C182.012 127.253 178.791 125.976 175.43 125.238C170.555 124.155 165.68 124.697 160.806 124.697C156.936 124.658 153.088 125.286 149.431 126.554C148.812 126.554 149.431 127.637 149.973 127.637C155.903 127.637 170.432 125.199 179.995 129.804C182.17 130.744 184.181 132.024 185.954 133.595C187.648 135.183 189.547 136.537 191.602 137.62L206.227 143.578C207.619 144.118 206.227 140.095 206.227 140.095C196.827 136.336 191.813 134.996 188.115 131.433C187.8 131.131 187.466 130.85 187.129 130.575C188.168 129.721 188.94 128.585 189.351 127.304C189.763 126.022 189.796 124.65 189.447 123.35C189.059 122.483 188.773 121.574 188.595 120.641C188.937 120.039 189.247 119.419 189.524 118.784C193.934 121.106 204.69 126.445 205.154 122.731C205.154 121.956 209.179 119.791 209.722 118.938C214.86 114.505 227.145 104.252 230.537 98.9754C231.619 97.35 234.018 95.493 234.018 93.3259C234.843 90.3034 229.578 90.0435 227.674 89.3033C232.328 84.183 232.763 83.6664 245.703 66.8627C247.637 64.464 255.685 52.0057 256.536 51.1552C258.237 48.7628 257.153 47.9076 255.528 50.3866ZM229.917 94.4158C229.219 94.4158 206.547 119.101 204.458 120.106C202.833 120.958 201.196 119.835 199.584 119.332C180.654 113.437 168.035 99.6227 162.363 97.2051C166.653 92.72 170.346 87.7006 173.352 82.2709C175.779 78.146 179.318 71.2018 179.775 70.123C180.09 69.3544 180.649 67.8046 180.877 67.2879C194.759 75.0968 215.619 89.7301 229.917 94.4158Z" fill="#191919"/>
<path d="M150.214 134.112C153.064 134.169 155.912 132.951 160.196 132.951C161.537 133.041 162.882 133.016 164.219 132.874C164.476 132.836 164.717 132.727 164.916 132.559C165.069 132.412 165.168 132.217 165.197 132.006C165.225 131.796 165.182 131.581 165.074 131.398C164.378 130.471 162.675 130.554 161.669 130.471C158.244 129.968 154.747 130.479 151.609 131.94C151.064 132.178 148.28 134.073 150.214 134.112Z" fill="#191919"/>
<path d="M151.144 140.302C152.212 141.552 154.547 141.371 156.018 141.308C160.499 141.116 166.01 142.277 165.613 140.225C165.464 139.45 164.144 138.902 163.523 138.755C160.438 138.021 156.792 138.44 153.62 138.44C152.775 138.445 149.966 138.924 151.144 140.302Z" fill="#191919"/>
<path d="M139.999 155.623C141.039 157.305 141.82 159.046 142.707 160.808C143.376 162.137 144.702 161.429 144.565 160.11C144.258 157.167 140.554 151.964 138.607 149.742C137.993 149.041 137.523 150.215 137.523 150.593C137.523 152.064 139.176 154.291 139.999 155.623Z" fill="#191919"/>
<path d="M161.199 210.871C161.217 212.305 161.399 213.732 161.741 215.124C162.431 220.232 163.762 225.413 164.373 230.6C164.854 235.924 165.061 241.27 164.992 246.616C164.983 247.21 165.009 247.805 165.069 248.396C166.406 267.474 171.92 281.606 178.532 298.383C179.081 300.025 179.891 301.567 180.931 302.951C181.086 303.097 181.28 303.195 181.489 303.233C181.699 303.271 181.915 303.248 182.111 303.166C182.308 303.084 182.477 302.947 182.597 302.771C182.717 302.595 182.784 302.389 182.789 302.176C182.632 299.341 181.95 299.013 176.831 284.851C164.641 251.111 169.474 245.087 167.468 229.757C166.962 226.463 166.238 223.206 165.301 220.008C164.668 216.991 163.841 214.019 162.825 211.109C162.667 210.637 161.818 208.788 161.278 210.103C161.278 210.331 161.199 210.563 161.199 210.871Z" fill="#191919"/>
<path d="M169.405 213.27C177.881 266.235 187.351 275.777 194.864 299.471C195.417 300.574 197.571 300.574 197.571 298.999V298.534C191.051 277.231 185.37 274.534 175.441 232.069C173.916 225.545 172.5 219.069 170.873 212.646C170.511 211.74 169.04 212.355 169.405 213.27Z" fill="#191919"/>
<path d="M176.988 210.331C178.618 228.265 188.061 234.961 202.678 278.656C206.716 290.727 206.773 291.272 208.868 295.68C209.41 297.072 211.254 295.995 211.035 294.905C210.443 292.064 209.641 289.271 208.636 286.548C204.261 274.454 204.178 273.318 200.048 262.407C193.02 243.836 189.865 239.147 184.649 229.133C181.559 223.174 179.293 216.822 177.916 210.252C177.453 208.937 176.988 209.789 176.988 210.331Z" fill="#191919"/>
<path d="M183.96 205.688C184.469 211.339 186.018 216.848 188.527 221.937C189.808 224.472 191.538 226.753 193.635 228.669C196.005 230.59 198.254 232.658 200.367 234.86C202.267 237.225 203.806 239.859 204.934 242.675C206.444 246.29 212.541 259.384 216.232 270.764C221.465 286.909 220.694 286.797 222.421 292.352C222.963 293.744 225.13 293.436 224.82 292.037C222.076 275.572 211.173 248.014 204.315 236.093C202.627 233.53 200.536 231.257 198.124 229.36C190.064 223.901 187.85 213.66 185.125 205.373C185.125 204.559 183.809 204.743 183.809 205.45C184.029 205.611 184.029 205.688 183.96 205.688Z" fill="#191919"/>
<path d="M187.976 79.869C184.18 77.0119 179.124 81.907 177.297 85.0539C174.542 89.8009 176.941 94.7937 181.55 93.488C185.292 92.428 188.086 88.6669 189.286 85.0539C189.619 84.1587 189.673 83.1833 189.439 82.2573C189.204 81.3312 188.694 80.4982 187.976 79.869ZM186.119 83.345C186.135 83.7283 186.034 84.1076 185.83 84.4323C185.626 84.7571 185.327 85.0119 184.975 85.1631C184.622 85.3142 184.232 85.3544 183.856 85.2783C183.48 85.2023 183.136 85.0136 182.869 84.7373C180.42 81.8598 185.081 80.2375 186.119 83.345ZM180.779 90.3868C180.424 90.4835 180.048 90.4741 179.697 90.3597C179.347 90.2453 179.038 90.031 178.807 89.7431C178.577 89.4552 178.436 89.1064 178.402 88.7394C178.368 88.3725 178.441 88.0035 178.614 87.6778C178.929 86.9045 181.321 86.3627 181.863 87.4463C182.636 88.9992 182.328 89.541 180.779 90.3931V90.3868Z" fill="#60A600"/>
<path d="M180.082 95.4219C181.673 95.7752 183.325 95.7418 184.901 95.3244C186.476 94.907 187.928 94.1179 189.135 93.0232C193.807 89.0857 193.725 84.3292 191.921 82.8865C189.91 81.4942 190.047 85.512 189.754 86.446C189.158 88.3547 188.049 90.0636 186.55 91.3869C185.051 92.7102 183.217 93.5975 181.249 93.9524C178.762 94.573 178.983 95.2392 180.082 95.4219Z" fill="#191919"/>
<path d="M305.047 151.909C302.458 151.563 299.843 151.433 297.232 151.522C280.964 150.353 251.189 143.397 233.782 140.843C230.61 140.371 224.332 140.853 222.097 137.903C220.463 135.744 219.931 130.861 216.449 129.779C214.282 129.237 212.966 131.171 212.966 133.028C212.875 134.02 212.982 135.019 213.281 135.969C211.67 135.671 210.018 135.671 208.407 135.969C206.476 136.307 204.383 137.052 204.383 139.218C204.46 139.856 204.664 140.473 204.983 141.031C205.301 141.59 205.729 142.078 206.24 142.469C203.841 143.319 201.365 144.635 201.365 147.344C201.409 148.027 201.633 148.688 202.013 149.258C202.393 149.828 202.916 150.289 203.531 150.593C201.132 151.368 198.656 152.991 198.963 155.7C199.018 156.413 199.271 157.095 199.696 157.67C200.12 158.244 200.697 158.688 201.362 158.95C199.426 159.725 196.794 160.033 197.027 163.517C197.125 164.499 197.506 165.432 198.125 166.201C198.743 166.97 199.572 167.543 200.51 167.85C197.802 170.017 194.856 172.418 195.942 175.125C197.251 178.377 200.429 178.839 203.524 178.064C202.597 180 202.36 183.104 204.066 184.72C205.745 186.314 209.445 186.407 213.119 183.017C214.045 182.162 214.978 181.315 215.983 180.541C235.018 187.738 254.507 193.263 273.943 199.421C279.589 201.21 285.146 203.201 290.812 204.683C292.354 205.088 292.609 205.077 293.134 203.599C295.942 195.664 297.837 187.423 300.097 179.303C302.403 171.019 304.822 162.744 307.062 154.464C307.369 152.837 306.514 152.24 305.047 151.909ZM221.788 143.861C221.788 143.861 222.872 144.945 222.561 144.945C221.788 144.945 219.933 148.66 219.544 149.355C216.947 153.933 215.413 159.037 215.056 164.289C214.907 166.147 215.214 167.926 215.214 169.705C215.214 170.945 214.986 173.485 213.357 172.492C211.196 171.167 211.5 166.998 211.732 164.908C211.835 160.437 212.946 156.046 214.982 152.064C216.77 148.635 218.251 146.057 221.788 143.861Z" fill="#60A600"/>
</svg>
